{
.appVersion = "1352";
DisplayStrings = (
"nnnoonnoononn\012nnn/Placeholder no/Placeholder oo\012abcdefghijkolmno\012pqrsnotuvwoxoyz",
"Tüte/space Töten/space Täter/space TéTêTèVeste/space Vogel/space VéVêVèVater/space Vijf/space Vlut/space Vulkan/space Vì/space",

glyphs = (
{
glyphname = .notdef;
lastChange = "2021-09-24 03:41:18 +0000";
layers = (
{
background = {
paths = (
{
closed = 1;
nodes = (
"502 0 LINE SMOOTH",
"504 0 OFFCURVE",
"506 1 OFFCURVE",
"506 4 CURVE SMOOTH",
"514 70 OFFCURVE",
"520 202 OFFCURVE",
"520 334 CURVE SMOOTH",
"520 468 OFFCURVE",
"513 604 OFFCURVE",
"505 669 CURVE SMOOTH",
"505 671 OFFCURVE",
"502 673 OFFCURVE",
"501 673 CURVE SMOOTH",
"99 673 LINE SMOOTH",
"98 673 OFFCURVE",
"95 671 OFFCURVE",
"95 669 CURVE SMOOTH",
"87 604 OFFCURVE",
"80 468 OFFCURVE",
"80 334 CURVE SMOOTH",
"80 202 OFFCURVE",
"86 70 OFFCURVE",
"94 4 CURVE SMOOTH",
"94 1 OFFCURVE",
"97 0 OFFCURVE",
"98 0 CURVE SMOOTH"
);
},
{
closed = 1;
nodes = (
"114 118 OFFCURVE",
"113 241 OFFCURVE",
"113 335 CURVE SMOOTH",
"113 426 OFFCURVE",
"118 529 OFFCURVE",
"126 643 CURVE",
"474 643 LINE",
"481 551 OFFCURVE",
"487 442 OFFCURVE",
"487 337 CURVE SMOOTH",
"487 247 OFFCURVE",
"485 113 OFFCURVE",
"476 30 CURVE",
"124 30 LINE"
);
},
{
closed = 1;
nodes = (
"186 80 LINE SMOOTH",
"190 80 OFFCURVE",
"194 82 OFFCURVE",
"197 88 CURVE SMOOTH",
"427 587 LINE",
"431 592 OFFCURVE",
"430 594 OFFCURVE",
"425 594 CURVE SMOOTH",
"406 594 LINE SMOOTH",
"402 594 OFFCURVE",
"400 594 OFFCURVE",
"397 588 CURVE SMOOTH",
"166 86 LINE SMOOTH",
"165 84 OFFCURVE",
"162 80 OFFCURVE",
"170 80 CURVE SMOOTH"
);
},
{
closed = 1;
nodes = (
"432 80 OFFCURVE",
"429 84 OFFCURVE",
"428 86 CURVE SMOOTH",
"197 588 LINE SMOOTH",
"194 594 OFFCURVE",
"192 594 OFFCURVE",
"188 594 CURVE SMOOTH",
"169 594 LINE SMOOTH",
"164 594 OFFCURVE",
"163 592 OFFCURVE",
"167 587 CURVE",
"397 88 LINE SMOOTH",
"399 83 OFFCURVE",
"404 80 OFFCURVE",
"408 80 CURVE SMOOTH",
"424 80 LINE SMOOTH"
);
}
);
};
layerId = "C7668D88-AC50-4107-9C4B-DB5D26A8FA6C";
paths = (
{
closed = 1;
nodes = (
"502 0 LINE SMOOTH",
"504 0 OFFCURVE",
"506 1 OFFCURVE",
"506 4 CURVE SMOOTH",
"514 70 OFFCURVE",
"520 202 OFFCURVE",
"520 334 CURVE SMOOTH",
"520 468 OFFCURVE",
"513 604 OFFCURVE",
"505 669 CURVE SMOOTH",
"505 671 OFFCURVE",
"502 673 OFFCURVE",
"501 673 CURVE SMOOTH",
"99 673 LINE SMOOTH",
"98 673 OFFCURVE",
"95 671 OFFCURVE",
"95 669 CURVE SMOOTH",
"87 604 OFFCURVE",
"80 468 OFFCURVE",
"80 334 CURVE SMOOTH",
"80 202 OFFCURVE",
"86 70 OFFCURVE",
"94 4 CURVE SMOOTH",
"94 1 OFFCURVE",
"97 0 OFFCURVE",
"98 0 CURVE SMOOTH"
);
},
{
closed = 1;
nodes = (
"114 118 OFFCURVE",
"113 241 OFFCURVE",
"113 335 CURVE SMOOTH",
"113 426 OFFCURVE",
"118 529 OFFCURVE",
"126 643 CURVE",
"474 643 LINE",
"481 551 OFFCURVE",
"487 442 OFFCURVE",
"487 337 CURVE SMOOTH",
"487 247 OFFCURVE",
"485 113 OFFCURVE",
"476 30 CURVE",
"124 30 LINE"
);
},
{
closed = 1;
nodes = (
"186 80 LINE SMOOTH",
"190 80 OFFCURVE",
"194 82 OFFCURVE",
"197 88 CURVE SMOOTH",
"427 587 LINE",
"431 592 OFFCURVE",
"430 594 OFFCURVE",
"425 594 CURVE SMOOTH",
"406 594 LINE SMOOTH",
"402 594 OFFCURVE",
"400 594 OFFCURVE",
"397 588 CURVE SMOOTH",
"166 86 LINE SMOOTH",
"165 84 OFFCURVE",
"162 80 OFFCURVE",
"170 80 CURVE SMOOTH"
);
},
{
closed = 1;
nodes = (
"432 80 OFFCURVE",
"429 84 OFFCURVE",
"428 86 CURVE SMOOTH",
"197 588 LINE SMOOTH",
"194 594 OFFCURVE",
"192 594 OFFCURVE",
"188 594 CURVE SMOOTH",
"169 594 LINE SMOOTH",
"164 594 OFFCURVE",
"163 592 OFFCURVE",
"167 587 CURVE",
"397 88 LINE SMOOTH",
"399 83 OFFCURVE",
"404 80 OFFCURVE",
"408 80 CURVE SMOOTH",
"424 80 LINE SMOOTH"
);
}
);
width = 600;
},
{
layerId = "B5FD97B6-BD2C-4287-9857-851C623D3F63";
paths = (
{
closed = 1;
nodes = (
"502 0 LINE SMOOTH",
"504 0 OFFCURVE",
"506 1 OFFCURVE",
"506 4 CURVE SMOOTH",
"514 70 OFFCURVE",
"520 202 OFFCURVE",
"520 334 CURVE SMOOTH",
"520 468 OFFCURVE",
"513 604 OFFCURVE",
"505 669 CURVE SMOOTH",
"505 671 OFFCURVE",
"502 673 OFFCURVE",
"501 673 CURVE SMOOTH",
"99 673 LINE SMOOTH",
"98 673 OFFCURVE",
"95 671 OFFCURVE",
"95 669 CURVE SMOOTH",
"87 604 OFFCURVE",
"80 468 OFFCURVE",
"80 334 CURVE SMOOTH",
"80 202 OFFCURVE",
"86 70 OFFCURVE",
"94 4 CURVE SMOOTH",
"94 1 OFFCURVE",
"97 0 OFFCURVE",
"98 0 CURVE SMOOTH"
);
},
{
closed = 1;
nodes = (
"114 118 OFFCURVE",
"113 241 OFFCURVE",
"113 335 CURVE SMOOTH",
"113 426 OFFCURVE",
"118 529 OFFCURVE",
"126 643 CURVE",
"474 643 LINE",
"481 551 OFFCURVE",
"487 442 OFFCURVE",
"487 337 CURVE SMOOTH",
"487 247 OFFCURVE",
"485 113 OFFCURVE",
"476 30 CURVE",
"124 30 LINE"
);
},
{
closed = 1;
nodes = (
"186 80 LINE SMOOTH",
"190 80 OFFCURVE",
"194 82 OFFCURVE",
"197 88 CURVE SMOOTH",
"427 587 LINE",
"431 592 OFFCURVE",
"430 594 OFFCURVE",
"425 594 CURVE SMOOTH",
"406 594 LINE SMOOTH",
"402 594 OFFCURVE",
"400 594 OFFCURVE",
"397 588 CURVE SMOOTH",
"166 86 LINE SMOOTH",
"165 84 OFFCURVE",
"162 80 OFFCURVE",
"170 80 CURVE SMOOTH"
);
},
{
closed = 1;
nodes = (
"432 80 OFFCURVE",
"429 84 OFFCURVE",
"428 86 CURVE SMOOTH",
"197 588 LINE SMOOTH",
"194 594 OFFCURVE",
"192 594 OFFCURVE",
"188 594 CURVE SMOOTH",
"169 594 LINE SMOOTH",
"164 594 OFFCURVE",
"163 592 OFFCURVE",
"167 587 CURVE",
"397 88 LINE SMOOTH",
"399 83 OFFCURVE",
"404 80 OFFCURVE",
"408 80 CURVE SMOOTH",
"424 80 LINE SMOOTH"
);
}
);
width = 600;
}
);
note = .notdef;
},
{
glyphname = A;
lastChange = "2021-09-24 03:41:18 +0000";
layers = (
{
anchors = (
{
name = bottom;
position = "{333, 0}";
},
{
name = ogonek;
position = "{610, 10}";
},
{
name = top;
position = "{333, 460}";
}
);
background = {
anchors = (
{
name = bottom;
position = "{333, 0}";
},
{
name = ogonek;
position = "{610, 10}";
},
{
name = top;
position = "{333, 460}";
}
);
hints = (
{
horizontal = 1;
place = "{64, 151}";
type = Stem;
},
{
horizontal = 1;
place = "{460, -20}";
target = down;
type = TopGhost;
},
{
place = "{26, 685}";
type = Stem;
},
{
horizontal = 1;
place = "{0, 215}";
type = Stem;
}
);
paths = (
{
closed = 1;
nodes = (
"166 0 LINE",
"206 86 LINE",
"384 86 LINE",
"427 0 LINE",
"674 0 LINE",
"497 374 LINE",
"469 434 OFFCURVE",
"414 464 OFFCURVE",
"337 464 CURVE",
"238 464 OFFCURVE",
"197 430 OFFCURVE",
"170 374 CURVE",
"-7 0 LINE"
);
},
{
closed = 1;
nodes = (
"289 265 LINE",
"291 269 OFFCURVE",
"293 274 OFFCURVE",
"293 274 CURVE",
"293 274 OFFCURVE",
"295 269 OFFCURVE",
"296 265 CURVE",
"342 169 LINE",
"241 169 LINE"
);
}
);
};
layerId = "C7668D88-AC50-4107-9C4B-DB5D26A8FA6C";
paths = (
{
closed = 1;
nodes = (
"166 0 LINE",
"206 86 LINE",
"384 86 LINE",
"427 0 LINE",
"674 0 LINE",
"497 374 LINE",
"469 434 OFFCURVE",
"414 464 OFFCURVE",
"337 464 CURVE",
"238 464 OFFCURVE",
"197 430 OFFCURVE",
"170 374 CURVE",
"-7 0 LINE"
);
},
{
closed = 1;
nodes = (
"289 265 LINE",
"291 269 OFFCURVE",
"293 274 OFFCURVE",
"293 274 CURVE",
"293 274 OFFCURVE",
"295 269 OFFCURVE",
"296 265 CURVE",
"342 169 LINE",
"241 169 LINE"
);
}
);
width = 678;
},
{
anchors = (
{
name = bottom;
position = "{228, 0}";
},
{
name = ogonek;
position = "{426, 10}";
},
{
name = top;
position = "{228, 460}";
}
);
layerId = "B5FD97B6-BD2C-4287-9857-851C623D3F63";
paths = (
{
closed = 1;
nodes = (
"46 0 LINE",
"88 141 LINE",
"363 141 LINE",
"406 0 LINE",
"431 0 LINE",
"309 399 LINE SMOOTH",
"295 445 OFFCURVE",
"282 464 OFFCURVE",
"226 464 CURVE SMOOTH",
"170 464 OFFCURVE",
"155 441 OFFCURVE",
"143 399 CURVE SMOOTH",
"25 0 LINE"
);
},
{
closed = 1;
nodes = (
"162 397 LINE SMOOTH",
"169 421 OFFCURVE",
"177 445 OFFCURVE",
"225 445 CURVE SMOOTH",
"269 445 OFFCURVE",
"277 422 OFFCURVE",
"285 397 CURVE SMOOTH",
"358 159 LINE",
"93 159 LINE"
);
}
);
width = 457;
}
);
leftKerningGroup = A;
note = A;
rightKerningGroup = A;
unicode = 0041;
},
{
glyphname = AE;
lastChange = "2021-09-24 03:41:18 +0000";
layers = (
{
anchors = (
{
name = bottom;
position = "{484, 0}";
},
{
name = top;
position = "{671, 460}";
}
);
background = {
anchors = (
{
name = bottom;
position = "{484, 0}";
},
{
name = top;
position = "{671, 460}";
}
);
paths = (
{
closed = 1;
nodes = (
"189 0 LINE",
"209 25 OFFCURVE",
"230 49 OFFCURVE",
"250 74 CURVE",
"408 74 LINE",
"408 0 LINE",
"589 0 OFFCURVE",
"769 0 OFFCURVE",
"950 0 CURVE",
"950 123 LINE",
"627 123 LINE",
"627 167 LINE",
"724 167 OFFCURVE",
"820 167 OFFCURVE",
"917 167 CURVE",
"917 290 LINE",
"627 290 LINE",
"627 337 LINE",
"950 337 LINE",
"950 378 OFFCURVE",
"950 419 OFFCURVE",
"950 460 CURVE",
"532 460 LINE SMOOTH",
"474 460 OFFCURVE",
"416 460 OFFCURVE",
"367 402 CURVE SMOOTH",
"206 208 OFFCURVE",
"180 177 OFFCURVE",
"35 0 CURVE"
);
},
{
closed = 1;
nodes = (
"346 191 OFFCURVE",
"368 219 OFFCURVE",
"390 248 CURVE SMOOTH",
"392 250 OFFCURVE",
"394 253 OFFCURVE",
"396 255 CURVE SMOOTH",
"400 260 OFFCURVE",
"404 265 OFFCURVE",
"408 270 CURVE",
"408 234 OFFCURVE",
"408 198 OFFCURVE",
"408 162 CURVE",
"380 162 OFFCURVE",
"352 162 OFFCURVE",
"324 162 CURVE"
);
}
);
};
layerId = "C7668D88-AC50-4107-9C4B-DB5D26A8FA6C";
paths = (
{
closed = 1;
nodes = (
"189 0 LINE",
"209 25 OFFCURVE",
"230 49 OFFCURVE",
"250 74 CURVE",
"408 74 LINE",
"408 0 LINE",
"589 0 OFFCURVE",
"769 0 OFFCURVE",
"950 0 CURVE",
"950 123 LINE",
"627 123 LINE",
"627 167 LINE",
"724 167 OFFCURVE",
"820 167 OFFCURVE",
"917 167 CURVE",
"917 290 LINE",
"627 290 LINE",
"627 337 LINE",
"950 337 LINE",
"950 378 OFFCURVE",
"950 419 OFFCURVE",
"950 460 CURVE",
"532 460 LINE SMOOTH",
"474 460 OFFCURVE",
"416 460 OFFCURVE",
"367 402 CURVE SMOOTH",
"206 208 OFFCURVE",
"180 177 OFFCURVE",
"35 0 CURVE"
);
},
{
closed = 1;
nodes = (
"346 191 OFFCURVE",
"368 219 OFFCURVE",
"390 248 CURVE SMOOTH",
"392 250 OFFCURVE",
"394 253 OFFCURVE",
"396 255 CURVE SMOOTH",
"400 260 OFFCURVE",
"404 265 OFFCURVE",
"408 270 CURVE",
"408 234 OFFCURVE",
"408 198 OFFCURVE",
"408 162 CURVE",
"380 162 OFFCURVE",
"352 162 OFFCURVE",
"324 162 CURVE"
);
}
);
width = 968;
},
{
anchors = (
{
name = bottom;
position = "{355, 0}";
},
{
name = top;
position = "{359, 460}";
}
);
layerId = "B5FD97B6-BD2C-4287-9857-851C623D3F63";
paths = (
{
closed = 1;
nodes = (
"22 0 LINE",
"50 47 OFFCURVE",
"78 94 OFFCURVE",
"107 141 CURVE",
"321 141 LINE",
"321 0 LINE",
"443 0 OFFCURVE",
"566 0 OFFCURVE",
"689 0 CURVE",
"689 19 LINE",
"345 19 LINE",
"345 235 LINE",
"451 235 OFFCURVE",
"557 235 OFFCURVE",
"662 235 CURVE",
"662 254 LINE",
"345 254 LINE",
"345 441 LINE",
"689 441 LINE",
"689 448 OFFCURVE",
"689 453 OFFCURVE",
"689 460 CURVE",
"334 460 LINE SMOOTH",
"305 460 OFFCURVE",
"273 454 OFFCURVE",
"239 396 CURVE SMOOTH",
"158 263 OFFCURVE",
"80 133 OFFCURVE",
"0 0 CURVE"
);
},
{
closed = 1;
nodes = (
"166 238 OFFCURVE",
"213 317 OFFCURVE",
"261 396 CURVE SMOOTH",
"275 420 OFFCURVE",
"291 439 OFFCURVE",
"315 439 CURVE SMOOTH",
"317 439 OFFCURVE",
"319 439 OFFCURVE",
"321 439 CURVE",
"321 346 OFFCURVE",
"321 253 OFFCURVE",
"321 159 CURVE",
"254 159 OFFCURVE",
"186 159 OFFCURVE",
"118 159 CURVE"
);
}
);
width = 710;
}
);
leftKerningGroup = AE;
note = AE;
rightKerningGroup = E;
unicode = 00C6;
},
{
glyphname = B;
lastChange = "2021-09-30 21:11:33 +0000";
layers = (
{
anchors = (
{
name = bottom;
position = "{344, 0}";
},
{
name = top;
position = "{344, 460}";
}
);
background = {
anchors = (
{
name = bottom;
position = "{344, 0}";
},
{
name = top;
position = "{344, 460}";
}
);
hints = (
{
horizontal = 1;
place = "{0, 103}";
type = Stem;
},
{
horizontal = 1;
place = "{189, 97}";
type = Stem;
},
{
horizontal = 1;
place = "{372, 88}";
type = Stem;
},
{
place = "{40, 228}";
type = Stem;
},
{
place = "{434, 227}";
type = Stem;
}
);
paths = (
{
closed = 1;
nodes = (
"35 0 LINE",
"65 -1 OFFCURVE",
"342 -1 OFFCURVE",
"458 -1 CURVE SMOOTH",
"623 -1 OFFCURVE",
"656 22 OFFCURVE",
"656 137 CURVE SMOOTH",
"656 218 OFFCURVE",
"631 245 OFFCURVE",
"547 245 CURVE",
"574 245 OFFCURVE",
"640 255 OFFCURVE",
"640 348 CURVE SMOOTH",
"640 413 OFFCURVE",
"611 452 OFFCURVE",
"534 459 CURVE SMOOTH",
"476 464 OFFCURVE",
"368 462 OFFCURVE",
"82 460 CURVE SMOOTH",
"52 460 OFFCURVE",
"35 453 OFFCURVE",
"35 414 CURVE SMOOTH"
);
},
{
closed = 1;
nodes = (
"222 286 LINE",
"222 279 OFFCURVE",
"218 189 OFFCURVE",
"232 189 CURVE SMOOTH",
"383 189 LINE SMOOTH",
"423 189 OFFCURVE",
"429 177 OFFCURVE",
"429 147 CURVE SMOOTH",
"429 103 OFFCURVE",
"418 103 OFFCURVE",
"382 103 CURVE SMOOTH",
"268 103 OFFCURVE",
"279 103 OFFCURVE",
"263 103 CURVE",
"263 344 LINE SMOOTH",
"263 369 OFFCURVE",
"284 372 OFFCURVE",
"289 372 CURVE SMOOTH",
"323 372 OFFCURVE",
"357 372 OFFCURVE",
"380 372 CURVE SMOOTH",
"406 372 OFFCURVE",
"412 358 OFFCURVE",
"412 330 CURVE SMOOTH",
"412 286 OFFCURVE",
"400 286 OFFCURVE",
"376 286 CURVE SMOOTH"
);
}
);
};
layerId = "C7668D88-AC50-4107-9C4B-DB5D26A8FA6C";
paths = (
{
closed = 1;
nodes = (
"623 -1 OFFCURVE",
"656 22 OFFCURVE",
"656 137 CURVE SMOOTH",
"656 218 OFFCURVE",
"631 245 OFFCURVE",
"547 245 CURVE",
"593 245 OFFCURVE",
"640 268 OFFCURVE",
"640 348 CURVE SMOOTH",
"640 426 OFFCURVE",
"599 456 OFFCURVE",
"527 460 CURVE SMOOTH",
"500 461 OFFCURVE",
"393 462 OFFCURVE",
"332 462 CURVE SMOOTH",
"261 462 OFFCURVE",
"235 461 OFFCURVE",
"82 460 CURVE SMOOTH",
"52 460 OFFCURVE",
"35 453 OFFCURVE",
"35 414 CURVE SMOOTH",
"35 0 LINE",
"113 -4 OFFCURVE",
"233 -1 OFFCURVE",
"458 -1 CURVE SMOOTH"
);
},
{
closed = 1;
nodes = (
"284 103 OFFCURVE",
"320 103 OFFCURVE",
"263 103 CURVE",
"263 344 LINE SMOOTH",
"263 361 OFFCURVE",
"274 372 OFFCURVE",
"289 372 CURVE SMOOTH",
"306 372 OFFCURVE",
"323 372 OFFCURVE",
"339 372 CURVE SMOOTH",
"354 372 OFFCURVE",
"369 372 OFFCURVE",
"380 372 CURVE SMOOTH",
"403 372 OFFCURVE",
"412 361 OFFCURVE",
"412 330 CURVE SMOOTH",
"412 286 OFFCURVE",
"400 286 OFFCURVE",
"376 286 CURVE SMOOTH",
"222 286 LINE",
"222 222 OFFCURVE",
"226 189 OFFCURVE",
"255 189 CURVE SMOOTH",
"383 189 LINE SMOOTH",
"423 189 OFFCURVE",
"429 177 OFFCURVE",
"429 147 CURVE SMOOTH",
"429 103 OFFCURVE",
"418 103 OFFCURVE",
"382 103 CURVE SMOOTH"
);
}
);
width = 684;
},
{
anchors = (
{
name = bottom;
position = "{291, 0}";
},
{
name = top;
position = "{291, 460}";
}
);
background = {
paths = (
{
closed = 1;
nodes = (
"93 0 LINE",
"123 -2 OFFCURVE",
"183 -3 OFFCURVE",
"294 -3 CURVE SMOOTH",
"377 -3 OFFCURVE",
"495 -3 OFFCURVE",
"495 123 CURVE SMOOTH",
"495 232 OFFCURVE",
"434 238 OFFCURVE",
"399 238 CURVE",
"431 243 OFFCURVE",
"476 269 OFFCURVE",
"476 348 CURVE SMOOTH",
"476 413 OFFCURVE",
"447 452 OFFCURVE",
"370 459 CURVE SMOOTH",
"312 464 OFFCURVE",
"204 462 OFFCURVE",
"140 460 CURVE SMOOTH",
"110 459 OFFCURVE",
"93 453 OFFCURVE",
"93 414 CURVE SMOOTH"
);
},
{
closed = 1;
nodes = (
"160 245 LINE",
"160 238 OFFCURVE",
"159 226 OFFCURVE",
"171 226 CURVE SMOOTH",
"342 226 LINE SMOOTH",
"442 226 OFFCURVE",
"470 202 OFFCURVE",
"470 124 CURVE SMOOTH",
"470 16 OFFCURVE",
"377 16 OFFCURVE",
"293 16 CURVE SMOOTH",
"179 16 OFFCURVE",
"126 17 OFFCURVE",
"117 18 CURVE",
"117 414 LINE SMOOTH",
"117 439 OFFCURVE",
"139 442 OFFCURVE",
"144 442 CURVE SMOOTH",
"189 443 OFFCURVE",
"299 447 OFFCURVE",
"370 440 CURVE SMOOTH",
"427 434 OFFCURVE",
"451 402 OFFCURVE",
"451 350 CURVE SMOOTH",
"451 263 OFFCURVE",
"397 245 OFFCURVE",
"341 245 CURVE SMOOTH"
);
}
);
};
layerId = "B5FD97B6-BD2C-4287-9857-851C623D3F63";
paths = (
{
closed = 1;
nodes = (
"377 -3 OFFCURVE",
"495 -3 OFFCURVE",
"495 123 CURVE SMOOTH",
"495 232 OFFCURVE",
"434 238 OFFCURVE",
"399 238 CURVE",
"431 243 OFFCURVE",
"476 269 OFFCURVE",
"476 348 CURVE SMOOTH",
"476 413 OFFCURVE",
"447 452 OFFCURVE",
"370 459 CURVE SMOOTH",
"343 461 OFFCURVE",
"305 462 OFFCURVE",
"266 462 CURVE SMOOTH",
"221 462 OFFCURVE",
"174 461 OFFCURVE",
"140 460 CURVE SMOOTH",
"110 459 OFFCURVE",
"93 453 OFFCURVE",
"93 414 CURVE SMOOTH",
"93 0 LINE",
"123 -2 OFFCURVE",
"183 -3 OFFCURVE",
"294 -3 CURVE SMOOTH"
);
},
{
closed = 1;
nodes = (
"179 16 OFFCURVE",
"126 17 OFFCURVE",
"117 18 CURVE",
"117 414 LINE SMOOTH",
"117 435 OFFCURVE",
"128 442 OFFCURVE",
"144 442 CURVE SMOOTH",
"169 443 OFFCURVE",
"214 444 OFFCURVE",
"262 444 CURVE SMOOTH",
"299 444 OFFCURVE",
"339 443 OFFCURVE",
"370 440 CURVE SMOOTH",
"427 434 OFFCURVE",
"451 402 OFFCURVE",
"451 350 CURVE SMOOTH",
"451 263 OFFCURVE",
"397 245 OFFCURVE",
"341 245 CURVE SMOOTH",
"160 245 LINE",
"160 231 OFFCURVE",
"163 225 OFFCURVE",
"177 225 CURVE SMOOTH",
"342 225 LINE SMOOTH",
"442 225 OFFCURVE",
"470 201 OFFCURVE",
"470 124 CURVE SMOOTH",
"470 16 OFFCURVE",
"377 16 OFFCURVE",
"293 16 CURVE SMOOTH"
);
}
);
width = 562;
}
);
leftKerningGroup = H;
leftMetricsKey = "=H-5";
note = B;
rightKerningGroup = B;
unicode = 0042;
},
{
glyphname = C;
lastChange = "2021-09-24 03:41:18 +0000";
layers = (
{
anchors = (
{
name = bottom;
position = "{363, 0}";
},
{
name = top;
position = "{369, 460}";
}
);
background = {
anchors = (
{
name = bottom;
position = "{363, 0}";
},
{
name = top;
position = "{369, 460}";
}
);
paths = (
{
closed = 1;
nodes = (
"-780 25 OFFCURVE",
"-658 -6 OFFCURVE",
"-413 -6 CURVE SMOOTH",
"-354 -6 OFFCURVE",
"-295 -4 OFFCURVE",
"-243 4 CURVE SMOOTH",
"-173 12 OFFCURVE",
"-156 39 OFFCURVE",
"-156 82 CURVE SMOOTH",
"-156 146 LINE",
"-254 127 OFFCURVE",
"-317 117 OFFCURVE",
"-376 117 CURVE SMOOTH",
"-497 117 OFFCURVE",
"-547 126 OFFCURVE",
"-547 227 CURVE SMOOTH",
"-547 334 OFFCURVE",
"-498 339 OFFCURVE",
"-394 339 CURVE SMOOTH",
"-331 339 OFFCURVE",
"-229 327 OFFCURVE",
"-156 304 CURVE",
"-156 373 LINE SMOOTH",
"-156 419 OFFCURVE",
"-172 444 OFFCURVE",
"-238 452 CURVE SMOOTH",
"-293 459 OFFCURVE",
"-344 462 OFFCURVE",
"-404 462 CURVE SMOOTH",
"-608 462 OFFCURVE",
"-780 451 OFFCURVE",
"-780 226 CURVE SMOOTH"
);
},
{
closed = 1;
nodes = (
"599 -7 OFFCURVE",
"677 55 OFFCURVE",
"677 230 CURVE SMOOTH",
"677 405 OFFCURVE",
"599 467 OFFCURVE",
"349 467 CURVE SMOOTH",
"99 467 OFFCURVE",
"20 405 OFFCURVE",
"20 230 CURVE SMOOTH",
"20 55 OFFCURVE",
"99 -7 OFFCURVE",
"349 -7 CURVE SMOOTH"
);
},
{
closed = 1;
nodes = (
"277 109 OFFCURVE",
"254 138 OFFCURVE",
"254 230 CURVE SMOOTH",
"254 322 OFFCURVE",
"277 351 OFFCURVE",
"349 351 CURVE SMOOTH",
"421 351 OFFCURVE",
"443 322 OFFCURVE",
"443 230 CURVE SMOOTH",
"443 138 OFFCURVE",
"421 109 OFFCURVE",
"349 109 CURVE SMOOTH"
);
},
{
closed = 1;
nodes = (
"20 46 OFFCURVE",
"93 -4 OFFCURVE",
"387 -4 CURVE SMOOTH",
"446 -4 OFFCURVE",
"505 -2 OFFCURVE",
"557 6 CURVE SMOOTH",
"627 14 OFFCURVE",
"644 41 OFFCURVE",
"644 84 CURVE SMOOTH",
"644 148 LINE",
"546 129 OFFCURVE",
"483 119 OFFCURVE",
"424 119 CURVE SMOOTH",
"303 119 OFFCURVE",
"253 128 OFFCURVE",
"253 229 CURVE SMOOTH",
"253 336 OFFCURVE",
"302 341 OFFCURVE",
"406 341 CURVE SMOOTH",
"469 341 OFFCURVE",
"571 329 OFFCURVE",
"644 306 CURVE",
"644 375 LINE SMOOTH",
"644 421 OFFCURVE",
"628 446 OFFCURVE",
"562 454 CURVE SMOOTH",
"507 461 OFFCURVE",
"456 464 OFFCURVE",
"396 464 CURVE SMOOTH",
"102 464 OFFCURVE",
"20 414 OFFCURVE",
"20 230 CURVE SMOOTH"
);
}
);
};
layerId = "C7668D88-AC50-4107-9C4B-DB5D26A8FA6C";
paths = (
{
closed = 1;
nodes = (
"20 46 OFFCURVE",
"93 -4 OFFCURVE",
"387 -4 CURVE SMOOTH",
"443 -4 OFFCURVE",
"495 -2 OFFCURVE",
"547 6 CURVE SMOOTH",
"617 14 OFFCURVE",
"634 41 OFFCURVE",
"634 84 CURVE SMOOTH",
"634 148 LINE",
"536 129 OFFCURVE",
"480 119 OFFCURVE",
"424 119 CURVE SMOOTH",
"303 119 OFFCURVE",
"253 128 OFFCURVE",
"253 229 CURVE SMOOTH",
"253 336 OFFCURVE",
"302 341 OFFCURVE",
"406 341 CURVE SMOOTH",
"466 341 OFFCURVE",
"561 329 OFFCURVE",
"634 306 CURVE",
"634 375 LINE SMOOTH",
"634 421 OFFCURVE",
"618 446 OFFCURVE",
"552 454 CURVE SMOOTH",
"497 461 OFFCURVE",
"452 464 OFFCURVE",
"396 464 CURVE SMOOTH",
"102 464 OFFCURVE",
"20 414 OFFCURVE",
"20 230 CURVE SMOOTH"
);
}
);
width = 663;
},
{
anchors = (
{
name = bottom;
position = "{280, 0}";
},
{
name = top;
position = "{280, 460}";
}
);
layerId = "B5FD97B6-BD2C-4287-9857-851C623D3F63";
paths = (
{
closed = 1;
nodes = (
"54 33 OFFCURVE",
"116 -8 OFFCURVE",
"282 -8 CURVE SMOOTH",
"328 -8 OFFCURVE",
"373 -5 OFFCURVE",
"418 4 CURVE SMOOTH",
"448 9 OFFCURVE",
"454 17 OFFCURVE",
"454 26 CURVE SMOOTH",
"454 35 LINE",
"424 20 OFFCURVE",
"335 10 OFFCURVE",
"281 10 CURVE SMOOTH",
"121 10 OFFCURVE",
"79 64 OFFCURVE",
"79 230 CURVE SMOOTH",
"79 394 OFFCURVE",
"128 448 OFFCURVE",
"281 448 CURVE SMOOTH",
"335 448 OFFCURVE",
"425 438 OFFCURVE",
"454 422 CURVE",
"454 432 LINE SMOOTH",
"454 442 OFFCURVE",
"448 449 OFFCURVE",
"418 454 CURVE SMOOTH",
"373 463 OFFCURVE",
"329 466 OFFCURVE",
"282 466 CURVE SMOOTH",
"124 466 OFFCURVE",
"54 422 OFFCURVE",
"54 230 CURVE SMOOTH"
);
}
);
width = 485;
}
);
leftKerningGroup = O;
leftMetricsKey = O;
note = C;
rightKerningGroup = C;
unicode = 0043;
},
{
glyphname = D;
lastChange = "2021-09-30 21:12:19 +0000";
layers = (
{
anchors = (
{
name = bottom;
position = "{358, 0}";
},
{
name = center;
position = "{178, 225}";
},
{
name = top;
position = "{358, 460}";
}
);
background = {
anchors = (
{
name = bottom;
position = "{358, 0}";
},
{
name = center;
position = "{358, 230}";
},
{
name = top;
position = "{358, 460}";
}
);
paths = (
{
closed = 1;
nodes = (
"673 1050 OFFCURVE",
"550 1060 OFFCURVE",
"385 1060 CURVE SMOOTH",
"296 1060 OFFCURVE",
"208 1060 OFFCURVE",
"119 1060 CURVE SMOOTH",
"57 1060 OFFCURVE",
"43 1037 OFFCURVE",
"43 981 CURVE SMOOTH",
"43 600 LINE",
"137 600 OFFCURVE",
"231 600 OFFCURVE",
"325 600 CURVE SMOOTH",
"538 600 OFFCURVE",
"673 604 OFFCURVE",
"673 826 CURVE SMOOTH"
);
},
{
closed = 1;
nodes = (
"271 918 LINE",
"271 928 OFFCURVE",
"271 939 OFFCURVE",
"271 949 CURVE",
"296 949 OFFCURVE",
"322 949 OFFCURVE",
"347 949 CURVE SMOOTH",
"421 949 OFFCURVE",
"447 942 OFFCURVE",
"447 827 CURVE SMOOTH",
"447 758 OFFCURVE",
"428 712 OFFCURVE",
"356 712 CURVE SMOOTH",
"328 712 OFFCURVE",
"299 712 OFFCURVE",
"271 712 CURVE"
);
},
{
closed = 1;
nodes = (
"595 -7 OFFCURVE",
"673 55 OFFCURVE",
"673 230 CURVE SMOOTH",
"673 405 OFFCURVE",
"595 467 OFFCURVE",
"345 467 CURVE SMOOTH",
"95 467 OFFCURVE",
"16 405 OFFCURVE",
"16 230 CURVE SMOOTH",
"16 55 OFFCURVE",
"95 -7 OFFCURVE",
"345 -7 CURVE SMOOTH"
);
},
{
closed = 1;
nodes = (
"273 109 OFFCURVE",
"250 138 OFFCURVE",
"250 230 CURVE SMOOTH",
"250 322 OFFCURVE",
"273 351 OFFCURVE",
"345 351 CURVE SMOOTH",
"417 351 OFFCURVE",
"439 322 OFFCURVE",
"439 230 CURVE SMOOTH",
"439 138 OFFCURVE",
"417 109 OFFCURVE",
"345 109 CURVE SMOOTH"
);
},
{
closed = 1;
nodes = (
"673 1050 OFFCURVE",
"550 1060 OFFCURVE",
"385 1060 CURVE SMOOTH",
"296 1060 OFFCURVE",
"208 1060 OFFCURVE",
"119 1060 CURVE SMOOTH",
"57 1060 OFFCURVE",
"43 1037 OFFCURVE",
"43 981 CURVE SMOOTH",
"43 600 LINE",
"137 600 OFFCURVE",
"231 600 OFFCURVE",
"325 600 CURVE SMOOTH",
"538 600 OFFCURVE",
"673 604 OFFCURVE",
"673 830 CURVE SMOOTH"
);
},
{
closed = 1;
nodes = (
"271 918 LINE",
"271 928 OFFCURVE",
"271 939 OFFCURVE",
"271 949 CURVE",
"296 949 OFFCURVE",
"322 949 OFFCURVE",
"347 949 CURVE SMOOTH",
"421 949 OFFCURVE",
"447 942 OFFCURVE",
"447 827 CURVE SMOOTH",
"447 758 OFFCURVE",
"428 712 OFFCURVE",
"356 712 CURVE SMOOTH",
"328 712 OFFCURVE",
"299 712 OFFCURVE",
"271 712 CURVE"
);
}
);
};
layerId = "C7668D88-AC50-4107-9C4B-DB5D26A8FA6C";
paths = (
{
closed = 1;
nodes = (
"673 410 OFFCURVE",
"597 460 OFFCURVE",
"377 460 CURVE SMOOTH",
"288 460 OFFCURVE",
"200 460 OFFCURVE",
"111 460 CURVE SMOOTH",
"57 460 OFFCURVE",
"35 441 OFFCURVE",
"35 392 CURVE SMOOTH",
"35 0 LINE",
"129 0 OFFCURVE",
"223 0 OFFCURVE",
"377 0 CURVE SMOOTH",
"597 0 OFFCURVE",
"673 50 OFFCURVE",
"673 230 CURVE SMOOTH"
);
},
{
closed = 1;
nodes = (
"263 318 LINE SMOOTH",
"263 328 OFFCURVE",
"263 338 OFFCURVE",
"263 348 CURVE",
"288 348 OFFCURVE",
"314 348 OFFCURVE",
"339 348 CURVE SMOOTH",
"412 348 OFFCURVE",
"439 329 OFFCURVE",
"439 230 CURVE SMOOTH",
"439 139 OFFCURVE",
"413 112 OFFCURVE",
"348 112 CURVE SMOOTH",
"320 112 OFFCURVE",
"291 112 OFFCURVE",
"263 112 CURVE"
);
}
);
width = 693;
},
{
anchors = (
{
name = bottom;
position = "{292, 0}";
},
{
name = center;
position = "{133, 220}";
},
{
name = top;
position = "{292, 460}";
}
);
layerId = "B5FD97B6-BD2C-4287-9857-851C623D3F63";
paths = (
{
closed = 1;
nodes = (
"515 449 OFFCURVE",
"439 455 OFFCURVE",
"318 462 CURVE SMOOTH",
"280 464 OFFCURVE",
"165 462 OFFCURVE",
"138 460 CURVE SMOOTH",
"92 456 OFFCURVE",
"93 438 OFFCURVE",
"93 398 CURVE SMOOTH",
"93 0 LINE",
"114 0 OFFCURVE",
"217 -3 OFFCURVE",
"266 -3 CURVE SMOOTH",
"410 -3 OFFCURVE",
"515 -9 OFFCURVE",
"515 225 CURVE SMOOTH"
);
},
{
closed = 1;
nodes = (
"117 402 LINE SMOOTH",
"117 432 OFFCURVE",
"124 436 OFFCURVE",
"138 439 CURVE SMOOTH",
"165 444 OFFCURVE",
"256 444 OFFCURVE",
"285 444 CURVE SMOOTH",
"444 444 OFFCURVE",
"491 406 OFFCURVE",
"491 224 CURVE SMOOTH",
"491 44 OFFCURVE",
"436 16 OFFCURVE",
"277 16 CURVE SMOOTH",
"245 16 OFFCURVE",
"133 18 OFFCURVE",
"117 19 CURVE"
);
}
);
width = 569;
}
);
leftKerningGroup = H;
leftMetricsKey = B;
note = D;
rightKerningGroup = O;
rightMetricsKey = O;
unicode = 0044;
},
{
glyphname = E;
lastChange = "2021-09-30 21:05:41 +0000";
layers = (
{
anchors = (
{
name = bottom;
position = "{332, 0}";
},
{
name = ogonek;
position = "{569, 10}";
},
{
name = top;
position = "{332, 460}";
},
{
name = topleft;
position = "{20, 460}";
}
);
background = {
anchors = (
{
name = bottom;
position = "{332, 0}";
},
{
name = ogonek;
position = "{399, 10}";
},
{
name = top;
position = "{332, 460}";
},
{
name = topleft;
position = "{20, 460}";
}
);
paths = (
{
closed = 1;
nodes = (
"624 0 LINE",
"624 116 LINE",
"269 116 LINE",
"269 174 LINE",
"589 174 LINE",
"589 289 LINE",
"269 289 LINE",
"269 344 LINE",
"624 344 LINE",
"624 460 LINE",
"114 460 LINE SMOOTH",
"40 460 OFFCURVE",
"40 440 OFFCURVE",
"40 380 CURVE SMOOTH",
"40 0 LINE"
);
},
{
closed = 1;
nodes = (
"268 0 LINE",
"268 182 LINE",
"436 182 LINE",
"436 0 LINE",
"589 0 LINE SMOOTH",
"654 0 OFFCURVE",
"664 13 OFFCURVE",
"664 67 CURVE SMOOTH",
"664 460 LINE",
"436 460 LINE",
"436 297 LINE",
"268 297 LINE",
"268 460 LINE",
"114 460 LINE SMOOTH",
"61 460 OFFCURVE",
"40 452 OFFCURVE",
"40 402 CURVE SMOOTH",
"40 0 LINE"
);
}
);
};
layerId = "C7668D88-AC50-4107-9C4B-DB5D26A8FA6C";
paths = (
{
closed = 1;
nodes = (
"623 0 LINE",
"623 116 LINE",
"268 116 LINE",
"268 174 LINE",
"588 174 LINE",
"588 289 LINE",
"268 289 LINE",
"268 344 LINE",
"623 344 LINE",
"623 460 LINE",
"114 460 LINE SMOOTH",
"55 460 OFFCURVE",
"40 449 OFFCURVE",
"40 393 CURVE SMOOTH",
"40 0 LINE"
);
}
);
width = 648;
},
{
anchors = (
{
name = bottom;
position = "{276, 0}";
},
{
name = ogonek;
position = "{456, 10}";
},
{
name = top;
position = "{276, 460}";
},
{
name = topleft;
position = "{66, 460}";
}
);
layerId = "B5FD97B6-BD2C-4287-9857-851C623D3F63";
paths = (
{
closed = 1;
nodes = (
"466 0 LINE",
"466 19 LINE",
"122 19 LINE",
"122 235 LINE",
"440 235 LINE",
"440 254 LINE",
"122 254 LINE",
"122 441 LINE",
"466 441 LINE",
"466 460 LINE",
"109 460 LINE SMOOTH",
"98 460 OFFCURVE",
"98 453 OFFCURVE",
"98 440 CURVE SMOOTH",
"98 0 LINE"
);
}
);
width = 509;
}
);
leftKerningGroup = H;
leftMetricsKey = H;
note = E;
rightKerningGroup = E;
unicode = 0045;
},
{
glyphname = F;
lastChange = "2021-09-30 21:05:41 +0000";
layers = (
{
anchors = (
{
name = bottom;
position = "{325, 0}";
},
{
name = top;
position = "{325, 460}";
}
);
background = {
anchors = (
{
name = bottom;
position = "{325, 0}";
},
{
name = top;
position = "{325, 460}";
}
);
paths = (
{
closed = 1;
nodes = (
"269 0 LINE",
"269 174 LINE",
"589 174 LINE",
"589 289 LINE",
"269 289 LINE",
"269 344 LINE",
"624 344 LINE",
"624 460 LINE",
"114 460 LINE SMOOTH",
"40 460 OFFCURVE",
"40 440 OFFCURVE",
"40 380 CURVE SMOOTH",
"40 0 LINE"
);
}
);
};
layerId = "C7668D88-AC50-4107-9C4B-DB5D26A8FA6C";
paths = (
{
closed = 1;
nodes = (
"269 0 LINE",
"269 174 LINE",
"589 174 LINE",
"589 289 LINE",
"269 289 LINE",
"269 344 LINE",
"624 344 LINE",
"624 460 LINE",
"114 460 LINE SMOOTH",
"40 460 OFFCURVE",
"40 440 OFFCURVE",
"40 380 CURVE SMOOTH",
"40 0 LINE"
);
}
);
width = 643;
},
{
anchors = (
{
name = bottom;
position = "{268, 0}";
},
{
name = top;
position = "{268, 460}";
}
);
layerId = "B5FD97B6-BD2C-4287-9857-851C623D3F63";
paths = (
{
closed = 1;
nodes = (
"122 0 LINE",
"122 235 LINE",
"440 235 LINE",
"440 254 LINE",
"122 254 LINE",
"122 441 LINE",
"466 441 LINE",
"466 460 LINE",
"109 460 LINE SMOOTH",
"98 460 OFFCURVE",
"98 453 OFFCURVE",
"98 440 CURVE SMOOTH",
"98 0 LINE"
);
}
);
width = 503;
}
);
leftKerningGroup = H;
leftMetricsKey = H;
note = F;
rightKerningGroup = F;
unicode = 0046;
},
{
glyphname = G;
lastChange = "2021-09-24 03:41:18 +0000";
layers = (
{
anchors = (
{
name = bottom;
position = "{358, 0}";
},
{
name = top;
position = "{358, 460}";
}
);
background = {
anchors = (
{
name = bottom;
position = "{358, 0}";
},
{
name = top;
position = "{358, 460}";
}
);
paths = (
{
closed = 1;
nodes = (
"321 -3 OFFCURVE",
"336 -3 OFFCURVE",
"351 -3 CURVE SMOOTH",
"555 -3 OFFCURVE",
"693 -3 OFFCURVE",
"693 158 CURVE SMOOTH",
"694 290 LINE",
"406 290 LINE SMOOTH",
"312 290 OFFCURVE",
"306 263 OFFCURVE",
"306 174 CURVE",
"496 174 LINE",
"496 168 OFFCURVE",
"496 163 OFFCURVE",
"496 157 CURVE SMOOTH",
"496 131 OFFCURVE",
"474 117 OFFCURVE",
"367 117 CURVE SMOOTH",
"287 117 OFFCURVE",
"245 130 OFFCURVE",
"245 227 CURVE SMOOTH",
"245 337 OFFCURVE",
"284 348 OFFCURVE",
"422 348 CURVE SMOOTH",
"449 348 OFFCURVE",
"658 346 OFFCURVE",
"676 316 CURVE",
"676 370 LINE SMOOTH",
"676 402 OFFCURVE",
"674 441 OFFCURVE",
"608 454 CURVE SMOOTH",
"576 462 OFFCURVE",
"486 465 OFFCURVE",
"396 465 CURVE SMOOTH",
"164 465 OFFCURVE",
"20 443 OFFCURVE",
"20 226 CURVE SMOOTH",
"20 34 OFFCURVE",
"118 2 OFFCURVE",
"306 -3 CURVE SMOOTH"
);
},
{
closed = 1;
nodes = (
"599 -7 OFFCURVE",
"677 55 OFFCURVE",
"677 230 CURVE SMOOTH",
"677 405 OFFCURVE",
"599 467 OFFCURVE",
"349 467 CURVE SMOOTH",
"99 467 OFFCURVE",
"20 405 OFFCURVE",
"20 230 CURVE SMOOTH",
"20 55 OFFCURVE",
"99 -7 OFFCURVE",
"349 -7 CURVE SMOOTH"
);
},
{
closed = 1;
nodes = (
"277 109 OFFCURVE",
"254 138 OFFCURVE",
"254 230 CURVE SMOOTH",
"254 322 OFFCURVE",
"277 351 OFFCURVE",
"349 351 CURVE SMOOTH",
"421 351 OFFCURVE",
"443 322 OFFCURVE",
"443 230 CURVE SMOOTH",
"443 138 OFFCURVE",
"421 109 OFFCURVE",
"349 109 CURVE SMOOTH"
);
},
{
closed = 1;
nodes = (
"122 -3 OFFCURVE",
"351 -3 CURVE SMOOTH",
"535 -3 OFFCURVE",
"673 -3 OFFCURVE",
"673 158 CURVE SMOOTH",
"674 290 LINE",
"406 290 LINE SMOOTH",
"312 290 OFFCURVE",
"306 263 OFFCURVE",
"306 174 CURVE",
"463 174 LINE",
"463 168 OFFCURVE",
"463 163 OFFCURVE",
"463 157 CURVE SMOOTH",
"463 128 OFFCURVE",
"444 113 OFFCURVE",
"367 113 CURVE SMOOTH",
"293 113 OFFCURVE",
"254 126 OFFCURVE",
"254 227 CURVE SMOOTH",
"254 338 OFFCURVE",
"291 349 OFFCURVE",
"391 349 CURVE SMOOTH",
"429 349 OFFCURVE",
"638 347 OFFCURVE",
"656 317 CURVE",
"656 370 LINE SMOOTH",
"656 402 OFFCURVE",
"654 441 OFFCURVE",
"588 454 CURVE SMOOTH",
"556 462 OFFCURVE",
"466 465 OFFCURVE",
"351 465 CURVE SMOOTH",
"164 465 OFFCURVE",
"20 443 OFFCURVE",
"20 227 CURVE SMOOTH",
"20 27 OFFCURVE"
);
}
);
};
layerId = "C7668D88-AC50-4107-9C4B-DB5D26A8FA6C";
paths = (
{
closed = 1;
nodes = (
"122 -3 OFFCURVE",
"351 -3 CURVE SMOOTH",
"640 -3 OFFCURVE",
"682 45 OFFCURVE",
"682 158 CURVE SMOOTH",
"683 290 LINE",
"406 290 LINE SMOOTH",
"312 290 OFFCURVE",
"306 263 OFFCURVE",
"306 174 CURVE",
"463 174 LINE",
"463 168 OFFCURVE",
"463 163 OFFCURVE",
"463 157 CURVE SMOOTH",
"463 128 OFFCURVE",
"444 113 OFFCURVE",
"367 113 CURVE SMOOTH",
"293 113 OFFCURVE",
"254 126 OFFCURVE",
"254 227 CURVE SMOOTH",
"254 338 OFFCURVE",
"291 349 OFFCURVE",
"391 349 CURVE SMOOTH",
"430 349 OFFCURVE",
"647 347 OFFCURVE",
"665 317 CURVE",
"665 370 LINE SMOOTH",
"665 402 OFFCURVE",
"663 441 OFFCURVE",
"597 454 CURVE SMOOTH",
"565 462 OFFCURVE",
"470 465 OFFCURVE",
"351 465 CURVE SMOOTH",
"164 465 OFFCURVE",
"20 443 OFFCURVE",
"20 227 CURVE SMOOTH",
"20 27 OFFCURVE"
);
}
);
width = 707;
},
{
anchors = (
{
name = bottom;
position = "{263, 0}";
},
{
name = top;
position = "{263, 460}";
}
);
layerId = "B5FD97B6-BD2C-4287-9857-851C623D3F63";
paths = (
{
closed = 1;
nodes = (
"103 -9 OFFCURVE",
"270 -9 CURVE SMOOTH",
"407 -9 OFFCURVE",
"474 32 OFFCURVE",
"474 186 CURVE SMOOTH",
"474 247 LINE",
"269 247 LINE SMOOTH",
"252 247 OFFCURVE",
"250 244 OFFCURVE",
"250 228 CURVE",
"450 228 LINE",
"450 221 OFFCURVE",
"451 205 OFFCURVE",
"450 184 CURVE SMOOTH",
"445 41 OFFCURVE",
"397 10 OFFCURVE",
"269 10 CURVE SMOOTH",
"120 10 OFFCURVE",
"79 68 OFFCURVE",
"79 230 CURVE SMOOTH",
"79 394 OFFCURVE",
"128 448 OFFCURVE",
"280 448 CURVE SMOOTH",
"334 448 OFFCURVE",
"427 438 OFFCURVE",
"455 423 CURVE",
"455 432 LINE SMOOTH",
"455 441 OFFCURVE",
"449 449 OFFCURVE",
"419 454 CURVE SMOOTH",
"374 463 OFFCURVE",
"329 466 OFFCURVE",
"281 466 CURVE SMOOTH",
"127 466 OFFCURVE",
"54 422 OFFCURVE",
"54 230 CURVE SMOOTH",
"54 54 OFFCURVE"
);
}
);
width = 516;
}
);
leftKerningGroup = O;
leftMetricsKey = O;
note = G;
rightKerningGroup = G;
unicode = 0047;
},
{
glyphname = H;
lastChange = "2021-09-30 21:06:26 +0000";
layers = (
{
anchors = (
{
name = bottom;
position = "{352, 0}";
},
{
name = center;
position = "{352, 375}";
},
{
name = top;
position = "{352, 460}";
},
{
name = topleft;
position = "{20, 460}";
}
);
background = {
anchors = (
{
name = bottom;
position = "{352, 0}";
},
{
name = center;
position = "{352, 230}";
},
{
name = top;
position = "{352, 460}";
},
{
name = topleft;
position = "{20, 460}";
}
);
paths = (
{
closed = 1;
nodes = (
"268 0 LINE",
"268 182 LINE",
"436 182 LINE",
"436 0 LINE",
"598 0 LINE SMOOTH",
"670 0 OFFCURVE",
"664 36 OFFCURVE",
"664 77 CURVE SMOOTH",
"664 460 LINE",
"436 460 LINE",
"436 297 LINE",
"268 297 LINE",
"268 460 LINE",
"114 460 LINE SMOOTH",
"40 460 OFFCURVE",
"40 435 OFFCURVE",
"40 395 CURVE SMOOTH",
"40 0 LINE"
);
}
);
};
layerId = "C7668D88-AC50-4107-9C4B-DB5D26A8FA6C";
paths = (
{
closed = 1;
nodes = (
"268 0 LINE",
"268 182 LINE",
"436 182 LINE",
"436 0 LINE",
"589 0 LINE SMOOTH",
"654 0 OFFCURVE",
"664 13 OFFCURVE",
"664 67 CURVE SMOOTH",
"664 460 LINE",
"436 460 LINE",
"436 297 LINE",
"268 297 LINE",
"268 460 LINE",
"114 460 LINE SMOOTH",
"61 460 OFFCURVE",
"40 452 OFFCURVE",
"40 402 CURVE SMOOTH",
"40 0 LINE"
);
}
);
width = 704;
},
{
anchors = (
{
name = bottom;
position = "{297, 0}";
},
{
name = center;
position = "{297, 367}";
},
{
name = top;
position = "{297, 460}";
},
{
name = topleft;
position = "{66, 460}";
}
);
layerId = "B5FD97B6-BD2C-4287-9857-851C623D3F63";
paths = (
{
closed = 1;
nodes = (
"122 0 LINE",
"122 227 LINE",
"473 227 LINE",
"473 0 LINE",
"484 0 LINE SMOOTH",
"494 0 OFFCURVE",
"497 3 OFFCURVE",
"497 19 CURVE SMOOTH",
"497 460 LINE",
"473 460 LINE",
"473 247 LINE",
"122 247 LINE",
"122 460 LINE",
"111 460 LINE SMOOTH",
"100 460 OFFCURVE",
"98 457 OFFCURVE",
"98 441 CURVE SMOOTH",
"98 0 LINE"
);
}
);
width = 595;
}
);
leftKerningGroup = H;
note = H;
rightKerningGroup = H;
unicode = 0048;
},
{
glyphname = I;
lastChange = "2021-09-30 21:05:41 +0000";
layers = (
{
anchors = (
{
name = bottom;
position = "{154, 0}";
},
{
name = ogonek;
position = "{226, 10}";
},
{
name = top;
position = "{154, 460}";
},
{
name = topleft;
position = "{20, 460}";
}
);
background = {
anchors = (
{
name = bottom;
position = "{154, 0}";
},
{
name = ogonek;
position = "{226, 10}";
},
{
name = top;
position = "{154, 460}";
},
{
name = topleft;
position = "{20, 460}";
}
);
paths = (
{
closed = 1;
nodes = (
"268 0 LINE",
"268 460 LINE",
"114 460 LINE",
"41 460 OFFCURVE",
"40 436 OFFCURVE",
"40 394 CURVE SMOOTH",
"40 263 OFFCURVE",
"40 131 OFFCURVE",
"40 0 CURVE"
);
}
);
};
layerId = "C7668D88-AC50-4107-9C4B-DB5D26A8FA6C";
paths = (
{
closed = 1;
nodes = (
"268 0 LINE",
"268 460 LINE",
"114 460 LINE",
"41 460 OFFCURVE",
"40 436 OFFCURVE",
"40 394 CURVE SMOOTH",
"40 263 OFFCURVE",
"40 131 OFFCURVE",
"40 0 CURVE"
);
}
);
width = 308;
},
{
anchors = (
{
name = bottom;
position = "{110, 0}";
},
{
name = ogonek;
position = "{121, 10}";
},
{
name = top;
position = "{110, 460}";
},
{
name = topleft;
position = "{31, 460}";
}
);
layerId = "B5FD97B6-BD2C-4287-9857-851C623D3F63";
paths = (
{
closed = 1;
nodes = (
"122 0 LINE",
"122 460 LINE",
"109 460 LINE SMOOTH",
"98 460 OFFCURVE",
"98 453 OFFCURVE",
"98 440 CURVE SMOOTH",
"98 293 OFFCURVE",
"98 147 OFFCURVE",
"98 0 CURVE"
);
}
);
width = 220;
}
);
leftKerningGroup = I;
leftMetricsKey = H;
note = I;
rightKerningGroup = I;
rightMetricsKey = H;
unicode = 0049;
},
{
glyphname = J;
lastChange = "2021-09-30 21:05:41 +0000";
layers = (
{
anchors = (
{
name = bottom;
position = "{198, 0}";
},
{
name = top;
position = "{237, 460}";
}
);
background = {
anchors = (
{
name = bottom;
position = "{198, 0}";
},
{
name = top;
position = "{237, 460}";
}
);
paths = (
{
closed = 1;
nodes = (
"361 379 LINE SMOOTH",
"361 433 OFFCURVE",
"365 460 OFFCURVE",
"287 460 CURVE SMOOTH",
"133 460 LINE",
"133 157 LINE SMOOTH",
"133 137 OFFCURVE",
"127 118 OFFCURVE",
"103 118 CURVE SMOOTH",
"80 118 OFFCURVE",
"38 129 OFFCURVE",
"20 136 CURVE",
"20 6 LINE",
"96 -1 OFFCURVE",
"133 -5 OFFCURVE",
"212 -1 CURVE SMOOTH",
"271 2 OFFCURVE",
"345 15 OFFCURVE",
"358 90 CURVE SMOOTH",
"361 105 OFFCURVE",
"361 126 OFFCURVE",
"361 148 CURVE SMOOTH"
);
}
);
};
layerId = "C7668D88-AC50-4107-9C4B-DB5D26A8FA6C";
paths = (
{
closed = 1;
nodes = (
"361 379 LINE SMOOTH",
"361 433 OFFCURVE",
"365 460 OFFCURVE",
"287 460 CURVE SMOOTH",
"133 460 LINE",
"133 157 LINE SMOOTH",
"133 137 OFFCURVE",
"127 118 OFFCURVE",
"103 118 CURVE SMOOTH",
"80 118 OFFCURVE",
"38 129 OFFCURVE",
"20 136 CURVE",
"20 6 LINE",
"96 -1 OFFCURVE",
"133 -5 OFFCURVE",
"212 -1 CURVE SMOOTH",
"271 2 OFFCURVE",
"345 15 OFFCURVE",
"358 90 CURVE SMOOTH",
"361 105 OFFCURVE",
"361 126 OFFCURVE",
"361 148 CURVE SMOOTH"
);
}
);
width = 396;
},
{
anchors = (
{
name = bottom;
position = "{118, 0}";
},
{
name = top;
position = "{153, 460}";
}
);
layerId = "B5FD97B6-BD2C-4287-9857-851C623D3F63";
paths = (
{
closed = 1;
nodes = (
"165 444 LINE SMOOTH",
"165 454 OFFCURVE",
"164 460 OFFCURVE",
"154 460 CURVE SMOOTH",
"141 460 LINE",
"141 71 LINE SMOOTH",
"141 28 OFFCURVE",
"123 15 OFFCURVE",
"80 15 CURVE SMOOTH",
"69 15 OFFCURVE",
"47 18 OFFCURVE",
"40 21 CURVE",
"40 2 LINE",
"60 -3 OFFCURVE",
"86 -3 OFFCURVE",
"96 -3 CURVE SMOOTH",
"142 -3 OFFCURVE",
"159 25 OFFCURVE",
"163 50 CURVE SMOOTH",
"167 74 OFFCURVE",
"165 122 OFFCURVE",
"165 150 CURVE SMOOTH"
);
}
);
width = 258;
}
);
leftKerningGroup = J;
note = J;
rightKerningGroup = J;
rightMetricsKey = "=H-5";
unicode = 004A;
},
{
glyphname = K;
lastChange = "2021-09-30 21:05:41 +0000";
layers = (
{
anchors = (
{
name = bottom;
position = "{349, 0}";
},
{
name = top;
position = "{349, 460}";
}
);
background = {
anchors = (
{
name = bottom;
position = "{349, 0}";
},
{
name = top;
position = "{349, 460}";
}
);
hints = (
{
horizontal = 1;
place = "{0, 21}";
target = up;
type = BottomGhost;
},
{
horizontal = 1;
place = "{446, 22}";
type = Stem;
},
{
place = "{40, 227}";
type = Stem;
}
);
paths = (
{
closed = 1;
nodes = (
"629 -18 OFFCURVE",
"681 30 OFFCURVE",
"696 50 CURVE",
"425 266 LINE",
"633 417 LINE SMOOTH",
"644 425 OFFCURVE",
"683 453 OFFCURVE",
"687 456 CURVE",
"684 458 OFFCURVE",
"626 465 OFFCURVE",
"559 465 CURVE SMOOTH",
"487 465 OFFCURVE",
"439 457 OFFCURVE",
"399 428 CURVE SMOOTH",
"377 413 OFFCURVE",
"311 359 OFFCURVE",
"299 350 CURVE SMOOTH",
"285 340 OFFCURVE",
"275 333 OFFCURVE",
"270 329 CURVE SMOOTH",
"267 327 LINE",
"267 365 OFFCURVE",
"267 420 OFFCURVE",
"267 460 CURVE",
"216 460 OFFCURVE",
"164 460 OFFCURVE",
"113 460 CURVE SMOOTH",
"41 460 OFFCURVE",
"40 436 OFFCURVE",
"40 393 CURVE SMOOTH",
"40 0 LINE",
"116 0 OFFCURVE",
"191 0 OFFCURVE",
"267 0 CURVE",
"267 127 LINE",
"279 117 LINE SMOOTH",
"293 105 OFFCURVE",
"297 101 OFFCURVE",
"315 86 CURVE SMOOTH",
"352 55 OFFCURVE",
"383 32 OFFCURVE",
"412 15 CURVE SMOOTH",
"454 -9 OFFCURVE",
"493 -18 OFFCURVE",
"545 -18 CURVE SMOOTH"
);
}
);
};
layerId = "C7668D88-AC50-4107-9C4B-DB5D26A8FA6C";
paths = (
{
closed = 1;
nodes = (
"629 -18 OFFCURVE",
"681 30 OFFCURVE",
"696 50 CURVE",
"576 131 OFFCURVE",
"461 216 OFFCURVE",
"368 293 CURVE",
"368 225 LINE",
"440 289 OFFCURVE",
"548 360 OFFCURVE",
"633 417 CURVE SMOOTH",
"643 424 OFFCURVE",
"677 453 OFFCURVE",
"681 456 CURVE",
"639 462 OFFCURVE",
"611 467 OFFCURVE",
"559 467 CURVE SMOOTH",
"487 467 OFFCURVE",
"440 458 OFFCURVE",
"399 428 CURVE SMOOTH",
"377 413 OFFCURVE",
"316 365 OFFCURVE",
"305 354 CURVE SMOOTH",
"292 342 OFFCURVE",
"284 335 OFFCURVE",
"277 329 CURVE SMOOTH",
"267 320 LINE",
"267 358 OFFCURVE",
"267 420 OFFCURVE",
"267 460 CURVE",
"216 460 OFFCURVE",
"164 460 OFFCURVE",
"113 460 CURVE SMOOTH",
"41 460 OFFCURVE",
"40 436 OFFCURVE",
"40 393 CURVE SMOOTH",
"40 0 LINE",
"267 0 LINE",
"267 137 LINE",
"277 127 LINE SMOOTH",
"292 112 OFFCURVE",
"301 103 OFFCURVE",
"319 86 CURVE SMOOTH",
"354 53 OFFCURVE",
"385 34 OFFCURVE",
"412 15 CURVE SMOOTH",
"446 -9 OFFCURVE",
"493 -18 OFFCURVE",
"545 -18 CURVE SMOOTH"
);
}
);
width = 697;
},
{
anchors = (
{
name = bottom;
position = "{260, 0}";
},
{
name = top;
position = "{260, 460}";
}
);
layerId = "B5FD97B6-BD2C-4287-9857-851C623D3F63";
paths = (
{
closed = 1;
nodes = (
"432 -1 OFFCURVE",
"437 0 OFFCURVE",
"439 1 CURVE",
"357 94 OFFCURVE",
"251 230 OFFCURVE",
"233 240 CURVE",
"229 242 LINE",
"265 280 OFFCURVE",
"310 330 OFFCURVE",
"353 377 CURVE SMOOTH",
"379 405 OFFCURVE",
"421 453 OFFCURVE",
"425 456 CURVE",
"423 458 OFFCURVE",
"418 461 OFFCURVE",
"412 461 CURVE SMOOTH",
"406 461 OFFCURVE",
"400 459 OFFCURVE",
"394 452 CURVE SMOOTH",
"339 390 OFFCURVE",
"283 328 OFFCURVE",
"230 269 CURVE SMOOTH",
"218 255 OFFCURVE",
"213 249 OFFCURVE",
"190 249 CURVE SMOOTH",
"122 249 LINE",
"122 287 OFFCURVE",
"122 422 OFFCURVE",
"122 460 CURVE",
"117 460 OFFCURVE",
"114 460 OFFCURVE",
"107 460 CURVE SMOOTH",
"101 460 OFFCURVE",
"98 456 OFFCURVE",
"98 446 CURVE SMOOTH",
"98 0 LINE",
"122 0 LINE",
"122 229 LINE",
"189 229 LINE SMOOTH",
"215 228 OFFCURVE",
"221 224 OFFCURVE",
"234 209 CURVE SMOOTH",
"253 186 OFFCURVE",
"383 31 OFFCURVE",
"400 12 CURVE SMOOTH",
"410 2 OFFCURVE",
"418 -1 OFFCURVE",
"427 -1 CURVE SMOOTH"
);
}
);
width = 463;
}
);
leftKerningGroup = H;
leftMetricsKey = H;
note = K;
rightKerningGroup = K;
unicode = 004B;
},
{
glyphname = L;
lastChange = "2021-09-30 21:05:41 +0000";
layers = (
{
anchors = (
{
name = bottom;
position = "{293, 0}";
},
{
name = center;
position = "{300, 230}";
},
{
name = top;
position = "{204, 460}";
},
{
name = topright;
position = "{356, 460}";
}
);
background = {
anchors = (
{
name = bottom;
position = "{300, 0}";
},
{
name = center;
position = "{300, 230}";
},
{
name = top;
position = "{204, 460}";
},
{
name = topright;
position = "{363, 460}";
}
);
paths = (
{
closed = 1;
nodes = (
"114 460 LINE SMOOTH",
"39 460 OFFCURVE",
"40 437 OFFCURVE",
"40 390 CURVE SMOOTH",
"40 0 LINE",
"566 0 LINE",
"566 116 LINE",
"269 116 LINE",
"269 460 LINE"
);
}
);
};
layerId = "C7668D88-AC50-4107-9C4B-DB5D26A8FA6C";
paths = (
{
closed = 1;
nodes = (
"114 460 LINE SMOOTH",
"39 460 OFFCURVE",
"40 437 OFFCURVE",
"40 390 CURVE SMOOTH",
"40 0 LINE",
"554 0 LINE",
"554 116 LINE",
"267 116 LINE",
"267 460 LINE"
);
}
);
width = 563;
},
{
anchors = (
{
name = bottom;
position = "{249, 0}";
},
{
name = center;
position = "{249, 230}";
},
{
name = top;
position = "{111, 460}";
},
{
name = topright;
position = "{235, 460}";
}
);
layerId = "B5FD97B6-BD2C-4287-9857-851C623D3F63";
paths = (
{
closed = 1;
nodes = (
"109 460 LINE SMOOTH",
"98 460 OFFCURVE",
"98 453 OFFCURVE",
"98 440 CURVE SMOOTH",
"98 0 LINE",
"436 0 LINE",
"436 19 LINE",
"122 19 LINE",
"122 460 LINE"
);
}
);
width = 447;
}
);
leftKerningGroup = H;
leftMetricsKey = H;
note = L;
rightKerningGroup = L;
unicode = 004C;
},
{
glyphname = Lslash;
lastChange = "2021-09-24 03:41:18 +0000";
layers = (
{
background = {
components = (
{
name = L;
}
);
paths = (
{
closed = 1;
nodes = (
"-20 130 LINE",
"0 79 LINE",
"379 206 LINE",
"363 258 LINE"
);
}
);
};
components = (
{
name = L;
}
);
layerId = "C7668D88-AC50-4107-9C4B-DB5D26A8FA6C";
paths = (
{
closed = 1;
nodes = (
"-20 130 LINE",
"0 79 LINE",
"379 206 LINE",
"363 258 LINE"
);
}
);
width = 599;
},
{
components = (
{
alignment = -1;
name = L;
transform = "{1, 0, 0, 1, 7, 0}";
}
);
layerId = "B5FD97B6-BD2C-4287-9857-851C623D3F63";
paths = (
{
closed = 1;
nodes = (
"0 137 LINE",
"5 122 LINE",
"188 189 LINE",
"184 203 LINE"
);
}
);
width = 412;
}
);
note = Lslash;
rightKerningGroup = L;
unicode = 0141;
},
{
glyphname = M;
lastChange = "2021-09-30 21:05:41 +0000";
layers = (
{
anchors = (
{
name = bottom;
position = "{384, 0}";
},
{
name = top;
position = "{384, 460}";
}
);
background = {
anchors = (
{
name = bottom;
position = "{384, 0}";
},
{
name = top;
position = "{384, 460}";
}
);
paths = (
{
closed = 1;
nodes = (
"199 0 LINE",
"199 218 LINE",
"207 179 LINE",
"281 0 LINE",
"414 0 LINE",
"488 179 LINE",
"496 218 LINE",
"496 0 LINE",
"645 0 LINE SMOOTH",
"710 0 OFFCURVE",
"728 0 OFFCURVE",
"728 66 CURVE SMOOTH",
"728 393 LINE SMOOTH",
"728 446 OFFCURVE",
"717 460 OFFCURVE",
"653 460 CURVE SMOOTH",
"463 460 LINE",
"387 276 LINE",
"385 263 LINE",
"383 263 LINE",
"381 276 LINE",
"299 460 LINE",
"123 460 LINE SMOOTH",
"56 460 OFFCURVE",
"40 453 OFFCURVE",
"40 400 CURVE SMOOTH",
"40 0 LINE"
);
},
{
closed = 1;
nodes = (
"315 563 OFFCURVE",
"366 614 OFFCURVE",
"366 677 CURVE SMOOTH",
"366 740 OFFCURVE",
"315 791 OFFCURVE",
"252 791 CURVE SMOOTH",
"189 791 OFFCURVE",
"138 740 OFFCURVE",
"138 677 CURVE SMOOTH",
"138 614 OFFCURVE",
"189 563 OFFCURVE",
"252 563 CURVE SMOOTH"
);
}
);
};
layerId = "C7668D88-AC50-4107-9C4B-DB5D26A8FA6C";
paths = (
{
closed = 1;
nodes = (
"199 0 LINE",
"199 218 LINE",
"207 179 LINE",
"281 0 LINE",
"414 0 LINE",
"488 179 LINE",
"496 218 LINE",
"496 0 LINE",
"641 0 LINE SMOOTH",
"706 0 OFFCURVE",
"724 0 OFFCURVE",
"724 66 CURVE SMOOTH",
"724 393 LINE SMOOTH",
"724 446 OFFCURVE",
"713 460 OFFCURVE",
"649 460 CURVE SMOOTH",
"463 460 LINE",
"387 276 LINE",
"385 263 LINE",
"383 263 LINE",
"381 276 LINE",
"299 460 LINE",
"123 460 LINE SMOOTH",
"56 460 OFFCURVE",
"40 453 OFFCURVE",
"40 400 CURVE SMOOTH",
"40 0 LINE"
);
}
);
width = 764;
},
{
anchors = (
{
name = bottom;
position = "{331, 0}";
},
{
name = top;
position = "{331, 460}";
}
);
layerId = "B5FD97B6-BD2C-4287-9857-851C623D3F63";
paths = (
{
closed = 1;
nodes = (
"118 0 LINE",
"118 421 LINE",
"120 416 LINE",
"309 0 LINE",
"333 0 LINE",
"527 425 LINE",
"530 431 LINE",
"530 0 LINE",
"543 0 LINE SMOOTH",
"553 0 OFFCURVE",
"555 5 OFFCURVE",
"555 19 CURVE SMOOTH",
"555 443 LINE SMOOTH",
"555 462 OFFCURVE",
"550 460 OFFCURVE",
"536 460 CURVE SMOOTH",
"522 460 LINE",
"326 33 LINE",
"324 28 LINE",
"323 25 LINE",
"321 30 LINE",
"126 460 LINE",
"113 460 LINE SMOOTH",
"97 460 OFFCURVE",
"98 458 OFFCURVE",
"98 428 CURVE SMOOTH",
"98 0 LINE"
);
}
);
width = 653;
}
);
leftKerningGroup = H;
leftMetricsKey = H;
note = M;
rightKerningGroup = H;
rightMetricsKey = H;
unicode = 004D;
},
{
glyphname = N;
lastChange = "2021-09-30 21:05:41 +0000";
layers = (
{
anchors = (
{
name = bottom;
position = "{354, 0}";
},
{
name = top;
position = "{354, 460}";
}
);
background = {
anchors = (
{
name = bottom;
position = "{354, 0}";
},
{
name = top;
position = "{354, 460}";
}
);
paths = (
{
closed = 1;
nodes = (
"202 0 LINE",
"202 279 LINE",
"209 240 LINE",
"377 0 LINE",
"575 0 LINE SMOOTH",
"640 0 OFFCURVE",
"663 5 OFFCURVE",
"663 56 CURVE SMOOTH",
"663 386 LINE SMOOTH",
"663 409 OFFCURVE",
"662 455 OFFCURVE",
"667 460 CURVE",
"502 460 LINE",
"502 191 LINE",
"495 230 LINE",
"335 460 LINE",
"116 460 LINE SMOOTH",
"50 460 OFFCURVE",
"40 446 OFFCURVE",
"40 393 CURVE SMOOTH",
"40 0 LINE"
);
}
);
};
layerId = "C7668D88-AC50-4107-9C4B-DB5D26A8FA6C";
paths = (
{
closed = 1;
nodes = (
"202 0 LINE",
"202 279 LINE",
"209 240 LINE",
"377 0 LINE",
"575 0 LINE SMOOTH",
"640 0 OFFCURVE",
"663 5 OFFCURVE",
"663 56 CURVE SMOOTH",
"663 386 LINE SMOOTH",
"663 409 OFFCURVE",
"662 455 OFFCURVE",
"667 460 CURVE",
"502 460 LINE",
"502 191 LINE",
"495 230 LINE",
"335 460 LINE",
"116 460 LINE SMOOTH",
"50 460 OFFCURVE",
"40 446 OFFCURVE",
"40 393 CURVE SMOOTH",
"40 0 LINE"
);
}
);
width = 707;
},
{
anchors = (
{
name = bottom;
position = "{297, 0}";
},
{
name = top;
position = "{297, 460}";
}
);
layerId = "B5FD97B6-BD2C-4287-9857-851C623D3F63";
paths = (
{
closed = 1;
nodes = (
"118 0 LINE",
"118 426 LINE",
"118 434 LINE",
"464 0 LINE",
"479 0 LINE SMOOTH",
"495 0 OFFCURVE",
"495 2 OFFCURVE",
"495 32 CURVE SMOOTH",
"495 437 LINE SMOOTH",
"495 446 OFFCURVE",
"495 457 OFFCURVE",
"497 460 CURVE",
"475 460 LINE",
"475 37 LINE",
"474 26 LINE",
"127 460 LINE",
"113 460 LINE SMOOTH",
"97 460 OFFCURVE",
"98 458 OFFCURVE",
"98 428 CURVE SMOOTH",
"98 0 LINE"
);
}
);
width = 595;
}
);
leftKerningGroup = H;
leftMetricsKey = H;
note = N;
rightKerningGroup = H;
rightMetricsKey = H;
unicode = 004E;
},
{
glyphname = Eng;
lastChange = "2021-09-30 21:05:41 +0000";
layers = (
{
background = {
paths = (
{
closed = 1;
nodes = (
"96 0 OFFCURVE",
"151 0 OFFCURVE",
"207 0 CURVE",
"207 83 OFFCURVE",
"207 167 OFFCURVE",
"207 250 CURVE",
"382 0 LINE",
"401 0 OFFCURVE",
"421 0 OFFCURVE",
"440 0 CURVE",
"440 -16 OFFCURVE",
"440 -31 OFFCURVE",
"440 -47 CURVE SMOOTH",
"440 -67 OFFCURVE",
"434 -86 OFFCURVE",
"410 -86 CURVE SMOOTH",
"387 -86 OFFCURVE",
"345 -75 OFFCURVE",
"327 -68 CURVE",
"327 -111 OFFCURVE",
"327 -155 OFFCURVE",
"327 -198 CURVE",
"403 -205 OFFCURVE",
"440 -209 OFFCURVE",
"519 -205 CURVE SMOOTH",
"578 -202 OFFCURVE",
"652 -189 OFFCURVE",
"665 -114 CURVE SMOOTH",
"668 -99 OFFCURVE",
"668 -78 OFFCURVE",
"668 -56 CURVE SMOOTH",
"668 91 OFFCURVE",
"668 239 OFFCURVE",
"668 386 CURVE SMOOTH",
"668 409 OFFCURVE",
"667 455 OFFCURVE",
"672 460 CURVE",
"617 460 OFFCURVE",
"562 460 OFFCURVE",
"507 460 CURVE",
"507 380 OFFCURVE",
"507 300 OFFCURVE",
"507 220 CURVE",
"451 300 OFFCURVE",
"396 380 OFFCURVE",
"340 460 CURVE",
"271 460 OFFCURVE",
"203 460 OFFCURVE",
"134 460 CURVE SMOOTH",
"68 460 OFFCURVE",
"45 446 OFFCURVE",
"45 393 CURVE SMOOTH",
"45 280 OFFCURVE",
"45 166 OFFCURVE",
"45 53 CURVE SMOOTH",
"45 28 OFFCURVE",
"42 4 OFFCURVE",
"40 0 CURVE"
);
}
);
};
layerId = "C7668D88-AC50-4107-9C4B-DB5D26A8FA6C";
paths = (
{
closed = 1;
nodes = (
"96 0 OFFCURVE",
"151 0 OFFCURVE",
"207 0 CURVE",
"207 83 OFFCURVE",
"207 167 OFFCURVE",
"207 250 CURVE",
"382 0 LINE",
"401 0 OFFCURVE",
"421 0 OFFCURVE",
"440 0 CURVE",
"440 -16 OFFCURVE",
"440 -31 OFFCURVE",
"440 -47 CURVE SMOOTH",
"440 -67 OFFCURVE",
"434 -86 OFFCURVE",
"410 -86 CURVE SMOOTH",
"387 -86 OFFCURVE",
"345 -75 OFFCURVE",
"327 -68 CURVE",
"327 -111 OFFCURVE",
"327 -155 OFFCURVE",
"327 -198 CURVE",
"403 -205 OFFCURVE",
"440 -209 OFFCURVE",
"519 -205 CURVE SMOOTH",
"578 -202 OFFCURVE",
"652 -189 OFFCURVE",
"665 -114 CURVE SMOOTH",
"668 -99 OFFCURVE",
"668 -78 OFFCURVE",
"668 -56 CURVE SMOOTH",
"668 91 OFFCURVE",
"668 239 OFFCURVE",
"668 386 CURVE SMOOTH",
"668 409 OFFCURVE",
"667 455 OFFCURVE",
"672 460 CURVE",
"617 460 OFFCURVE",
"562 460 OFFCURVE",
"507 460 CURVE",
"507 380 OFFCURVE",
"507 300 OFFCURVE",
"507 220 CURVE",
"451 300 OFFCURVE",
"396 380 OFFCURVE",
"340 460 CURVE",
"271 460 OFFCURVE",
"203 460 OFFCURVE",
"134 460 CURVE SMOOTH",
"68 460 OFFCURVE",
"45 446 OFFCURVE",
"45 393 CURVE SMOOTH",
"45 280 OFFCURVE",
"45 166 OFFCURVE",
"45 53 CURVE SMOOTH",
"45 28 OFFCURVE",
"42 4 OFFCURVE",
"40 0 CURVE"
);
}
);
width = 712;
},
{
layerId = "B5FD97B6-BD2C-4287-9857-851C623D3F63";
paths = (
{
closed = 1;
nodes = (
"105 0 OFFCURVE",
"113 0 OFFCURVE",
"120 0 CURVE",
"120 145 OFFCURVE",
"120 289 OFFCURVE",
"120 434 CURVE",
"470 -6 LINE",
"470 -6 OFFCURVE",
"472 -6 OFFCURVE",
"472 -6 CURVE",
"472 -41 OFFCURVE",
"472 -77 OFFCURVE",
"472 -113 CURVE SMOOTH",
"472 -155 OFFCURVE",
"455 -168 OFFCURVE",
"411 -168 CURVE SMOOTH",
"401 -168 OFFCURVE",
"378 -165 OFFCURVE",
"371 -162 CURVE",
"371 -169 OFFCURVE",
"371 -175 OFFCURVE",
"371 -181 CURVE",
"391 -186 OFFCURVE",
"417 -186 OFFCURVE",
"428 -186 CURVE SMOOTH",
"473 -186 OFFCURVE",
"490 -159 OFFCURVE",
"495 -134 CURVE SMOOTH",
"499 -110 OFFCURVE",
"497 -61 OFFCURVE",
"497 -33 CURVE SMOOTH",
"497 123 OFFCURVE",
"497 280 OFFCURVE",
"497 437 CURVE SMOOTH",
"497 446 OFFCURVE",
"497 457 OFFCURVE",
"499 460 CURVE",
"492 460 OFFCURVE",
"484 460 OFFCURVE",
"477 460 CURVE",
"477 315 OFFCURVE",
"477 171 OFFCURVE",
"477 26 CURVE",
"361 171 OFFCURVE",
"245 315 OFFCURVE",
"129 460 CURVE",
"125 460 OFFCURVE",
"120 460 OFFCURVE",
"115 460 CURVE SMOOTH",
"99 460 OFFCURVE",
"100 458 OFFCURVE",
"100 428 CURVE SMOOTH",
"100 293 OFFCURVE",
"100 158 OFFCURVE",
"100 23 CURVE SMOOTH",
"100 13 OFFCURVE",
"100 3 OFFCURVE",
"98 0 CURVE"
);
}
);
width = 597;
}
);
leftKerningGroup = H;
leftMetricsKey = H;
note = Eng;
rightKerningGroup = H;
rightMetricsKey = H;
unicode = 014A;
},
{
glyphname = O;
lastChange = "2021-09-30 04:43:10 +0000";
layers = (
{
anchors = (
{
name = bottom;
position = "{349, 0}";
},
{
name = center;
position = "{349, 230}";
},
{
name = ogonek;
position = "{440, 10}";
},
{
name = top;
position = "{349, 460}";
},
{
name = topleft;
position = "{20, 460}";
},
{
name = topright;
position = "{481, 460}";
}
);
background = {
anchors = (
{
name = bottom;
position = "{349, 0}";
},
{
name = center;
position = "{349, 230}";
},
{
name = ogonek;
position = "{627, 10}";
},
{
name = top;
position = "{349, 460}";
},
{
name = topleft;
position = "{20, 460}";
},
{
name = topright;
position = "{481, 460}";
}
);
paths = (
{
closed = 1;
nodes = (
"519 -7 OFFCURVE",
"677 9 OFFCURVE",
"677 230 CURVE SMOOTH",
"677 446 OFFCURVE",
"534 467 OFFCURVE",
"356 467 CURVE SMOOTH",
"179 467 OFFCURVE",
"20 451 OFFCURVE",
"20 230 CURVE SMOOTH",
"20 15 OFFCURVE",
"160 -7 OFFCURVE",
"341 -7 CURVE SMOOTH"
);
},
{
closed = 1;
nodes = (
"283 109 OFFCURVE",
"244 124 OFFCURVE",
"244 230 CURVE SMOOTH",
"244 336 OFFCURVE",
"283 351 OFFCURVE",
"349 351 CURVE SMOOTH",
"413 351 OFFCURVE",
"453 336 OFFCURVE",
"453 230 CURVE SMOOTH",
"453 124 OFFCURVE",
"413 109 OFFCURVE",
"349 109 CURVE SMOOTH"
);
},
{
closed = 1;
nodes = (
"519 -7 OFFCURVE",
"677 9 OFFCURVE",
"677 230 CURVE SMOOTH",
"677 446 OFFCURVE",
"534 467 OFFCURVE",
"356 467 CURVE SMOOTH",
"179 467 OFFCURVE",
"20 451 OFFCURVE",
"20 230 CURVE SMOOTH",
"20 15 OFFCURVE",
"160 -7 OFFCURVE",
"341 -7 CURVE SMOOTH"
);
},
{
closed = 1;
nodes = (
"283 109 OFFCURVE",
"244 124 OFFCURVE",
"244 230 CURVE SMOOTH",
"244 336 OFFCURVE",
"283 351 OFFCURVE",
"349 351 CURVE SMOOTH",
"413 351 OFFCURVE",
"453 336 OFFCURVE",
"453 230 CURVE SMOOTH",
"453 124 OFFCURVE",
"413 109 OFFCURVE",
"349 109 CURVE SMOOTH"
);
},
{
closed = 1;
nodes = (
"519 -7 OFFCURVE",
"677 9 OFFCURVE",
"677 230 CURVE SMOOTH",
"677 446 OFFCURVE",
"534 467 OFFCURVE",
"349 467 CURVE SMOOTH",
"179 467 OFFCURVE",
"20 451 OFFCURVE",
"20 230 CURVE SMOOTH",
"20 15 OFFCURVE",
"160 -7 OFFCURVE",
"349 -7 CURVE SMOOTH"
);
},
{
closed = 1;
nodes = (
"289 109 OFFCURVE",
"254 124 OFFCURVE",
"254 230 CURVE SMOOTH",
"254 336 OFFCURVE",
"289 351 OFFCURVE",
"349 351 CURVE SMOOTH",
"407 351 OFFCURVE",
"443 336 OFFCURVE",
"443 230 CURVE SMOOTH",
"443 124 OFFCURVE",
"407 109 OFFCURVE",
"349 109 CURVE SMOOTH"
);
}
);
};
layerId = "C7668D88-AC50-4107-9C4B-DB5D26A8FA6C";
paths = (
{
closed = 1;
nodes = (
"599 -7 OFFCURVE",
"677 55 OFFCURVE",
"677 230 CURVE SMOOTH",
"677 405 OFFCURVE",
"599 467 OFFCURVE",
"349 467 CURVE SMOOTH",
"99 467 OFFCURVE",
"20 405 OFFCURVE",
"20 230 CURVE SMOOTH",
"20 55 OFFCURVE",
"99 -7 OFFCURVE",
"349 -7 CURVE SMOOTH"
);
},
{
closed = 1;
nodes = (
"277 109 OFFCURVE",
"254 138 OFFCURVE",
"254 230 CURVE SMOOTH",
"254 322 OFFCURVE",
"277 351 OFFCURVE",
"349 351 CURVE SMOOTH",
"421 351 OFFCURVE",
"443 322 OFFCURVE",
"443 230 CURVE SMOOTH",
"443 138 OFFCURVE",
"421 109 OFFCURVE",
"349 109 CURVE SMOOTH"
);
}
);
width = 697;
},
{
anchors = (
{
name = bottom;
position = "{282, 0}";
},
{
name = center;
position = "{282, 230}";
},
{
name = ogonek;
position = "{341, 10}";
},
{
name = top;
position = "{282, 460}";
},
{
name = topleft;
position = "{34, 460}";
},
{
name = topright;
position = "{383, 460}";
}
);
layerId = "B5FD97B6-BD2C-4287-9857-851C623D3F63";
paths = (
{
closed = 1;
nodes = (
"401 -7 OFFCURVE",
"511 10 OFFCURVE",
"511 231 CURVE SMOOTH",
"511 446 OFFCURVE",
"414 469 OFFCURVE",
"288 469 CURVE SMOOTH",
"164 469 OFFCURVE",
"54 452 OFFCURVE",
"54 231 CURVE SMOOTH",
"54 16 OFFCURVE",
"151 -7 OFFCURVE",
"277 -7 CURVE SMOOTH"
);
},
{
closed = 1;
nodes = (
"154 11 OFFCURVE",
"79 37 OFFCURVE",
"79 231 CURVE SMOOTH",
"79 424 OFFCURVE",
"154 451 OFFCURVE",
"281 451 CURVE SMOOTH",
"410 451 OFFCURVE",
"486 424 OFFCURVE",
"486 231 CURVE SMOOTH",
"486 37 OFFCURVE",
"410 11 OFFCURVE",
"281 11 CURVE SMOOTH"
);
}
);
width = 565;
}
);
leftKerningGroup = O;
note = O;
rightKerningGroup = O;
unicode = 004F;
},
{
glyphname = Oslash;
lastChange = "2021-09-24 03:41:18 +0000";
layers = (
{
anchors = (
{
name = bottom;
position = "{349, 0}";
},
{
name = top;
position = "{349, 460}";
}
);
background = {
anchors = (
{
name = bottom;
position = "{349, 0}";
},
{
name = top;
position = "{349, 460}";
}
);
paths = (
{
closed = 1;
nodes = (
"20 15 OFFCURVE",
"160 -7 OFFCURVE",
"341 -7 CURVE SMOOTH",
"519 -7 OFFCURVE",
"677 9 OFFCURVE",
"677 230 CURVE SMOOTH",
"677 446 OFFCURVE",
"534 467 OFFCURVE",
"356 467 CURVE SMOOTH",
"179 467 OFFCURVE",
"20 451 OFFCURVE",
"20 230 CURVE SMOOTH"
);
},
{
closed = 1;
nodes = (
"452 120 OFFCURVE",
"412 105 OFFCURVE",
"349 105 CURVE SMOOTH",
"283 105 OFFCURVE",
"244 120 OFFCURVE",
"244 228 CURVE SMOOTH",
"244 336 OFFCURVE",
"283 351 OFFCURVE",
"349 351 CURVE SMOOTH",
"412 351 OFFCURVE",
"452 336 OFFCURVE",
"452 228 CURVE SMOOTH"
);
},
{
closed = 1;
nodes = (
"253 -86 LINE",
"489 525 LINE",
"431 525 LINE",
"196 -86 LINE"
);
}
);
};
layerId = "C7668D88-AC50-4107-9C4B-DB5D26A8FA6C";
paths = (
{
closed = 1;
nodes = (
"20 15 OFFCURVE",
"160 -7 OFFCURVE",
"341 -7 CURVE SMOOTH",
"519 -7 OFFCURVE",
"677 9 OFFCURVE",
"677 230 CURVE SMOOTH",
"677 446 OFFCURVE",
"534 467 OFFCURVE",
"356 467 CURVE SMOOTH",
"179 467 OFFCURVE",
"20 451 OFFCURVE",
"20 230 CURVE SMOOTH"
);
},
{
closed = 1;
nodes = (
"452 120 OFFCURVE",
"412 105 OFFCURVE",
"349 105 CURVE SMOOTH",
"283 105 OFFCURVE",
"244 120 OFFCURVE",
"244 228 CURVE SMOOTH",
"244 336 OFFCURVE",
"283 351 OFFCURVE",
"349 351 CURVE SMOOTH",
"412 351 OFFCURVE",
"452 336 OFFCURVE",
"452 228 CURVE SMOOTH"
);
},
{
closed = 1;
nodes = (
"253 -86 LINE",
"489 525 LINE",
"431 525 LINE",
"196 -86 LINE"
);
}
);
width = 697;
},
{
anchors = (
{
name = bottom;
position = "{269, 0}";
},
{
name = top;
position = "{269, 460}";
}
);
layerId = "B5FD97B6-BD2C-4287-9857-851C623D3F63";
paths = (
{
closed = 1;
nodes = (
"41 15 OFFCURVE",
"138 -7 OFFCURVE",
"263 -7 CURVE SMOOTH",
"386 -7 OFFCURVE",
"497 9 OFFCURVE",
"497 231 CURVE SMOOTH",
"497 447 OFFCURVE",
"399 469 OFFCURVE",
"275 469 CURVE SMOOTH",
"152 469 OFFCURVE",
"41 453 OFFCURVE",
"41 231 CURVE SMOOTH"
);
},
{
closed = 1;
nodes = (
"472 37 OFFCURVE",
"395 11 OFFCURVE",
"268 11 CURVE SMOOTH",
"141 11 OFFCURVE",
"66 37 OFFCURVE",
"66 230 CURVE SMOOTH",
"66 424 OFFCURVE",
"141 451 OFFCURVE",
"268 451 CURVE SMOOTH",
"395 451 OFFCURVE",
"472 424 OFFCURVE",
"472 230 CURVE SMOOTH"
);
},
{
closed = 1;
nodes = (
"138 -82 LINE",
"373 525 LINE",
"354 525 LINE",
"121 -82 LINE"
);
}
);
width = 537;
}
);
leftKerningGroup = O;
note = Oslash;
rightKerningGroup = O;
unicode = 00D8;
},
{
glyphname = P;
lastChange = "2021-09-30 21:05:41 +0000";
layers = (
{
anchors = (
{
name = bottom;
position = "{341, 0}";
},
{
name = top;
position = "{341, 460}";
}
);
background = {
anchors = (
{
name = bottom;
position = "{341, 0}";
},
{
name = top;
position = "{341, 460}";
}
);
paths = (
{
closed = 1;
nodes = (
"263 0 LINE",
"263 110 OFFCURVE",
"263 219 OFFCURVE",
"263 330 CURVE SMOOTH",
"263 334 OFFCURVE",
"269 344 OFFCURVE",
"279 344 CURVE",
"323 344 OFFCURVE",
"350 344 OFFCURVE",
"394 344 CURVE SMOOTH",
"419 344 OFFCURVE",
"429 331 OFFCURVE",
"429 296 CURVE SMOOTH",
"429 259 OFFCURVE",
"417 239 OFFCURVE",
"394 239 CURVE SMOOTH",
"344 239 OFFCURVE",
"295 239 OFFCURVE",
"245 239 CURVE",
"212 239 OFFCURVE",
"218 229 OFFCURVE",
"218 128 CURVE",
"305 127 OFFCURVE",
"406 127 OFFCURVE",
"493 126 CURVE SMOOTH",
"591 125 OFFCURVE",
"658 169 OFFCURVE",
"658 303 CURVE SMOOTH",
"658 428 OFFCURVE",
"573 460 OFFCURVE",
"476 460 CURVE SMOOTH",
"354 460 OFFCURVE",
"232 460 OFFCURVE",
"110 460 CURVE SMOOTH",
"44 460 OFFCURVE",
"35 432 OFFCURVE",
"35 376 CURVE SMOOTH",
"35 251 OFFCURVE",
"36 125 OFFCURVE",
"36 0 CURVE"
);
}
);
};
layerId = "C7668D88-AC50-4107-9C4B-DB5D26A8FA6C";
paths = (
{
closed = 1;
nodes = (
"263 0 LINE",
"263 110 OFFCURVE",
"263 219 OFFCURVE",
"263 330 CURVE SMOOTH",
"263 334 OFFCURVE",
"269 344 OFFCURVE",
"279 344 CURVE",
"323 344 OFFCURVE",
"350 344 OFFCURVE",
"394 344 CURVE SMOOTH",
"419 344 OFFCURVE",
"429 331 OFFCURVE",
"429 296 CURVE SMOOTH",
"429 259 OFFCURVE",
"417 239 OFFCURVE",
"394 239 CURVE SMOOTH",
"344 239 OFFCURVE",
"295 239 OFFCURVE",
"245 239 CURVE",
"212 239 OFFCURVE",
"218 229 OFFCURVE",
"218 128 CURVE",
"305 127 OFFCURVE",
"406 127 OFFCURVE",
"493 126 CURVE SMOOTH",
"591 125 OFFCURVE",
"658 169 OFFCURVE",
"658 303 CURVE SMOOTH",
"658 428 OFFCURVE",
"573 460 OFFCURVE",
"476 460 CURVE SMOOTH",
"354 460 OFFCURVE",
"232 460 OFFCURVE",
"110 460 CURVE SMOOTH",
"44 460 OFFCURVE",
"35 432 OFFCURVE",
"35 376 CURVE SMOOTH",
"35 251 OFFCURVE",
"36 125 OFFCURVE",
"36 0 CURVE"
);
}
);
width = 680;
},
{
anchors = (
{
name = bottom;
position = "{291, 0}";
},
{
name = top;
position = "{291, 460}";
}
);
layerId = "B5FD97B6-BD2C-4287-9857-851C623D3F63";
paths = (
{
closed = 1;
nodes = (
"117 0 LINE",
"117 138 OFFCURVE",
"117 276 OFFCURVE",
"117 414 CURVE SMOOTH",
"117 439 OFFCURVE",
"139 441 OFFCURVE",
"144 441 CURVE SMOOTH",
"189 443 OFFCURVE",
"299 447 OFFCURVE",
"370 439 CURVE SMOOTH",
"427 433 OFFCURVE",
"451 398 OFFCURVE",
"451 339 CURVE SMOOTH",
"451 242 OFFCURVE",
"398 219 OFFCURVE",
"341 219 CURVE SMOOTH",
"289 219 OFFCURVE",
"198 219 OFFCURVE",
"174 219 CURVE SMOOTH",
"160 219 OFFCURVE",
"160 209 OFFCURVE",
"160 200 CURVE",
"222 200 OFFCURVE",
"283 200 OFFCURVE",
"344 200 CURVE",
"427 200 OFFCURVE",
"477 245 OFFCURVE",
"477 336 CURVE SMOOTH",
"477 410 OFFCURVE",
"447 453 OFFCURVE",
"369 459 CURVE SMOOTH",
"314 463 OFFCURVE",
"202 462 OFFCURVE",
"140 460 CURVE SMOOTH",
"110 459 OFFCURVE",
"93 453 OFFCURVE",
"93 413 CURVE SMOOTH",
"93 275 OFFCURVE",
"93 138 OFFCURVE",
"93 0 CURVE"
);
}
);
width = 518;
}
);
leftKerningGroup = H;
leftMetricsKey = B;
note = P;
rightKerningGroup = P;
unicode = 0050;
},
{
glyphname = Thorn;
lastChange = "2021-09-24 03:41:18 +0000";
layers = (
{
background = {
paths = (
{
closed = 1;
nodes = (
"27 0 LINE",
"211 0 LINE",
"211 108 LINE",
"429 108 LINE SMOOTH",
"583 108 OFFCURVE",
"620 165 OFFCURVE",
"620 264 CURVE SMOOTH",
"620 369 OFFCURVE",
"601 417 OFFCURVE",
"443 417 CURVE SMOOTH",
"210 417 LINE",
"210 495 LINE",
"99 495 LINE SMOOTH",
"41 495 OFFCURVE",
"27 489 OFFCURVE",
"27 436 CURVE SMOOTH"
);
},
{
closed = 1;
nodes = (
"414 306 LINE SMOOTH",
"432 306 OFFCURVE",
"437 301 OFFCURVE",
"437 264 CURVE SMOOTH",
"437 228 OFFCURVE",
"433 220 OFFCURVE",
"417 220 CURVE SMOOTH",
"211 220 LINE",
"211 306 LINE"
);
}
);
};
layerId = "C7668D88-AC50-4107-9C4B-DB5D26A8FA6C";
paths = (
{
closed = 1;
nodes = (
"27 0 LINE",
"211 0 LINE",
"211 108 LINE",
"429 108 LINE SMOOTH",
"583 108 OFFCURVE",
"620 165 OFFCURVE",
"620 264 CURVE SMOOTH",
"620 369 OFFCURVE",
"601 417 OFFCURVE",
"443 417 CURVE SMOOTH",
"210 417 LINE",
"210 495 LINE",
"99 495 LINE SMOOTH",
"41 495 OFFCURVE",
"27 489 OFFCURVE",
"27 436 CURVE SMOOTH"
);
},
{
closed = 1;
nodes = (
"414 306 LINE SMOOTH",
"432 306 OFFCURVE",
"437 301 OFFCURVE",
"437 264 CURVE SMOOTH",
"437 228 OFFCURVE",
"433 220 OFFCURVE",
"417 220 CURVE SMOOTH",
"211 220 LINE",
"211 306 LINE"
);
}
);
width = 684;
},
{
layerId = "B5FD97B6-BD2C-4287-9857-851C623D3F63";
paths = (
{
closed = 1;
nodes = (
"41 0 LINE",
"64 0 LINE",
"64 128 LINE",
"272 128 LINE SMOOTH",
"362 128 OFFCURVE",
"398 179 OFFCURVE",
"398 271 CURVE SMOOTH",
"398 366 OFFCURVE",
"370 410 OFFCURVE",
"282 410 CURVE SMOOTH",
"64 410 LINE",
"64 502 LINE",
"54 502 LINE SMOOTH",
"40 502 OFFCURVE",
"41 490 OFFCURVE",
"41 459 CURVE SMOOTH"
);
},
{
closed = 1;
nodes = (
"280 395 LINE SMOOTH",
"328 395 OFFCURVE",
"377 376 OFFCURVE",
"377 272 CURVE SMOOTH",
"377 166 OFFCURVE",
"331 143 OFFCURVE",
"284 143 CURVE SMOOTH",
"64 143 LINE",
"64 395 LINE"
);
}
);
width = 457;
}
);
leftKerningGroup = H;
note = Thorn;
rightKerningGroup = P;
unicode = 00DE;
},
{
glyphname = Q;
lastChange = "2021-09-24 03:41:18 +0000";
layers = (
{
anchors = (
{
name = bottom;
position = "{403, 0}";
},
{
name = top;
position = "{403, 460}";
}
);
background = {
anchors = (
{
name = bottom;
position = "{403, 0}";
},
{
name = top;
position = "{403, 460}";
}
);
paths = (
{
closed = 1;
nodes = (
"-780 16 OFFCURVE",
"-629 -6 OFFCURVE",
"-435 -6 CURVE SMOOTH",
"-389 -6 OFFCURVE",
"-344 -5 OFFCURVE",
"-302 0 CURVE",
"-209 -101 OFFCURVE",
"-101 -107 OFFCURVE",
"-15 -4 CURVE",
"-58 -4 OFFCURVE",
"-120 23 OFFCURVE",
"-160 44 CURVE",
"-109 78 OFFCURVE",
"-77 135 OFFCURVE",
"-77 230 CURVE SMOOTH",
"-77 446 OFFCURVE",
"-229 467 OFFCURVE",
"-421 467 CURVE SMOOTH",
"-610 467 OFFCURVE",
"-780 451 OFFCURVE",
"-780 230 CURVE SMOOTH"
);
},
{
closed = 1;
nodes = (
"-314 196 OFFCURVE",
"-319 171 OFFCURVE",
"-327 154 CURVE",
"-350 166 OFFCURVE",
"-375 175 OFFCURVE",
"-393 175 CURVE SMOOTH",
"-426 175 OFFCURVE",
"-456 159 OFFCURVE",
"-467 136 CURVE",
"-428 109 LINE",
"-431 109 OFFCURVE",
"-435 109 OFFCURVE",
"-438 109 CURVE SMOOTH",
"-465 109 OFFCURVE",
"-478 111 OFFCURVE",
"-496 119 CURVE SMOOTH",
"-527 132 OFFCURVE",
"-545 162 OFFCURVE",
"-545 229 CURVE SMOOTH",
"-545 337 OFFCURVE",
"-501 351 OFFCURVE",
"-429 351 CURVE SMOOTH",
"-358 351 OFFCURVE",
"-314 337 OFFCURVE",
"-314 229 CURVE SMOOTH"
);
},
{
closed = 1;
nodes = (
"-201 -7 OFFCURVE",
"-123 55 OFFCURVE",
"-123 230 CURVE SMOOTH",
"-123 405 OFFCURVE",
"-201 467 OFFCURVE",
"-451 467 CURVE SMOOTH",
"-701 467 OFFCURVE",
"-780 405 OFFCURVE",
"-780 230 CURVE SMOOTH",
"-780 55 OFFCURVE",
"-701 -7 OFFCURVE",
"-451 -7 CURVE SMOOTH"
);
},
{
closed = 1;
nodes = (
"-523 109 OFFCURVE",
"-546 138 OFFCURVE",
"-546 230 CURVE SMOOTH",
"-546 322 OFFCURVE",
"-523 351 OFFCURVE",
"-451 351 CURVE SMOOTH",
"-379 351 OFFCURVE",
"-357 322 OFFCURVE",
"-357 230 CURVE SMOOTH",
"-357 138 OFFCURVE",
"-379 109 OFFCURVE",
"-451 109 CURVE SMOOTH"
);
},
{
closed = 1;
nodes = (
"-780 16 OFFCURVE",
"-629 -6 OFFCURVE",
"-435 -6 CURVE SMOOTH",
"-389 -6 OFFCURVE",
"-344 -5 OFFCURVE",
"-302 0 CURVE",
"-209 -101 OFFCURVE",
"-101 -107 OFFCURVE",
"-15 -4 CURVE",
"-58 -4 OFFCURVE",
"-120 23 OFFCURVE",
"-160 44 CURVE",
"-109 78 OFFCURVE",
"-77 135 OFFCURVE",
"-77 230 CURVE SMOOTH",
"-77 446 OFFCURVE",
"-229 467 OFFCURVE",
"-421 467 CURVE SMOOTH",
"-610 467 OFFCURVE",
"-780 451 OFFCURVE",
"-780 230 CURVE SMOOTH"
);
},
{
closed = 1;
nodes = (
"-314 196 OFFCURVE",
"-319 171 OFFCURVE",
"-327 154 CURVE",
"-350 166 OFFCURVE",
"-375 175 OFFCURVE",
"-393 175 CURVE SMOOTH",
"-426 175 OFFCURVE",
"-456 159 OFFCURVE",
"-467 136 CURVE",
"-428 109 LINE",
"-431 109 OFFCURVE",
"-435 109 OFFCURVE",
"-438 109 CURVE SMOOTH",
"-465 109 OFFCURVE",
"-478 111 OFFCURVE",
"-496 119 CURVE SMOOTH",
"-527 132 OFFCURVE",
"-545 162 OFFCURVE",
"-545 229 CURVE SMOOTH",
"-545 337 OFFCURVE",
"-501 351 OFFCURVE",
"-429 351 CURVE SMOOTH",
"-358 351 OFFCURVE",
"-314 337 OFFCURVE",
"-314 229 CURVE SMOOTH"
);
},
{
closed = 1;
nodes = (
"-236 83 OFFCURVE",
"-292 115 OFFCURVE",
"-345 150 CURVE SMOOTH",
"-373 169 OFFCURVE",
"-390 177 OFFCURVE",
"-408 177 CURVE SMOOTH",
"-437 177 OFFCURVE",
"-464 161 OFFCURVE",
"-473 138 CURVE",
"-405 91 OFFCURVE",
"-394 86 OFFCURVE",
"-331 18 CURVE SMOOTH",
"-278 -39 OFFCURVE",
"-225 -67 OFFCURVE",
"-175 -67 CURVE SMOOTH",
"-128 -68 OFFCURVE",
"-83 -43 OFFCURVE",
"-43 5 CURVE",
"-84 5 OFFCURVE",
"-143 30 OFFCURVE",
"-181 50 CURVE"
);
},
{
closed = 1;
nodes = (
"566 72 OFFCURVE",
"454 146 CURVE SMOOTH",
"423 166 OFFCURVE",
"405 176 OFFCURVE",
"380 176 CURVE SMOOTH",
"358 176 OFFCURVE",
"335 161 OFFCURVE",
"327 138 CURVE",
"455 63 OFFCURVE",
"505 -91 OFFCURVE",
"611 -91 CURVE SMOOTH",
"664 -91 OFFCURVE",
"697 -67 OFFCURVE",
"737 -19 CURVE",
"652 -19 OFFCURVE"
);
},
{
closed = 1;
nodes = (
"599 -7 OFFCURVE",
"677 55 OFFCURVE",
"677 230 CURVE SMOOTH",
"677 405 OFFCURVE",
"599 467 OFFCURVE",
"349 467 CURVE SMOOTH",
"99 467 OFFCURVE",
"20 405 OFFCURVE",
"20 230 CURVE SMOOTH",
"20 55 OFFCURVE",
"99 -7 OFFCURVE",
"349 -7 CURVE SMOOTH"
);
},
{
closed = 1;
nodes = (
"277 109 OFFCURVE",
"254 138 OFFCURVE",
"254 230 CURVE SMOOTH",
"254 322 OFFCURVE",
"277 351 OFFCURVE",
"349 351 CURVE SMOOTH",
"421 351 OFFCURVE",
"443 322 OFFCURVE",
"443 230 CURVE SMOOTH",
"443 138 OFFCURVE",
"421 109 OFFCURVE",
"349 109 CURVE SMOOTH"
);
},
{
closed = 1;
nodes = (
"534 66 OFFCURVE",
"434 146 CURVE SMOOTH",
"405 169 OFFCURVE",
"385 176 OFFCURVE",
"360 176 CURVE SMOOTH",
"338 176 OFFCURVE",
"315 165 OFFCURVE",
"307 142 CURVE",
"417 67 OFFCURVE",
"498 -91 OFFCURVE",
"604 -91 CURVE SMOOTH",
"644 -91 OFFCURVE",
"675 -74 OFFCURVE",
"694 -30 CURVE",
"602 -1 OFFCURVE"
);
},
{
closed = 1;
nodes = (
"599 -7 OFFCURVE",
"677 55 OFFCURVE",
"677 230 CURVE SMOOTH",
"677 405 OFFCURVE",
"599 467 OFFCURVE",
"349 467 CURVE SMOOTH",
"99 467 OFFCURVE",
"20 405 OFFCURVE",
"20 230 CURVE SMOOTH",
"20 55 OFFCURVE",
"99 -7 OFFCURVE",
"349 -7 CURVE SMOOTH"
);
},
{
closed = 1;
nodes = (
"277 109 OFFCURVE",
"254 138 OFFCURVE",
"254 230 CURVE SMOOTH",
"254 322 OFFCURVE",
"277 351 OFFCURVE",
"349 351 CURVE SMOOTH",
"421 351 OFFCURVE",
"443 322 OFFCURVE",
"443 230 CURVE SMOOTH",
"443 138 OFFCURVE",
"421 109 OFFCURVE",
"349 109 CURVE SMOOTH"
);
}
);
};
layerId = "C7668D88-AC50-4107-9C4B-DB5D26A8FA6C";
paths = (
{
closed = 1;
nodes = (
"599 -7 OFFCURVE",
"677 55 OFFCURVE",
"677 230 CURVE SMOOTH",
"677 405 OFFCURVE",
"599 467 OFFCURVE",
"349 467 CURVE SMOOTH",
"99 467 OFFCURVE",
"20 405 OFFCURVE",
"20 230 CURVE SMOOTH",
"20 55 OFFCURVE",
"99 -7 OFFCURVE",
"349 -7 CURVE SMOOTH"
);
},
{
closed = 1;
nodes = (
"277 109 OFFCURVE",
"254 138 OFFCURVE",
"254 230 CURVE SMOOTH",
"254 322 OFFCURVE",
"277 351 OFFCURVE",
"349 351 CURVE SMOOTH",
"421 351 OFFCURVE",
"443 322 OFFCURVE",
"443 230 CURVE SMOOTH",
"443 138 OFFCURVE",
"421 109 OFFCURVE",
"349 109 CURVE SMOOTH"
);
},
{
closed = 1;
nodes = (
"630 -94 OFFCURVE",
"661 -77 OFFCURVE",
"680 -33 CURVE",
"574 15 OFFCURVE",
"540 69 OFFCURVE",
"443 146 CURVE SMOOTH",
"408 174 OFFCURVE",
"389 180 OFFCURVE",
"360 180 CURVE SMOOTH",
"338 180 OFFCURVE",
"315 168 OFFCURVE",
"307 142 CURVE",
"379 89 OFFCURVE",
"438 2 OFFCURVE",
"482 -42 CURVE SMOOTH",
"520 -80 OFFCURVE",
"556 -94 OFFCURVE",
"590 -94 CURVE SMOOTH"
);
}
);
width = 699;
},
{
anchors = (
{
name = bottom;
position = "{284, 0}";
},
{
name = top;
position = "{284, 460}";
}
);
layerId = "B5FD97B6-BD2C-4287-9857-851C623D3F63";
paths = (
{
closed = 1;
nodes = (
"401 -7 OFFCURVE",
"511 10 OFFCURVE",
"511 231 CURVE SMOOTH",
"511 446 OFFCURVE",
"414 469 OFFCURVE",
"288 469 CURVE SMOOTH",
"164 469 OFFCURVE",
"54 452 OFFCURVE",
"54 231 CURVE SMOOTH",
"54 16 OFFCURVE",
"151 -7 OFFCURVE",
"277 -7 CURVE SMOOTH"
);
},
{
closed = 1;
nodes = (
"154 11 OFFCURVE",
"79 37 OFFCURVE",
"79 231 CURVE SMOOTH",
"79 424 OFFCURVE",
"154 451 OFFCURVE",
"281 451 CURVE SMOOTH",
"410 451 OFFCURVE",
"486 424 OFFCURVE",
"486 231 CURVE SMOOTH",
"486 37 OFFCURVE",
"410 11 OFFCURVE",
"281 11 CURVE SMOOTH"
);
},
{
closed = 1;
nodes = (
"463 -75 OFFCURVE",
"467 -73 OFFCURVE",
"471 -70 CURVE",
"434 -40 OFFCURVE",
"309 115 OFFCURVE",
"296 129 CURVE SMOOTH",
"288 140 OFFCURVE",
"281 146 OFFCURVE",
"274 146 CURVE SMOOTH",
"269 146 OFFCURVE",
"265 145 OFFCURVE",
"261 140 CURVE",
"277 120 OFFCURVE",
"407 -32 OFFCURVE",
"429 -58 CURVE SMOOTH",
"439 -69 OFFCURVE",
"448 -75 OFFCURVE",
"457 -75 CURVE SMOOTH"
);
}
);
width = 565;
}
);
leftKerningGroup = O;
leftMetricsKey = O;
note = Q;
rightKerningGroup = Q;
unicode = 0051;
},
{
glyphname = R;
lastChange = "2021-09-30 21:05:41 +0000";
layers = (
{
anchors = (
{
name = bottom;
position = "{356, 0}";
},
{
name = top;
position = "{356, 460}";
}
);
background = {
anchors = (
{
name = bottom;
position = "{356, 0}";
},
{
name = top;
position = "{356, 460}";
}
);
hints = (
{
horizontal = 1;
place = "{0, 190}";
type = Stem;
},
{
horizontal = 1;
place = "{344, 116}";
type = Stem;
},
{
place = "{35, 228}";
type = Stem;
},
{
horizontal = 1;
place = "{130, 106}";
type = Stem;
},
{
place = "{432, 232}";
type = Stem;
}
);
paths = (
{
closed = 1;
nodes = (
"371 130 LINE SMOOTH",
"416 130 OFFCURVE",
"432 129 OFFCURVE",
"432 88 CURVE SMOOTH",
"432 51 LINE SMOOTH",
"432 10 OFFCURVE",
"459 0 OFFCURVE",
"504 0 CURVE SMOOTH",
"677 0 LINE",
"676 1 OFFCURVE",
"665 13 OFFCURVE",
"665 46 CURVE SMOOTH",
"665 116 LINE SMOOTH",
"665 148 OFFCURVE",
"662 179 OFFCURVE",
"612 189 CURVE",
"601 190 OFFCURVE",
"585 190 OFFCURVE",
"573 190 CURVE",
"573 195 LINE",
"600 195 OFFCURVE",
"623 202 OFFCURVE",
"635 211 CURVE SMOOTH",
"655 228 OFFCURVE",
"661 253 OFFCURVE",
"661 337 CURVE SMOOTH",
"661 423 OFFCURVE",
"621 452 OFFCURVE",
"548 459 CURVE SMOOTH",
"497 464 OFFCURVE",
"169 460 OFFCURVE",
"109 460 CURVE SMOOTH",
"45 460 OFFCURVE",
"35 431 OFFCURVE",
"35 392 CURVE SMOOTH",
"35 0 LINE",
"263 0 LINE",
"263 129 LINE",
"289 129 OFFCURVE",
"338 130 OFFCURVE",
"338 130 CURVE"
);
},
{
closed = 1;
nodes = (
"263 330 LINE SMOOTH",
"263 342 OFFCURVE",
"273 343 OFFCURVE",
"275 343 CURVE SMOOTH",
"294 343 OFFCURVE",
"371 346 OFFCURVE",
"399 342 CURVE SMOOTH",
"422 339 OFFCURVE",
"431 321 OFFCURVE",
"431 291 CURVE SMOOTH",
"431 247 OFFCURVE",
"410 234 OFFCURVE",
"388 234 CURVE SMOOTH",
"368 234 OFFCURVE",
"282 234 OFFCURVE",
"263 235 CURVE"
);
}
);
};
layerId = "C7668D88-AC50-4107-9C4B-DB5D26A8FA6C";
paths = (
{
closed = 1;
nodes = (
"371 130 LINE SMOOTH",
"416 130 OFFCURVE",
"432 129 OFFCURVE",
"432 88 CURVE SMOOTH",
"432 51 LINE SMOOTH",
"432 10 OFFCURVE",
"459 0 OFFCURVE",
"504 0 CURVE SMOOTH",
"677 0 LINE",
"676 1 OFFCURVE",
"665 13 OFFCURVE",
"665 46 CURVE SMOOTH",
"665 116 LINE SMOOTH",
"665 148 OFFCURVE",
"662 179 OFFCURVE",
"612 189 CURVE",
"601 190 OFFCURVE",
"585 190 OFFCURVE",
"573 190 CURVE",
"573 195 LINE",
"600 195 OFFCURVE",
"623 202 OFFCURVE",
"635 211 CURVE SMOOTH",
"655 228 OFFCURVE",
"661 253 OFFCURVE",
"661 337 CURVE SMOOTH",
"661 423 OFFCURVE",
"621 452 OFFCURVE",
"548 459 CURVE SMOOTH",
"497 464 OFFCURVE",
"169 460 OFFCURVE",
"109 460 CURVE SMOOTH",
"45 460 OFFCURVE",
"35 431 OFFCURVE",
"35 392 CURVE SMOOTH",
"35 0 LINE",
"263 0 LINE",
"263 129 LINE",
"289 129 OFFCURVE",
"338 130 OFFCURVE",
"338 130 CURVE"
);
},
{
closed = 1;
nodes = (
"263 330 LINE SMOOTH",
"263 342 OFFCURVE",
"273 343 OFFCURVE",
"275 343 CURVE SMOOTH",
"294 343 OFFCURVE",
"371 346 OFFCURVE",
"399 342 CURVE SMOOTH",
"422 339 OFFCURVE",
"431 321 OFFCURVE",
"431 291 CURVE SMOOTH",
"431 247 OFFCURVE",
"410 234 OFFCURVE",
"388 234 CURVE SMOOTH",
"368 234 OFFCURVE",
"282 234 OFFCURVE",
"263 235 CURVE"
);
}
);
width = 695;
},
{
anchors = (
{
name = bottom;
position = "{290, 0}";
},
{
name = top;
position = "{290, 460}";
}
);
layerId = "B5FD97B6-BD2C-4287-9857-851C623D3F63";
paths = (
{
closed = 1;
nodes = (
"404 210 LINE SMOOTH",
"449 210 OFFCURVE",
"465 192 OFFCURVE",
"465 151 CURVE SMOOTH",
"465 22 LINE SMOOTH",
"465 0 OFFCURVE",
"471 0 OFFCURVE",
"480 0 CURVE SMOOTH",
"492 0 LINE",
"491 1 OFFCURVE",
"490 11 OFFCURVE",
"490 16 CURVE SMOOTH",
"490 146 LINE SMOOTH",
"490 178 OFFCURVE",
"485 215 OFFCURVE",
"435 225 CURVE",
"433 225 OFFCURVE",
"428 225 OFFCURVE",
"426 225 CURVE",
"426 226 LINE",
"428 226 OFFCURVE",
"434 226 OFFCURVE",
"436 228 CURVE SMOOTH",
"473 246 OFFCURVE",
"494 283 OFFCURVE",
"494 337 CURVE SMOOTH",
"494 410 OFFCURVE",
"467 452 OFFCURVE",
"398 459 CURVE SMOOTH",
"347 464 OFFCURVE",
"200 462 OFFCURVE",
"140 460 CURVE SMOOTH",
"110 459 OFFCURVE",
"93 453 OFFCURVE",
"93 414 CURVE SMOOTH",
"93 0 LINE",
"117 0 LINE",
"117 209 LINE",
"262 211 OFFCURVE",
"371 210 OFFCURVE",
"371 210 CURVE"
);
},
{
closed = 1;
nodes = (
"117 414 LINE SMOOTH",
"117 439 OFFCURVE",
"139 441 OFFCURVE",
"144 441 CURVE SMOOTH",
"188 443 OFFCURVE",
"333 447 OFFCURVE",
"396 439 CURVE SMOOTH",
"446 433 OFFCURVE",
"468 397 OFFCURVE",
"468 339 CURVE SMOOTH",
"468 254 OFFCURVE",
"421 228 OFFCURVE",
"369 228 CURVE SMOOTH",
"326 228 OFFCURVE",
"161 229 OFFCURVE",
"117 230 CURVE"
);
}
);
width = 563;
}
);
leftKerningGroup = H;
leftMetricsKey = B;
note = R;
rightKerningGroup = R;
unicode = 0052;
},
{
glyphname = S;
lastChange = "2021-09-24 03:41:18 +0000";
layers = (
{
anchors = (
{
name = bottom;
position = "{330, 0}";
},
{
name = top;
position = "{330, 460}";
}
);
background = {
anchors = (
{
name = bottom;
position = "{330, 0}";
},
{
name = top;
position = "{330, 460}";
}
);
hints = (
{
horizontal = 1;
place = "{-1, 150}";
type = Stem;
},
{
horizontal = 1;
place = "{150, 152}";
type = Stem;
},
{
horizontal = 1;
place = "{308, 152}";
type = Stem;
},
{
place = "{23, 226}";
type = Stem;
},
{
place = "{420, 229}";
type = Stem;
}
);
paths = (
{
closed = 1;
nodes = (
"30 65 LINE SMOOTH",
"30 9 OFFCURVE",
"84 -1 OFFCURVE",
"221 -4 CURVE SMOOTH",
"308 -6 OFFCURVE",
"379 -5 OFFCURVE",
"466 0 CURVE SMOOTH",
"566 6 OFFCURVE",
"632 46 OFFCURVE",
"632 159 CURVE SMOOTH",
"632 281 OFFCURVE",
"567 297 OFFCURVE",
"464 297 CURVE SMOOTH",
"459 297 OFFCURVE",
"402 297 OFFCURVE",
"299 297 CURVE SMOOTH",
"272 297 OFFCURVE",
"272 309 OFFCURVE",
"272 319 CURVE SMOOTH",
"272 330 OFFCURVE",
"272 343 OFFCURVE",
"315 343 CURVE SMOOTH",
"428 343 LINE SMOOTH",
"488 343 OFFCURVE",
"606 342 OFFCURVE",
"621 328 CURVE",
"621 329 OFFCURVE",
"621 373 OFFCURVE",
"621 381 CURVE SMOOTH",
"621 425 OFFCURVE",
"586 457 OFFCURVE",
"523 460 CURVE SMOOTH",
"484 462 OFFCURVE",
"383 464 OFFCURVE",
"307 464 CURVE SMOOTH",
"139 464 OFFCURVE",
"37 452 OFFCURVE",
"37 301 CURVE SMOOTH",
"37 173 OFFCURVE",
"134 168 OFFCURVE",
"230 168 CURVE SMOOTH",
"313 168 OFFCURVE",
"335 168 OFFCURVE",
"354 168 CURVE SMOOTH",
"380 168 OFFCURVE",
"391 160 OFFCURVE",
"391 146 CURVE SMOOTH",
"391 128 OFFCURVE",
"378 118 OFFCURVE",
"343 118 CURVE SMOOTH",
"326 118 OFFCURVE",
"289 117 OFFCURVE",
"271 117 CURVE SMOOTH",
"199 117 OFFCURVE",
"85 118 OFFCURVE",
"30 138 CURVE"
);
}
);
};
layerId = "C7668D88-AC50-4107-9C4B-DB5D26A8FA6C";
paths = (
{
closed = 1;
nodes = (
"30 65 LINE SMOOTH",
"30 9 OFFCURVE",
"84 -1 OFFCURVE",
"221 -4 CURVE SMOOTH",
"308 -6 OFFCURVE",
"379 -5 OFFCURVE",
"466 0 CURVE SMOOTH",
"566 6 OFFCURVE",
"632 46 OFFCURVE",
"632 159 CURVE SMOOTH",
"632 281 OFFCURVE",
"567 297 OFFCURVE",
"464 297 CURVE SMOOTH",
"459 297 OFFCURVE",
"402 297 OFFCURVE",
"299 297 CURVE SMOOTH",
"272 297 OFFCURVE",
"272 309 OFFCURVE",
"272 319 CURVE SMOOTH",
"272 330 OFFCURVE",
"272 343 OFFCURVE",
"315 343 CURVE SMOOTH",
"428 343 LINE SMOOTH",
"488 343 OFFCURVE",
"606 342 OFFCURVE",
"621 328 CURVE",
"621 329 OFFCURVE",
"621 373 OFFCURVE",
"621 381 CURVE SMOOTH",
"621 425 OFFCURVE",
"586 457 OFFCURVE",
"523 460 CURVE SMOOTH",
"484 462 OFFCURVE",
"383 464 OFFCURVE",
"307 464 CURVE SMOOTH",
"139 464 OFFCURVE",
"37 452 OFFCURVE",
"37 301 CURVE SMOOTH",
"37 173 OFFCURVE",
"134 168 OFFCURVE",
"230 168 CURVE SMOOTH",
"313 168 OFFCURVE",
"335 168 OFFCURVE",
"354 168 CURVE SMOOTH",
"380 168 OFFCURVE",
"391 160 OFFCURVE",
"391 146 CURVE SMOOTH",
"391 128 OFFCURVE",
"378 118 OFFCURVE",
"343 118 CURVE SMOOTH",
"326 118 OFFCURVE",
"289 117 OFFCURVE",
"271 117 CURVE SMOOTH",
"199 117 OFFCURVE",
"85 118 OFFCURVE",
"30 138 CURVE"
);
}
);
width = 662;
},
{
anchors = (
{
name = bottom;
position = "{260, 0}";
},
{
name = top;
position = "{272, 460}";
}
);
layerId = "B5FD97B6-BD2C-4287-9857-851C623D3F63";
paths = (
{
closed = 1;
nodes = (
"59 35 LINE SMOOTH",
"59 -2 OFFCURVE",
"189 -6 OFFCURVE",
"227 -6 CURVE SMOOTH",
"241 -6 OFFCURVE",
"256 -6 OFFCURVE",
"270 -5 CURVE SMOOTH",
"375 0 OFFCURVE",
"455 28 OFFCURVE",
"455 133 CURVE SMOOTH",
"455 237 OFFCURVE",
"394 247 OFFCURVE",
"312 247 CURVE SMOOTH",
"279 247 OFFCURVE",
"245 247 OFFCURVE",
"210 247 CURVE SMOOTH",
"134 247 OFFCURVE",
"80 254 OFFCURVE",
"80 334 CURVE SMOOTH",
"80 435 OFFCURVE",
"163 445 OFFCURVE",
"248 445 CURVE SMOOTH",
"288 445 LINE SMOOTH",
"326 445 OFFCURVE",
"423 440 OFFCURVE",
"450 407 CURVE",
"450 413 OFFCURVE",
"450 419 OFFCURVE",
"450 425 CURVE SMOOTH",
"450 431 OFFCURVE",
"446 435 OFFCURVE",
"439 439 CURVE SMOOTH",
"405 462 OFFCURVE",
"322 464 OFFCURVE",
"272 464 CURVE SMOOTH",
"161 464 OFFCURVE",
"57 455 OFFCURVE",
"57 333 CURVE SMOOTH",
"57 230 OFFCURVE",
"139 227 OFFCURVE",
"209 227 CURVE SMOOTH",
"245 227 OFFCURVE",
"281 227 OFFCURVE",
"316 227 CURVE SMOOTH",
"389 227 OFFCURVE",
"430 214 OFFCURVE",
"430 135 CURVE SMOOTH",
"430 39 OFFCURVE",
"361 17 OFFCURVE",
"266 14 CURVE SMOOTH",
"254 13 OFFCURVE",
"241 13 OFFCURVE",
"229 13 CURVE SMOOTH",
"181 13 OFFCURVE",
"96 16 OFFCURVE",
"59 46 CURVE"
);
}
);
width = 509;
}
);
leftKerningGroup = S;
note = S;
rightKerningGroup = S;
unicode = 0053;
},
{
glyphname = Germandbls;
lastChange = "2021-09-24 03:41:18 +0000";
layers = (
{
background = {
paths = (
{
closed = 1;
nodes = (
"318 -24 LINE",
"369 339 LINE SMOOTH",
"380 415 OFFCURVE",
"448 431 OFFCURVE",
"479 431 CURVE SMOOTH",
"516 431 OFFCURVE",
"577 431 OFFCURVE",
"569 375 CURVE",
"504 348 OFFCURVE",
"412 302 OFFCURVE",
"402 233 CURVE SMOOTH",
"393 168 OFFCURVE",
"434 144 OFFCURVE",
"515 144 CURVE SMOOTH",
"556 144 OFFCURVE",
"566 142 OFFCURVE",
"578 142 CURVE SMOOTH",
"607 142 OFFCURVE",
"611 134 OFFCURVE",
"609 117 CURVE SMOOTH",
"606 97 OFFCURVE",
"602 85 OFFCURVE",
"540 85 CURVE SMOOTH",
"485 85 OFFCURVE",
"403 90 OFFCURVE",
"370 107 CURVE",
"370 30 LINE",
"426 -11 OFFCURVE",
"516 -5 OFFCURVE",
"623 -5 CURVE SMOOTH",
"711 -5 OFFCURVE",
"788 14 OFFCURVE",
"805 135 CURVE SMOOTH",
"815 205 OFFCURVE",
"798 257 OFFCURVE",
"721 257 CURVE SMOOTH",
"701 257 OFFCURVE",
"662 257 OFFCURVE",
"653 257 CURVE SMOOTH",
"629 257 OFFCURVE",
"614 255 OFFCURVE",
"617 272 CURVE SMOOTH",
"619 289 OFFCURVE",
"628 289 OFFCURVE",
"664 305 CURVE SMOOTH",
"681 312 OFFCURVE",
"793 323 OFFCURVE",
"804 405 CURVE SMOOTH",
"816 488 OFFCURVE",
"720 506 OFFCURVE",
"511 506 CURVE SMOOTH",
"284 506 OFFCURVE",
"182 484 OFFCURVE",
"168 385 CURVE",
"128 103 OFFCURVE",
"130 120 OFFCURVE",
"110 -24 CURVE"
);
}
);
};
layerId = "C7668D88-AC50-4107-9C4B-DB5D26A8FA6C";
paths = (
{
closed = 1;
nodes = (
"358 -24 LINE",
"358 339 LINE SMOOTH",
"358 415 OFFCURVE",
"424 431 OFFCURVE",
"476 431 CURVE SMOOTH",
"492 431 OFFCURVE",
"569 431 OFFCURVE",
"569 375 CURVE",
"467 348 OFFCURVE",
"406 302 OFFCURVE",
"406 233 CURVE SMOOTH",
"406 168 OFFCURVE",
"450 143 OFFCURVE",
"531 143 CURVE SMOOTH",
"572 143 OFFCURVE",
"583 143 OFFCURVE",
"595 143 CURVE SMOOTH",
"624 143 OFFCURVE",
"629 134 OFFCURVE",
"629 117 CURVE SMOOTH",
"629 97 OFFCURVE",
"627 85 OFFCURVE",
"565 85 CURVE SMOOTH",
"510 85 OFFCURVE",
"427 90 OFFCURVE",
"391 107 CURVE",
"402 30 LINE",
"464 -11 OFFCURVE",
"553 -5 OFFCURVE",
"660 -5 CURVE SMOOTH",
"748 -5 OFFCURVE",
"823 14 OFFCURVE",
"823 135 CURVE SMOOTH",
"823 205 OFFCURVE",
"798 257 OFFCURVE",
"721 257 CURVE SMOOTH",
"701 257 OFFCURVE",
"662 257 OFFCURVE",
"653 257 CURVE SMOOTH",
"629 257 OFFCURVE",
"617 257 OFFCURVE",
"617 274 CURVE SMOOTH",
"617 291 OFFCURVE",
"634 296 OFFCURVE",
"665 303 CURVE SMOOTH",
"681 307 OFFCURVE",
"804 327 OFFCURVE",
"804 405 CURVE SMOOTH",
"804 488 OFFCURVE",
"685 508 OFFCURVE",
"476 508 CURVE SMOOTH",
"249 508 OFFCURVE",
"150 484 OFFCURVE",
"150 385 CURVE",
"150 103 OFFCURVE",
"150 120 OFFCURVE",
"150 -24 CURVE"
);
}
);
width = 872;
},
{
layerId = "B5FD97B6-BD2C-4287-9857-851C623D3F63";
paths = (
{
closed = 1;
nodes = (
"130 -30 LINE",
"130 399 LINE SMOOTH",
"130 475 OFFCURVE",
"219 491 OFFCURVE",
"273 491 CURVE SMOOTH",
"331 491 OFFCURVE",
"429 479 OFFCURVE",
"420 406 CURVE",
"325 382 OFFCURVE",
"175 351 OFFCURVE",
"175 272 CURVE SMOOTH",
"175 200 OFFCURVE",
"245 197 OFFCURVE",
"307 197 CURVE SMOOTH",
"338 197 OFFCURVE",
"354 197 OFFCURVE",
"366 197 CURVE SMOOTH",
"429 197 OFFCURVE",
"466 186 OFFCURVE",
"466 117 CURVE SMOOTH",
"466 24 OFFCURVE",
"391 12 OFFCURVE",
"324 12 CURVE SMOOTH",
"283 12 OFFCURVE",
"209 14 OFFCURVE",
"178 39 CURVE",
"178 30 LINE SMOOTH",
"179 -2 OFFCURVE",
"293 -5 OFFCURVE",
"325 -5 CURVE SMOOTH",
"399 -5 OFFCURVE",
"486 14 OFFCURVE",
"486 115 CURVE SMOOTH",
"486 205 OFFCURVE",
"434 215 OFFCURVE",
"363 215 CURVE SMOOTH",
"352 215 OFFCURVE",
"338 215 OFFCURVE",
"309 215 CURVE SMOOTH",
"243 215 OFFCURVE",
"196 221 OFFCURVE",
"196 273 CURVE SMOOTH",
"196 338 OFFCURVE",
"334 368 OFFCURVE",
"420 389 CURVE SMOOTH",
"425 390 OFFCURVE",
"440 394 OFFCURVE",
"441 405 CURVE SMOOTH",
"454 494 OFFCURVE",
"345 506 OFFCURVE",
"271 506 CURVE SMOOTH",
"211 506 OFFCURVE",
"111 484 OFFCURVE",
"109 411 CURVE",
"109 192 OFFCURVE",
"109 114 OFFCURVE",
"109 -30 CURVE"
);
}
);
width = 589;
}
);
unicode = 1E9E;
},
{
glyphname = Schwa;
lastChange = "2021-09-24 03:41:18 +0000";
layers = (
{
anchors = (
{
name = bottom;
position = "{-64, 1095}";
},
{
name = ogonek;
position = "{-165, 1084}";
},
{
name = top;
position = "{-64, 636}";
}
);
layerId = "C7668D88-AC50-4107-9C4B-DB5D26A8FA6C";
paths = (
{
closed = 1;
nodes = (
"176 463 OFFCURVE",
"94 460 OFFCURVE",
"71 432 CURVE SMOOTH",
"56 416 OFFCURVE",
"50 379 OFFCURVE",
"50 353 CURVE SMOOTH",
"50 326 LINE",
"63 327 OFFCURVE",
"238 331 OFFCURVE",
"288 331 CURVE SMOOTH",
"381 331 OFFCURVE",
"395 320 OFFCURVE",
"395 240 CURVE SMOOTH",
"395 135 OFFCURVE",
"385 115 OFFCURVE",
"325 115 CURVE SMOOTH",
"274 115 OFFCURVE",
"265 140 OFFCURVE",
"265 179 CURVE SMOOTH",
"265 194 OFFCURVE",
"274 197 OFFCURVE",
"283 197 CURVE",
"381 197 LINE SMOOTH",
"432 197 OFFCURVE",
"447 229 OFFCURVE",
"447 272 CURVE",
"139 272 LINE",
"59 272 OFFCURVE",
"52 257 OFFCURVE",
"52 166 CURVE SMOOTH",
"52 49 OFFCURVE",
"119 -3 OFFCURVE",
"314 -3 CURVE SMOOTH",
"564 -3 OFFCURVE",
"635 57 OFFCURVE",
"635 244 CURVE SMOOTH",
"635 425 OFFCURVE",
"581 463 OFFCURVE",
"342 463 CURVE SMOOTH"
);
}
);
width = 665;
},
{
anchors = (
{
name = bottom;
position = "{18, 1095}";
},
{
name = ogonek;
position = "{-53, 1089}";
},
{
name = top;
position = "{18, 636}";
}
);
layerId = "B5FD97B6-BD2C-4287-9857-851C623D3F63";
paths = (
{
closed = 1;
nodes = (
"166 469 OFFCURVE",
"117 464 OFFCURVE",
"77 455 CURVE SMOOTH",
"47 449 OFFCURVE",
"41 441 OFFCURVE",
"41 430 CURVE SMOOTH",
"41 422 LINE",
"70 437 OFFCURVE",
"155 447 OFFCURVE",
"215 447 CURVE SMOOTH",
"356 447 OFFCURVE",
"405 408 OFFCURVE",
"405 230 CURVE SMOOTH",
"405 77 OFFCURVE",
"361 16 OFFCURVE",
"215 16 CURVE SMOOTH",
"104 16 OFFCURVE",
"57 64 OFFCURVE",
"57 177 CURVE SMOOTH",
"57 204 OFFCURVE",
"78 215 OFFCURVE",
"95 215 CURVE",
"405 215 LINE SMOOTH",
"421 215 OFFCURVE",
"425 224 OFFCURVE",
"425 235 CURVE",
"94 235 LINE",
"53 235 OFFCURVE",
"32 217 OFFCURVE",
"32 183 CURVE SMOOTH",
"32 52 OFFCURVE",
"85 -6 OFFCURVE",
"215 -6 CURVE SMOOTH",
"388 -6 OFFCURVE",
"431 71 OFFCURVE",
"431 230 CURVE SMOOTH",
"431 427 OFFCURVE",
"372 469 OFFCURVE",
"215 469 CURVE SMOOTH"
);
}
);
width = 475;
}
);
unicode = 018F;
},
{
glyphname = T;
lastChange = "2021-09-24 03:41:18 +0000";
layers = (
{
anchors = (
{
name = bottom;
position = "{326, 0}";
},
{
name = center;
position = "{326, 230}";
},
{
name = top;
position = "{326, 460}";
}
);
background = {
anchors = (
{
name = bottom;
position = "{326, 0}";
},
{
name = center;
position = "{326, 230}";
},
{
name = top;
position = "{326, 460}";
}
);
paths = (
{
closed = 1;
nodes = (
"15 342 LINE",
"213 342 LINE",
"213 0 LINE",
"367 0 LINE SMOOTH",
"430 0 OFFCURVE",
"441 13 OFFCURVE",
"441 70 CURVE SMOOTH",
"441 342 LINE",
"637 342 LINE",
"637 460 LINE",
"15 460 LINE"
);
}
);
};
layerId = "C7668D88-AC50-4107-9C4B-DB5D26A8FA6C";
paths = (
{
closed = 1;
nodes = (
"15 342 LINE",
"213 342 LINE",
"213 0 LINE",
"367 0 LINE SMOOTH",
"430 0 OFFCURVE",
"441 13 OFFCURVE",
"441 70 CURVE SMOOTH",
"441 342 LINE",
"637 342 LINE",
"637 460 LINE",
"15 460 LINE"
);
}
);
width = 652;
},
{
anchors = (
{
name = bottom;
position = "{223, 0}";
},
{
name = center;
position = "{223, 230}";
},
{
name = top;
position = "{223, 460}";
}
);
layerId = "B5FD97B6-BD2C-4287-9857-851C623D3F63";
paths = (
{
closed = 1;
nodes = (
"25 441 LINE",
"211 441 LINE",
"211 0 LINE",
"224 0 LINE SMOOTH",
"235 0 OFFCURVE",
"235 7 OFFCURVE",
"235 20 CURVE SMOOTH",
"235 441 LINE",
"422 441 LINE",
"422 460 LINE",
"25 460 LINE"
);
}
);
width = 446;
}
);
leftKerningGroup = T;
note = T;
rightKerningGroup = T;
unicode = 0054;
},
{
glyphname = Tbar;
lastChange = "2021-09-24 03:41:18 +0000";
layers = (
{
background = {
paths = (
{
closed = 1;
nodes = (
"99 206 LINE",
"213 206 LINE",
"213 0 LINE",
"367 0 LINE SMOOTH",
"430 0 OFFCURVE",
"441 13 OFFCURVE",
"441 70 CURVE SMOOTH",
"441 206 LINE",
"561 206 LINE",
"561 266 LINE",
"441 266 LINE",
"441 342 LINE",
"637 342 LINE",
"637 460 LINE",
"15 460 LINE",
"15 342 LINE",
"213 342 LINE",
"213 266 LINE",
"99 266 LINE"
);
}
);
};
layerId = "C7668D88-AC50-4107-9C4B-DB5D26A8FA6C";
paths = (
{
closed = 1;
nodes = (
"99 206 LINE",
"213 206 LINE",
"213 0 LINE",
"367 0 LINE SMOOTH",
"430 0 OFFCURVE",
"441 13 OFFCURVE",
"441 70 CURVE SMOOTH",
"441 206 LINE",
"561 206 LINE",
"561 266 LINE",
"441 266 LINE",
"441 342 LINE",
"637 342 LINE",
"637 460 LINE",
"15 460 LINE",
"15 342 LINE",
"213 342 LINE",
"213 266 LINE",
"99 266 LINE"
);
}
);
width = 652;
},
{
layerId = "B5FD97B6-BD2C-4287-9857-851C623D3F63";
paths = (
{
closed = 1;
nodes = (
"75 298 LINE",
"206 298 LINE",
"206 0 LINE",
"219 0 LINE SMOOTH",
"230 0 OFFCURVE",
"231 7 OFFCURVE",
"231 20 CURVE SMOOTH",
"231 298 LINE",
"364 298 LINE",
"364 307 LINE",
"231 307 LINE",
"231 441 LINE",
"417 441 LINE",
"417 460 LINE",
"20 460 LINE",
"20 441 LINE",
"206 441 LINE",
"206 307 LINE",
"75 307 LINE"
);
}
);
width = 437;
}
);
leftKerningGroup = T;
note = Tbar;
rightKerningGroup = T;
unicode = 0166;
},
{
glyphname = U;
lastChange = "2021-09-30 21:05:41 +0000";
layers = (
{
anchors = (
{
name = bottom;
position = "{342, 0}";
},
{
name = ogonek;
position = "{405, 10}";
},
{
name = top;
position = "{342, 460}";
},
{
name = topright;
position = "{546, 460}";
}
);
background = {
anchors = (
{
name = bottom;
position = "{342, 0}";
},
{
name = ogonek;
position = "{405, 10}";
},
{
name = top;
position = "{342, 460}";
},
{
name = topright;
position = "{546, 460}";
}
);
paths = (
{
closed = 1;
nodes = (
"654 362 LINE SMOOTH",
"654 443 OFFCURVE",
"656 460 OFFCURVE",
"569 460 CURVE SMOOTH",
"426 460 LINE",
"426 203 LINE SMOOTH",
"426 139 OFFCURVE",
"405 120 OFFCURVE",
"341 120 CURVE SMOOTH",
"282 120 OFFCURVE",
"258 125 OFFCURVE",
"258 205 CURVE SMOOTH",
"258 460 LINE",
"113 460 LINE SMOOTH",
"26 460 OFFCURVE",
"30 443 OFFCURVE",
"30 362 CURVE SMOOTH",
"30 236 LINE SMOOTH",
"30 66 OFFCURVE",
"32 -2 OFFCURVE",
"340 -2 CURVE SMOOTH",
"635 -2 OFFCURVE",
"654 63 OFFCURVE",
"654 250 CURVE SMOOTH"
);
}
);
};
layerId = "C7668D88-AC50-4107-9C4B-DB5D26A8FA6C";
paths = (
{
closed = 1;
nodes = (
"654 362 LINE SMOOTH",
"654 443 OFFCURVE",
"656 460 OFFCURVE",
"569 460 CURVE SMOOTH",
"426 460 LINE",
"426 203 LINE SMOOTH",
"426 139 OFFCURVE",
"405 120 OFFCURVE",
"341 120 CURVE SMOOTH",
"282 120 OFFCURVE",
"258 125 OFFCURVE",
"258 205 CURVE SMOOTH",
"258 460 LINE",
"113 460 LINE SMOOTH",
"26 460 OFFCURVE",
"30 443 OFFCURVE",
"30 362 CURVE SMOOTH",
"30 236 LINE SMOOTH",
"30 66 OFFCURVE",
"32 -2 OFFCURVE",
"340 -2 CURVE SMOOTH",
"635 -2 OFFCURVE",
"654 63 OFFCURVE",
"654 250 CURVE SMOOTH"
);
}
);
width = 684;
},
{
anchors = (
{
name = bottom;
position = "{277, 0}";
},
{
name = ogonek;
position = "{328, 10}";
},
{
name = top;
position = "{277, 460}";
},
{
name = topright;
position = "{443, 460}";
}
);
layerId = "B5FD97B6-BD2C-4287-9857-851C623D3F63";
paths = (
{
closed = 1;
nodes = (
"467 440 LINE SMOOTH",
"467 456 OFFCURVE",
"466 460 OFFCURVE",
"454 460 CURVE SMOOTH",
"443 460 LINE",
"443 141 LINE SMOOTH",
"443 53 OFFCURVE",
"393 16 OFFCURVE",
"275 16 CURVE SMOOTH",
"158 16 OFFCURVE",
"112 48 OFFCURVE",
"112 140 CURVE SMOOTH",
"112 460 LINE",
"100 460 LINE SMOOTH",
"89 460 OFFCURVE",
"88 456 OFFCURVE",
"88 440 CURVE SMOOTH",
"88 176 LINE SMOOTH",
"88 89 OFFCURVE",
"88 -3 OFFCURVE",
"275 -3 CURVE SMOOTH",
"469 -3 OFFCURVE",
"467 89 OFFCURVE",
"467 178 CURVE SMOOTH"
);
}
);
width = 555;
}
);
leftKerningGroup = U;
leftMetricsKey = "=H-10";
note = U;
rightKerningGroup = U;
rightMetricsKey = "=H-10";
unicode = 0055;
},
{
glyphname = V;
lastChange = "2021-09-30 21:04:46 +0000";
layers = (
{
anchors = (
{
name = bottom;
position = "{336, 0}";
},
{
name = top;
position = "{336, 460}";
}
);
background = {
anchors = (
{
name = bottom;
position = "{336, 0}";
},
{
name = top;
position = "{336, 460}";
}
);
paths = (
{
closed = 1;
nodes = (
"521 153 OFFCURVE",
"593 307 OFFCURVE",
"666 460 CURVE",
"609 460 OFFCURVE",
"550 460 OFFCURVE",
"493 460 CURVE",
"455 381 OFFCURVE",
"417 302 OFFCURVE",
"379 223 CURVE",
"378 217 OFFCURVE",
"377 211 OFFCURVE",
"376 205 CURVE",
"375 205 OFFCURVE",
"376 205 OFFCURVE",
"375 205 CURVE",
"374 211 OFFCURVE",
"374 217 OFFCURVE",
"373 223 CURVE",
"336 302 OFFCURVE",
"299 381 OFFCURVE",
"262 460 CURVE",
"176 460 OFFCURVE",
"91 460 OFFCURVE",
"5 460 CURVE",
"66 331 OFFCURVE",
"128 203 OFFCURVE",
"189 74 CURVE",
"225 6 OFFCURVE",
"250 0 OFFCURVE",
"312 0 CURVE",
"357 0 OFFCURVE",
"403 0 OFFCURVE",
"448 0 CURVE"
);
},
{
closed = 1;
nodes = (
"521 153 OFFCURVE",
"593 307 OFFCURVE",
"666 460 CURVE",
"609 460 OFFCURVE",
"550 460 OFFCURVE",
"493 460 CURVE",
"455 381 OFFCURVE",
"417 302 OFFCURVE",
"379 223 CURVE",
"378 217 OFFCURVE",
"377 211 OFFCURVE",
"376 205 CURVE",
"375 205 OFFCURVE",
"376 205 OFFCURVE",
"375 205 CURVE",
"374 211 OFFCURVE",
"374 217 OFFCURVE",
"373 223 CURVE",
"336 302 OFFCURVE",
"299 381 OFFCURVE",
"262 460 CURVE",
"176 460 OFFCURVE",
"91 460 OFFCURVE",
"5 460 CURVE",
"66 331 OFFCURVE",
"128 203 OFFCURVE",
"189 74 CURVE",
"225 6 OFFCURVE",
"250 0 OFFCURVE",
"312 0 CURVE",
"357 0 OFFCURVE",
"403 0 OFFCURVE",
"448 0 CURVE"
);
}
);
};
layerId = "C7668D88-AC50-4107-9C4B-DB5D26A8FA6C";
paths = (
{
closed = 1;
nodes = (
"448 0 LINE",
"521 153 OFFCURVE",
"593 307 OFFCURVE",
"666 460 CURVE",
"493 460 LINE",
"440 344 OFFCURVE",
"401 254 OFFCURVE",
"379 203 CURVE",
"376 203 OFFCURVE",
"373 205 OFFCURVE",
"372 208 CURVE SMOOTH",
"369 214 OFFCURVE",
"360 238 OFFCURVE",
"353 255 CURVE SMOOTH",
"318 336 OFFCURVE",
"299 381 OFFCURVE",
"262 460 CURVE",
"176 460 OFFCURVE",
"91 460 OFFCURVE",
"5 460 CURVE",
"66 331 OFFCURVE",
"128 203 OFFCURVE",
"189 74 CURVE SMOOTH",
"225 6 OFFCURVE",
"250 0 OFFCURVE",
"312 0 CURVE"
);
}
);
width = 664;
},
{
anchors = (
{
name = bottom;
position = "{231, 0}";
},
{
name = top;
position = "{231, 460}";
}
);
background = {
paths = (
{
closed = 1;
nodes = (
"308 153 OFFCURVE",
"352 307 OFFCURVE",
"400 460 CURVE",
"393 460 OFFCURVE",
"386 460 OFFCURVE",
"379 460 CURVE",
"336 313 OFFCURVE",
"292 161 OFFCURVE",
"250 28 CURVE",
"250 28 OFFCURVE",
"247 19 OFFCURVE",
"247 19 CURVE",
"238 19 OFFCURVE",
"230 19 OFFCURVE",
"222 20 CURVE SMOOTH",
"208 22 OFFCURVE",
"182 23 OFFCURVE",
"168 67 CURVE SMOOTH",
"127 198 OFFCURVE",
"90 329 OFFCURVE",
"51 460 CURVE",
"42 460 OFFCURVE",
"32 460 OFFCURVE",
"24 460 CURVE",
"62 335 OFFCURVE",
"103 204 OFFCURVE",
"141 75 CURVE SMOOTH",
"148 54 OFFCURVE",
"163 1 OFFCURVE",
"223 0 CURVE SMOOTH",
"241 0 OFFCURVE",
"253 0 OFFCURVE",
"261 0 CURVE"
);
}
);
};
layerId = "B5FD97B6-BD2C-4287-9857-851C623D3F63";
paths = (
{
closed = 1;
nodes = (
"261 0 LINE",
"308 153 OFFCURVE",
"352 307 OFFCURVE",
"400 460 CURVE",
"376 460 LINE",
"301 202 OFFCURVE",
"278 125 OFFCURVE",
"244 19 CURVE",
"236 19 OFFCURVE",
"229 19 OFFCURVE",
"222 20 CURVE SMOOTH",
"208 22 OFFCURVE",
"182 23 OFFCURVE",
"168 67 CURVE SMOOTH",
"127 198 OFFCURVE",
"90 329 OFFCURVE",
"51 460 CURVE",
"42 460 OFFCURVE",
"32 460 OFFCURVE",
"24 460 CURVE",
"62 335 OFFCURVE",
"103 204 OFFCURVE",
"141 75 CURVE SMOOTH",
"148 54 OFFCURVE",
"163 1 OFFCURVE",
"223 0 CURVE"
);
}
);
width = 433;
}
);
leftKerningGroup = V;
note = V;
rightKerningGroup = V;
unicode = 0056;
},
{
glyphname = W;
lastChange = "2021-09-29 01:14:55 +0000";
layers = (
{
anchors = (
{
name = bottom;
position = "{455, 0}";
},
{
name = top;
position = "{468, 460}";
}
);
background = {
anchors = (
{
name = bottom;
position = "{455, 0}";
},
{
name = top;
position = "{468, 460}";
}
);
paths = (
{
closed = 1;
nodes = (
"86 82 LINE SMOOTH",
"103 4 OFFCURVE",
"144 0 OFFCURVE",
"201 0 CURVE SMOOTH",
"385 0 LINE",
"446 179 LINE",
"448 197 LINE",
"451 197 LINE",
"454 179 LINE",
"514 0 LINE",
"654 0 LINE SMOOTH",
"710 0 OFFCURVE",
"755 10 OFFCURVE",
"771 82 CURVE SMOOTH",
"857 460 LINE",
"802 460 OFFCURVE",
"747 460 OFFCURVE",
"692 460 CURVE",
"649 259 LINE",
"648 249 OFFCURVE",
"647 240 OFFCURVE",
"646 230 CURVE",
"642 269 LINE",
"578 460 LINE",
"353 460 LINE",
"290 269 LINE",
"286 230 LINE",
"285 240 OFFCURVE",
"284 249 OFFCURVE",
"283 259 CURVE",
"244 460 LINE",
"5 460 LINE"
);
},
{
closed = 1;
nodes = (
"219 210 OFFCURVE",
"270 261 OFFCURVE",
"270 324 CURVE SMOOTH",
"270 387 OFFCURVE",
"219 438 OFFCURVE",
"156 438 CURVE SMOOTH",
"93 438 OFFCURVE",
"42 387 OFFCURVE",
"42 324 CURVE SMOOTH",
"42 261 OFFCURVE",
"93 210 OFFCURVE",
"156 210 CURVE SMOOTH"
);
}
);
};
layerId = "C7668D88-AC50-4107-9C4B-DB5D26A8FA6C";
paths = (
{
closed = 1;
nodes = (
"385 0 LINE",
"439 160 LINE",
"450 197 LINE",
"459 160 LINE",
"514 0 LINE",
"654 0 LINE SMOOTH",
"733 0 OFFCURVE",
"760 32 OFFCURVE",
"771 82 CURVE SMOOTH",
"857 460 LINE",
"692 460 LINE",
"650 266 LINE",
"648 256 OFFCURVE",
"646 240 OFFCURVE",
"644 230 CURVE",
"638 269 LINE",
"578 460 LINE",
"353 460 LINE",
"290 269 LINE",
"283 230 LINE",
"281 242 OFFCURVE",
"279 254 OFFCURVE",
"277 266 CURVE",
"239 460 LINE",
"5 460 LINE",
"86 82 LINE SMOOTH",
"97 29 OFFCURVE",
"120 0 OFFCURVE",
"201 0 CURVE SMOOTH"
);
}
);
width = 862;
},
{
anchors = (
{
name = bottom;
position = "{323, 0}";
},
{
name = top;
position = "{323, 460}";
}
);
layerId = "B5FD97B6-BD2C-4287-9857-851C623D3F63";
paths = (
{
closed = 1;
nodes = (
"232 0 LINE",
"314 392 LINE",
"321 420 LINE",
"327 393 LINE",
"412 0 LINE",
"448 0 LINE SMOOTH",
"505 0 OFFCURVE",
"532 -2 OFFCURVE",
"542 75 CURVE SMOOTH",
"592 460 LINE",
"569 460 LINE",
"518 59 LINE SMOOTH",
"514 31 OFFCURVE",
"498 21 OFFCURVE",
"469 21 CURVE SMOOTH",
"429 21 LINE",
"334 460 LINE",
"308 460 LINE",
"215 21 LINE",
"178 21 LINE SMOOTH",
"139 21 OFFCURVE",
"130 32 OFFCURVE",
"124 76 CURVE SMOOTH",
"75 460 LINE",
"50 460 LINE",
"100 81 LINE SMOOTH",
"111 -1 OFFCURVE",
"131 0 OFFCURVE",
"188 0 CURVE SMOOTH"
);
}
);
width = 655;
}
);
leftKerningGroup = W;
note = W;
rightKerningGroup = W;
unicode = 0057;
},
{
glyphname = X;
lastChange = "2021-09-24 03:41:18 +0000";
layers = (
{
anchors = (
{
name = bottom;
position = "{344, 0}";
},
{
name = top;
position = "{344, 460}";
}
);
background = {
anchors = (
{
name = bottom;
position = "{344, 0}";
},
{
name = top;
position = "{344, 460}";
}
);
paths = (
{
closed = 1;
nodes = (
"-1 460 LINE",
"4 458 OFFCURVE",
"13 448 OFFCURVE",
"17 443 CURVE SMOOTH",
"208 218 LINE",
"72 81 LINE",
"59 65 OFFCURVE",
"14 21 OFFCURVE",
"-15 1 CURVE",
"117 0 LINE SMOOTH",
"177 0 OFFCURVE",
"208 6 OFFCURVE",
"249 48 CURVE SMOOTH",
"304 104 LINE",
"342 60 LINE SMOOTH",
"389 3 OFFCURVE",
"425 0 OFFCURVE",
"485 0 CURVE SMOOTH",
"702 0 LINE",
"682 5 OFFCURVE",
"638 65 OFFCURVE",
"638 65 CURVE",
"570 143 OFFCURVE",
"512 211 OFFCURVE",
"464 267 CURVE",
"571 377 OFFCURVE",
"613 418 OFFCURVE",
"653 460 CURVE",
"449 460 LINE",
"369 379 LINE",
"332 422 OFFCURVE",
"309 450 OFFCURVE",
"301 460 CURVE"
);
},
{
closed = 1;
nodes = (
"-1 460 LINE",
"4 458 OFFCURVE",
"13 448 OFFCURVE",
"17 443 CURVE SMOOTH",
"208 218 LINE",
"72 81 LINE SMOOTH",
"48 57 OFFCURVE",
"14 21 OFFCURVE",
"-15 1 CURVE",
"117 0 LINE SMOOTH",
"177 0 OFFCURVE",
"208 6 OFFCURVE",
"249 48 CURVE SMOOTH",
"304 104 LINE",
"342 60 LINE SMOOTH",
"390 4 OFFCURVE",
"425 0 OFFCURVE",
"485 0 CURVE SMOOTH",
"702 0 LINE",
"682 11 OFFCURVE",
"662 35 OFFCURVE",
"638 65 CURVE SMOOTH",
"573 146 OFFCURVE",
"512 211 OFFCURVE",
"464 267 CURVE",
"571 377 OFFCURVE",
"613 418 OFFCURVE",
"653 460 CURVE",
"449 460 LINE",
"369 379 LINE",
"332 422 OFFCURVE",
"309 450 OFFCURVE",
"301 460 CURVE"
);
}
);
};
layerId = "C7668D88-AC50-4107-9C4B-DB5D26A8FA6C";
paths = (
{
closed = 1;
nodes = (
"702 0 LINE",
"682 11 OFFCURVE",
"664 36 OFFCURVE",
"638 65 CURVE SMOOTH",
"408 320 LINE",
"301 460 LINE",
"1 460 LINE",
"249 172 LINE",
"342 60 LINE SMOOTH",
"388 4 OFFCURVE",
"425 0 OFFCURVE",
"485 0 CURVE SMOOTH"
);
},
{
closed = 1;
nodes = (
"188 -1 OFFCURVE",
"217 14 OFFCURVE",
"249 48 CURVE SMOOTH",
"389 196 LINE",
"653 460 LINE",
"449 460 LINE",
"272 283 LINE",
"72 81 LINE SMOOTH",
"48 57 OFFCURVE",
"14 21 OFFCURVE",
"-15 1 CURVE",
"117 0 LINE SMOOTH"
);
}
);
width = 689;
},
{
anchors = (
{
name = bottom;
position = "{217, 0}";
},
{
name = top;
position = "{217, 460}";
}
);
layerId = "B5FD97B6-BD2C-4287-9857-851C623D3F63";
paths = (
{
closed = 1;
nodes = (
"406 0 LINE",
"399 9 OFFCURVE",
"393 17 OFFCURVE",
"379 36 CURVE SMOOTH",
"217 243 LINE",
"54 461 LINE",
"24 461 LINE",
"203 222 LINE",
"367 11 LINE SMOOTH",
"372 5 OFFCURVE",
"380 0 OFFCURVE",
"388 0 CURVE SMOOTH"
);
},
{
closed = 1;
nodes = (
"42 0 OFFCURVE",
"50 5 OFFCURVE",
"54 11 CURVE SMOOTH",
"220 223 LINE",
"405 461 LINE",
"379 461 LINE",
"204 237 LINE",
"41 27 LINE SMOOTH",
"33 18 OFFCURVE",
"27 9 OFFCURVE",
"19 0 CURVE",
"34 0 LINE SMOOTH"
);
}
);
width = 433;
}
);
leftKerningGroup = X;
note = X;
rightKerningGroup = X;
unicode = 0058;
},
{
glyphname = Y;
lastChange = "2021-09-28 21:29:13 +0000";
layers = (
{
anchors = (
{
name = bottom;
position = "{343, 0}";
},
{
name = top;
position = "{405, 460}";
},
{
name = topleft;
position = "{5, 460}";
}
);
background = {
anchors = (
{
name = bottom;
position = "{343, 0}";
},
{
name = top;
position = "{405, 460}";
},
{
name = topleft;
position = "{5, 460}";
}
);
hints = (
{
horizontal = 1;
place = "{0, 21}";
target = up;
type = BottomGhost;
},
{
place = "{245, 228}";
type = Stem;
}
);
paths = (
{
closed = 1;
nodes = (
"359 0 LINE SMOOTH",
"437 0 OFFCURVE",
"459 10 OFFCURVE",
"458 78 CURVE SMOOTH",
"457 180 LINE",
"662 431 LINE",
"692 460 LINE",
"487 460 LINE",
"405 330 LINE",
"310 460 LINE",
"-8 460 LINE",
"14 435 LINE",
"230 180 LINE",
"230 0 LINE"
);
}
);
};
layerId = "C7668D88-AC50-4107-9C4B-DB5D26A8FA6C";
paths = (
{
closed = 1;
nodes = (
"359 0 LINE SMOOTH",
"437 0 OFFCURVE",
"459 10 OFFCURVE",
"458 78 CURVE SMOOTH",
"457 180 LINE",
"662 431 LINE",
"692 460 LINE",
"487 460 LINE",
"405 330 LINE",
"310 460 LINE",
"-8 460 LINE",
"14 435 LINE",
"230 180 LINE",
"230 0 LINE"
);
}
);
width = 678;
},
{
anchors = (
{
name = bottom;
position = "{210, 0}";
},
{
name = top;
position = "{211, 460}";
},
{
name = topleft;
position = "{16, 460}";
}
);
background = {
paths = (
{
closed = 1;
nodes = (
"200 0 LINE SMOOTH",
"212 0 OFFCURVE",
"212 7 OFFCURVE",
"212 20 CURVE SMOOTH",
"212 190 LINE",
"368 433 LINE",
"387 460 LINE",
"364 460 LINE",
"203 212 LINE",
"48 460 LINE",
"19 460 LINE",
"36 435 LINE",
"188 190 LINE",
"188 0 LINE"
);
}
);
};
layerId = "B5FD97B6-BD2C-4287-9857-851C623D3F63";
paths = (
{
closed = 1;
nodes = (
"200 0 LINE SMOOTH",
"212 0 OFFCURVE",
"212 7 OFFCURVE",
"212 20 CURVE SMOOTH",
"212 190 LINE",
"368 433 LINE",
"387 460 LINE",
"364 460 LINE",
"201 210 LINE",
"46 460 LINE",
"19 460 LINE",
"36 435 LINE",
"188 190 LINE",
"188 0 LINE"
);
}
);
width = 406;
}
);
leftKerningGroup = Y;
note = Y;
rightKerningGroup = Y;
unicode = 0059;
},
{
glyphname = Z;
lastChange = "2021-09-24 03:41:18 +0000";
layers = (
{
anchors = (
{
name = bottom;
position = "{315, 0}";
},
{
name = center;
position = "{315, 230}";
},
{
name = top;
position = "{315, 460}";
}
);
background = {
anchors = (
{
name = bottom;
position = "{315, 0}";
},
{
name = center;
position = "{315, 230}";
},
{
name = top;
position = "{315, 460}";
}
);
hints = (
{
horizontal = 1;
place = "{0, 118}";
type = Stem;
},
{
horizontal = 1;
place = "{342, 118}";
type = Stem;
},
{
place = "{10, 610}";
type = Stem;
}
);
paths = (
{
closed = 1;
nodes = (
"345 122 LINE",
"528 274 LINE SMOOTH",
"615 346 OFFCURVE",
"609 456 OFFCURVE",
"609 460 CURVE",
"93 460 LINE SMOOTH",
"20 460 OFFCURVE",
"23 433 OFFCURVE",
"23 342 CURVE",
"289 342 LINE",
"285 341 OFFCURVE",
"273 339 OFFCURVE",
"270 338 CURVE",
"200 286 OFFCURVE",
"16 125 OFFCURVE",
"10 118 CURVE",
"10 0 LINE",
"528 0 LINE SMOOTH",
"620 0 OFFCURVE",
"620 5 OFFCURVE",
"620 118 CURVE",
"326 118 LINE"
);
}
);
};
layerId = "C7668D88-AC50-4107-9C4B-DB5D26A8FA6C";
paths = (
{
closed = 1;
nodes = (
"345 122 LINE",
"528 274 LINE SMOOTH",
"615 346 OFFCURVE",
"609 456 OFFCURVE",
"609 460 CURVE",
"93 460 LINE SMOOTH",
"20 460 OFFCURVE",
"23 433 OFFCURVE",
"23 342 CURVE",
"289 342 LINE",
"285 341 OFFCURVE",
"273 339 OFFCURVE",
"270 338 CURVE",
"200 286 OFFCURVE",
"16 125 OFFCURVE",
"10 118 CURVE",
"10 0 LINE",
"528 0 LINE SMOOTH",
"620 0 OFFCURVE",
"620 5 OFFCURVE",
"620 118 CURVE",
"326 118 LINE"
);
}
);
width = 630;
},
{
anchors = (
{
name = bottom;
position = "{212, 0}";
},
{
name = center;
position = "{212, 230}";
},
{
name = top;
position = "{212, 460}";
}
);
layerId = "B5FD97B6-BD2C-4287-9857-851C623D3F63";
paths = (
{
closed = 1;
nodes = (
"59 27 LINE",
"381 415 LINE SMOOTH",
"398 434 OFFCURVE",
"398 456 OFFCURVE",
"398 460 CURVE",
"59 460 LINE SMOOTH",
"43 460 OFFCURVE",
"43 452 OFFCURVE",
"43 441 CURVE",
"371 441 LINE",
"367 436 OFFCURVE",
"355 420 OFFCURVE",
"338 400 CURVE SMOOTH",
"249 292 OFFCURVE",
"24 23 OFFCURVE",
"24 23 CURVE",
"24 0 LINE",
"376 0 LINE SMOOTH",
"399 0 OFFCURVE",
"402 2 OFFCURVE",
"402 19 CURVE",
"52 19 LINE"
);
}
);
width = 426;
}
);
leftKerningGroup = Z;
note = Z;
rightKerningGroup = Z;
unicode = 005A;
},
{
glyphname = A.ss01;
lastChange = "2021-09-24 03:41:18 +0000";
layers = (
{
background = {
hints = (
{
horizontal = 1;
place = "{1, 123}";
type = Stem;
},
{
horizontal = 1;
place = "{184, 94}";
type = Stem;
},
{
horizontal = 1;
place = "{332, 130}";
type = Stem;
},
{
place = "{64, 601}";
type = Stem;
},
{
place = "{64, 238}";
type = Stem;
},
{
place = "{428, 237}";
type = Stem;
}
);
paths = (
{
closed = 1;
nodes = (
"355 250 OFFCURVE",
"355 278 OFFCURVE",
"278 278 CURVE SMOOTH",
"250 278 OFFCURVE",
"177 278 OFFCURVE",
"151 278 CURVE SMOOTH",
"57 278 OFFCURVE",
"30 245 OFFCURVE",
"30 129 CURVE SMOOTH",
"30 32 OFFCURVE",
"72 6 OFFCURVE",
"140 1 CURVE SMOOTH",
"275 -9 OFFCURVE",
"598 -5 OFFCURVE",
"624 23 CURVE",
"624 23 OFFCURVE",
"625 66 OFFCURVE",
"625 248 CURVE SMOOTH",
"625 403 OFFCURVE",
"577 450 OFFCURVE",
"463 461 CURVE SMOOTH",
"383 469 OFFCURVE",
"178 471 OFFCURVE",
"111 458 CURVE SMOOTH",
"72 451 OFFCURVE",
"57 427 OFFCURVE",
"57 379 CURVE SMOOTH",
"57 335 LINE",
"138 335 OFFCURVE",
"219 335 OFFCURVE",
"300 335 CURVE SMOOTH",
"381 335 OFFCURVE",
"394 313 OFFCURVE",
"394 257 CURVE",
"394 237 OFFCURVE",
"393 192 OFFCURVE",
"393 127 CURVE",
"376 125 OFFCURVE",
"305 124 OFFCURVE",
"295 124 CURVE SMOOTH",
"278 124 OFFCURVE",
"268 137 OFFCURVE",
"268 154 CURVE SMOOTH",
"268 181 OFFCURVE",
"288 185 OFFCURVE",
"305 185 CURVE SMOOTH",
"313 185 OFFCURVE",
"334 185 OFFCURVE",
"355 185 CURVE"
);
}
);
};
layerId = "C7668D88-AC50-4107-9C4B-DB5D26A8FA6C";
paths = (
{
closed = 1;
nodes = (
"355 250 OFFCURVE",
"355 278 OFFCURVE",
"278 278 CURVE SMOOTH",
"250 278 OFFCURVE",
"177 278 OFFCURVE",
"151 278 CURVE SMOOTH",
"57 278 OFFCURVE",
"30 245 OFFCURVE",
"30 129 CURVE SMOOTH",
"30 32 OFFCURVE",
"72 6 OFFCURVE",
"140 1 CURVE SMOOTH",
"275 -9 OFFCURVE",
"598 -5 OFFCURVE",
"624 23 CURVE",
"624 23 OFFCURVE",
"625 66 OFFCURVE",
"625 248 CURVE SMOOTH",
"625 403 OFFCURVE",
"577 450 OFFCURVE",
"463 461 CURVE SMOOTH",
"383 469 OFFCURVE",
"178 471 OFFCURVE",
"111 458 CURVE SMOOTH",
"72 451 OFFCURVE",
"57 427 OFFCURVE",
"57 379 CURVE SMOOTH",
"57 335 LINE",
"138 335 OFFCURVE",
"219 335 OFFCURVE",
"300 335 CURVE SMOOTH",
"381 335 OFFCURVE",
"394 313 OFFCURVE",
"394 257 CURVE",
"394 237 OFFCURVE",
"393 192 OFFCURVE",
"393 127 CURVE",
"376 125 OFFCURVE",
"305 124 OFFCURVE",
"295 124 CURVE SMOOTH",
"278 124 OFFCURVE",
"268 137 OFFCURVE",
"268 154 CURVE SMOOTH",
"268 181 OFFCURVE",
"288 185 OFFCURVE",
"305 185 CURVE SMOOTH",
"313 185 OFFCURVE",
"334 185 OFFCURVE",
"355 185 CURVE"
);
}
);
width = 655;
},
{
layerId = "B5FD97B6-BD2C-4287-9857-851C623D3F63";
paths = (
{
closed = 1;
nodes = (
"370 258 OFFCURVE",
"372 272 OFFCURVE",
"356 275 CURVE",
"317 281 OFFCURVE",
"251 284 OFFCURVE",
"197 284 CURVE SMOOTH",
"75 284 OFFCURVE",
"38 256 OFFCURVE",
"38 137 CURVE SMOOTH",
"38 32 OFFCURVE",
"69 -9 OFFCURVE",
"224 -9 CURVE SMOOTH",
"334 -9 OFFCURVE",
"428 -6 OFFCURVE",
"429 41 CURVE",
"429 79 OFFCURVE",
"428 132 OFFCURVE",
"428 287 CURVE SMOOTH",
"428 454 OFFCURVE",
"352 469 OFFCURVE",
"231 469 CURVE SMOOTH",
"185 469 OFFCURVE",
"129 464 OFFCURVE",
"102 457 CURVE SMOOTH",
"85 452 OFFCURVE",
"58 446 OFFCURVE",
"58 420 CURVE SMOOTH",
"58 411 LINE",
"78 439 OFFCURVE",
"180 450 OFFCURVE",
"232 450 CURVE SMOOTH",
"369 450 OFFCURVE",
"405 415 OFFCURVE",
"402 245 CURVE SMOOTH",
"402 235 OFFCURVE",
"403 85 OFFCURVE",
"403 50 CURVE",
"402 29 OFFCURVE",
"359 12 OFFCURVE",
"226 12 CURVE SMOOTH",
"81 12 OFFCURVE",
"62 52 OFFCURVE",
"62 138 CURVE SMOOTH",
"62 257 OFFCURVE",
"109 262 OFFCURVE",
"211 262 CURVE SMOOTH",
"271 262 OFFCURVE",
"342 258 OFFCURVE",
"370 251 CURVE"
);
}
);
width = 473;
}
);
note = A.1;
},
{
glyphname = C.ss01;
lastChange = "2021-09-24 03:41:18 +0000";
layers = (
{
background = {
paths = (
{
closed = 1;
nodes = (
"139 465 OFFCURVE",
"21 429 OFFCURVE",
"21 224 CURVE SMOOTH",
"21 12 OFFCURVE",
"113 -9 OFFCURVE",
"351 -9 CURVE SMOOTH",
"496 -9 OFFCURVE",
"650 -6 OFFCURVE",
"650 114 CURVE SMOOTH",
"650 137 OFFCURVE",
"650 159 OFFCURVE",
"650 182 CURVE",
"452 182 LINE",
"452 177 OFFCURVE",
"452 173 OFFCURVE",
"452 168 CURVE SMOOTH",
"451 154 OFFCURVE",
"450 143 OFFCURVE",
"446 133 CURVE SMOOTH",
"434 97 OFFCURVE",
"392 88 OFFCURVE",
"354 88 CURVE SMOOTH",
"298 88 OFFCURVE",
"267 109 OFFCURVE",
"258 162 CURVE SMOOTH",
"254 185 OFFCURVE",
"252 208 OFFCURVE",
"252 232 CURVE SMOOTH",
"252 264 OFFCURVE",
"256 295 OFFCURVE",
"264 322 CURVE SMOOTH",
"274 360 OFFCURVE",
"318 372 OFFCURVE",
"355 372 CURVE SMOOTH",
"406 372 OFFCURVE",
"439 358 OFFCURVE",
"447 325 CURVE SMOOTH",
"450 313 OFFCURVE",
"452 298 OFFCURVE",
"452 280 CURVE",
"645 281 LINE",
"645 296 OFFCURVE",
"645 311 OFFCURVE",
"645 326 CURVE SMOOTH",
"645 449 OFFCURVE",
"536 465 OFFCURVE",
"364 465 CURVE SMOOTH"
);
}
);
};
layerId = "C7668D88-AC50-4107-9C4B-DB5D26A8FA6C";
paths = (
{
closed = 1;
nodes = (
"139 465 OFFCURVE",
"21 429 OFFCURVE",
"21 224 CURVE SMOOTH",
"21 12 OFFCURVE",
"113 -9 OFFCURVE",
"351 -9 CURVE SMOOTH",
"496 -9 OFFCURVE",
"650 -6 OFFCURVE",
"650 114 CURVE SMOOTH",
"650 137 OFFCURVE",
"650 159 OFFCURVE",
"650 182 CURVE",
"452 182 LINE",
"452 177 OFFCURVE",
"452 173 OFFCURVE",
"452 168 CURVE SMOOTH",
"451 154 OFFCURVE",
"450 143 OFFCURVE",
"446 133 CURVE SMOOTH",
"434 97 OFFCURVE",
"392 88 OFFCURVE",
"354 88 CURVE SMOOTH",
"298 88 OFFCURVE",
"267 109 OFFCURVE",
"258 162 CURVE SMOOTH",
"254 185 OFFCURVE",
"252 208 OFFCURVE",
"252 232 CURVE SMOOTH",
"252 264 OFFCURVE",
"256 295 OFFCURVE",
"264 322 CURVE SMOOTH",
"274 360 OFFCURVE",
"318 372 OFFCURVE",
"355 372 CURVE SMOOTH",
"406 372 OFFCURVE",
"439 358 OFFCURVE",
"447 325 CURVE SMOOTH",
"450 313 OFFCURVE",
"452 298 OFFCURVE",
"452 280 CURVE",
"645 281 LINE",
"645 296 OFFCURVE",
"645 311 OFFCURVE",
"645 326 CURVE SMOOTH",
"645 449 OFFCURVE",
"536 465 OFFCURVE",
"364 465 CURVE SMOOTH"
);
}
);
width = 674;
},
{
layerId = "B5FD97B6-BD2C-4287-9857-851C623D3F63";
paths = (
{
closed = 1;
nodes = (
"91 464 OFFCURVE",
"50 362 OFFCURVE",
"50 223 CURVE SMOOTH",
"50 67 OFFCURVE",
"108 -7 OFFCURVE",
"267 -7 CURVE SMOOTH",
"378 -7 OFFCURVE",
"459 12 OFFCURVE",
"464 138 CURVE SMOOTH",
"464 143 OFFCURVE",
"464 147 OFFCURVE",
"464 152 CURVE",
"440 152 LINE",
"440 146 OFFCURVE",
"440 140 OFFCURVE",
"440 134 CURVE SMOOTH",
"437 84 OFFCURVE",
"423 54 OFFCURVE",
"397 36 CURVE SMOOTH",
"367 14 OFFCURVE",
"322 9 OFFCURVE",
"266 9 CURVE SMOOTH",
"203 9 OFFCURVE",
"159 26 OFFCURVE",
"131 55 CURVE SMOOTH",
"91 94 OFFCURVE",
"78 155 OFFCURVE",
"78 224 CURVE SMOOTH",
"78 292 OFFCURVE",
"89 350 OFFCURVE",
"117 389 CURVE SMOOTH",
"146 427 OFFCURVE",
"194 448 OFFCURVE",
"266 448 CURVE SMOOTH",
"320 448 OFFCURVE",
"363 444 OFFCURVE",
"392 425 CURVE SMOOTH",
"424 405 OFFCURVE",
"440 368 OFFCURVE",
"440 302 CURVE",
"464 302 LINE",
"464 308 OFFCURVE",
"464 314 OFFCURVE",
"464 320 CURVE SMOOTH",
"457 449 OFFCURVE",
"376 464 OFFCURVE",
"267 464 CURVE SMOOTH"
);
}
);
width = 495;
}
);
leftKerningGroup = G;
note = C.1;
},
{
glyphname = M.ss01;
lastChange = "2021-09-24 03:41:18 +0000";
layers = (
{
background = {
paths = (
{
closed = 1;
nodes = (
"25 317 OFFCURVE",
"25 200 OFFCURVE",
"25 84 CURVE SMOOTH",
"25 25 OFFCURVE",
"25 0 OFFCURVE",
"109 0 CURVE",
"263 0 LINE",
"263 111 OFFCURVE",
"263 221 OFFCURVE",
"263 332 CURVE SMOOTH",
"263 346 OFFCURVE",
"276 348 OFFCURVE",
"292 348 CURVE SMOOTH",
"322 348 OFFCURVE",
"337 345 OFFCURVE",
"337 289 CURVE SMOOTH",
"337 193 OFFCURVE",
"337 96 OFFCURVE",
"337 0 CURVE",
"416 0 OFFCURVE",
"496 0 OFFCURVE",
"575 0 CURVE",
"575 111 OFFCURVE",
"575 223 OFFCURVE",
"575 334 CURVE SMOOTH",
"575 348 OFFCURVE",
"589 350 OFFCURVE",
"604 350 CURVE SMOOTH",
"634 350 OFFCURVE",
"649 345 OFFCURVE",
"649 284 CURVE SMOOTH",
"649 189 OFFCURVE",
"649 95 OFFCURVE",
"649 0 CURVE",
"700 0 OFFCURVE",
"752 0 OFFCURVE",
"803 0 CURVE SMOOTH",
"868 0 OFFCURVE",
"886 8 OFFCURVE",
"886 76 CURVE SMOOTH",
"886 144 OFFCURVE",
"886 213 OFFCURVE",
"886 281 CURVE SMOOTH",
"886 428 OFFCURVE",
"826 460 OFFCURVE",
"644 460 CURVE SMOOTH",
"603 460 OFFCURVE",
"518 455 OFFCURVE",
"477 394 CURVE",
"436 471 OFFCURVE",
"329 460 OFFCURVE",
"270 460 CURVE SMOOTH",
"231 460 OFFCURVE",
"86 450 OFFCURVE",
"25 433 CURVE"
);
}
);
};
layerId = "C7668D88-AC50-4107-9C4B-DB5D26A8FA6C";
paths = (
{
closed = 1;
nodes = (
"25 317 OFFCURVE",
"25 200 OFFCURVE",
"25 84 CURVE SMOOTH",
"25 25 OFFCURVE",
"25 0 OFFCURVE",
"109 0 CURVE",
"263 0 LINE",
"263 111 OFFCURVE",
"263 221 OFFCURVE",
"263 332 CURVE SMOOTH",
"263 346 OFFCURVE",
"276 348 OFFCURVE",
"292 348 CURVE SMOOTH",
"322 348 OFFCURVE",
"337 345 OFFCURVE",
"337 289 CURVE SMOOTH",
"337 193 OFFCURVE",
"337 96 OFFCURVE",
"337 0 CURVE",
"416 0 OFFCURVE",
"496 0 OFFCURVE",
"575 0 CURVE",
"575 111 OFFCURVE",
"575 223 OFFCURVE",
"575 334 CURVE SMOOTH",
"575 348 OFFCURVE",
"589 350 OFFCURVE",
"604 350 CURVE SMOOTH",
"634 350 OFFCURVE",
"649 345 OFFCURVE",
"649 284 CURVE SMOOTH",
"649 189 OFFCURVE",
"649 95 OFFCURVE",
"649 0 CURVE",
"700 0 OFFCURVE",
"752 0 OFFCURVE",
"803 0 CURVE SMOOTH",
"868 0 OFFCURVE",
"886 8 OFFCURVE",
"886 76 CURVE SMOOTH",
"886 144 OFFCURVE",
"886 213 OFFCURVE",
"886 281 CURVE SMOOTH",
"886 428 OFFCURVE",
"826 460 OFFCURVE",
"644 460 CURVE SMOOTH",
"603 460 OFFCURVE",
"518 455 OFFCURVE",
"477 394 CURVE",
"436 471 OFFCURVE",
"329 460 OFFCURVE",
"270 460 CURVE SMOOTH",
"231 460 OFFCURVE",
"86 450 OFFCURVE",
"25 433 CURVE"
);
}
);
width = 911;
},
{
layerId = "B5FD97B6-BD2C-4287-9857-851C623D3F63";
paths = (
{
closed = 1;
nodes = (
"40 290 OFFCURVE",
"40 153 OFFCURVE",
"40 16 CURVE SMOOTH",
"40 2 OFFCURVE",
"45 0 OFFCURVE",
"56 0 CURVE SMOOTH",
"65 0 LINE",
"65 134 OFFCURVE",
"65 269 OFFCURVE",
"65 403 CURVE",
"70 433 OFFCURVE",
"139 448 OFFCURVE",
"204 448 CURVE SMOOTH",
"269 448 OFFCURVE",
"324 415 OFFCURVE",
"324 388 CURVE",
"324 259 OFFCURVE",
"323 129 OFFCURVE",
"323 0 CURVE",
"333 0 OFFCURVE",
"341 0 OFFCURVE",
"351 0 CURVE",
"351 129 OFFCURVE",
"350 258 OFFCURVE",
"350 387 CURVE",
"350 425 OFFCURVE",
"435 448 OFFCURVE",
"489 448 CURVE SMOOTH",
"568 448 OFFCURVE",
"609 420 OFFCURVE",
"609 347 CURVE SMOOTH",
"609 231 OFFCURVE",
"609 116 OFFCURVE",
"609 0 CURVE",
"611 0 OFFCURVE",
"613 0 OFFCURVE",
"616 0 CURVE SMOOTH",
"624 0 OFFCURVE",
"634 2 OFFCURVE",
"634 16 CURVE SMOOTH",
"634 126 OFFCURVE",
"634 236 OFFCURVE",
"634 347 CURVE SMOOTH",
"634 429 OFFCURVE",
"600 467 OFFCURVE",
"489 467 CURVE SMOOTH",
"434 467 OFFCURVE",
"368 446 OFFCURVE",
"340 421 CURVE",
"315 447 OFFCURVE",
"263 466 OFFCURVE",
"205 466 CURVE SMOOTH",
"91 466 OFFCURVE",
"52 433 OFFCURVE",
"40 426 CURVE"
);
}
);
width = 674;
}
);
leftKerningGroup = E;
note = M.1;
},
{
glyphname = N.ss01;
lastChange = "2021-09-24 03:41:18 +0000";
layers = (
{
background = {
paths = (
{
closed = 1;
nodes = (
"302 108 OFFCURVE",
"302 215 OFFCURVE",
"302 323 CURVE",
"318 331 OFFCURVE",
"336 337 OFFCURVE",
"353 337 CURVE SMOOTH",
"380 337 OFFCURVE",
"403 323 OFFCURVE",
"403 281 CURVE SMOOTH",
"403 194 OFFCURVE",
"403 108 OFFCURVE",
"403 21 CURVE",
"403 14 OFFCURVE",
"403 7 OFFCURVE",
"403 0 CURVE",
"405 0 OFFCURVE",
"544 -1 OFFCURVE",
"552 -1 CURVE SMOOTH",
"635 -1 OFFCURVE",
"640 17 OFFCURVE",
"640 86 CURVE SMOOTH",
"640 132 OFFCURVE",
"640 177 OFFCURVE",
"640 223 CURVE SMOOTH",
"640 411 OFFCURVE",
"624 462 OFFCURVE",
"350 462 CURVE SMOOTH",
"227 462 OFFCURVE",
"112 448 OFFCURVE",
"64 435 CURVE",
"64 318 OFFCURVE",
"64 201 OFFCURVE",
"64 84 CURVE SMOOTH",
"64 29 OFFCURVE",
"69 -1 OFFCURVE",
"121 -1 CURVE SMOOTH",
"133 -1 OFFCURVE",
"297 0 OFFCURVE",
"302 0 CURVE"
);
}
);
};
layerId = "C7668D88-AC50-4107-9C4B-DB5D26A8FA6C";
paths = (
{
closed = 1;
nodes = (
"302 108 OFFCURVE",
"302 215 OFFCURVE",
"302 323 CURVE",
"318 331 OFFCURVE",
"336 337 OFFCURVE",
"353 337 CURVE SMOOTH",
"380 337 OFFCURVE",
"403 323 OFFCURVE",
"403 281 CURVE SMOOTH",
"403 194 OFFCURVE",
"403 108 OFFCURVE",
"403 21 CURVE",
"403 14 OFFCURVE",
"403 7 OFFCURVE",
"403 0 CURVE",
"405 0 OFFCURVE",
"544 -1 OFFCURVE",
"552 -1 CURVE SMOOTH",
"635 -1 OFFCURVE",
"640 17 OFFCURVE",
"640 86 CURVE SMOOTH",
"640 132 OFFCURVE",
"640 177 OFFCURVE",
"640 223 CURVE SMOOTH",
"640 411 OFFCURVE",
"624 462 OFFCURVE",
"350 462 CURVE SMOOTH",
"227 462 OFFCURVE",
"112 448 OFFCURVE",
"64 435 CURVE",
"64 318 OFFCURVE",
"64 201 OFFCURVE",
"64 84 CURVE SMOOTH",
"64 29 OFFCURVE",
"69 -1 OFFCURVE",
"121 -1 CURVE SMOOTH",
"133 -1 OFFCURVE",
"297 0 OFFCURVE",
"302 0 CURVE"
);
}
);
width = 698;
},
{
layerId = "B5FD97B6-BD2C-4287-9857-851C623D3F63";
paths = (
{
closed = 1;
nodes = (
"68 131 OFFCURVE",
"68 262 OFFCURVE",
"68 393 CURVE",
"73 422 OFFCURVE",
"150 436 OFFCURVE",
"233 436 CURVE SMOOTH",
"329 436 OFFCURVE",
"380 405 OFFCURVE",
"380 333 CURVE SMOOTH",
"380 234 OFFCURVE",
"380 136 OFFCURVE",
"380 38 CURVE SMOOTH",
"380 34 OFFCURVE",
"380 11 OFFCURVE",
"379 0 CURVE",
"380 0 OFFCURVE",
"384 0 OFFCURVE",
"387 0 CURVE SMOOTH",
"395 0 OFFCURVE",
"404 4 OFFCURVE",
"404 16 CURVE SMOOTH",
"404 121 OFFCURVE",
"404 227 OFFCURVE",
"404 332 CURVE SMOOTH",
"404 413 OFFCURVE",
"373 454 OFFCURVE",
"235 454 CURVE SMOOTH",
"89 454 OFFCURVE",
"55 422 OFFCURVE",
"42 414 CURVE",
"42 282 OFFCURVE",
"42 149 OFFCURVE",
"42 16 CURVE SMOOTH",
"42 2 OFFCURVE",
"48 0 OFFCURVE",
"58 0 CURVE SMOOTH",
"61 0 OFFCURVE",
"66 0 OFFCURVE",
"68 0 CURVE"
);
}
);
width = 465;
}
);
leftKerningGroup = E;
note = N.1;
},
{
glyphname = S.ss01;
lastChange = "2021-09-24 03:41:18 +0000";
layers = (
{
background = {
hints = (
{
horizontal = 1;
place = "{-1, 150}";
type = Stem;
},
{
horizontal = 1;
place = "{150, 152}";
type = Stem;
},
{
horizontal = 1;
place = "{308, 152}";
type = Stem;
},
{
place = "{23, 226}";
type = Stem;
},
{
place = "{420, 229}";
type = Stem;
}
);
paths = (
{
closed = 1;
nodes = (
"47 -26 OFFCURVE",
"137 -5 OFFCURVE",
"342 -5 CURVE SMOOTH",
"539 -5 OFFCURVE",
"651 2 OFFCURVE",
"651 159 CURVE SMOOTH",
"651 278 OFFCURVE",
"581 294 OFFCURVE",
"478 294 CURVE SMOOTH",
"473 294 OFFCURVE",
"393 294 OFFCURVE",
"290 294 CURVE SMOOTH",
"263 294 OFFCURVE",
"263 309 OFFCURVE",
"263 319 CURVE SMOOTH",
"263 330 OFFCURVE",
"261 343 OFFCURVE",
"331 343 CURVE SMOOTH",
"348 343 OFFCURVE",
"362 343 OFFCURVE",
"387 343 CURVE SMOOTH",
"420 343 OFFCURVE",
"429 333 OFFCURVE",
"429 322 CURVE SMOOTH",
"429 322 OFFCURVE",
"429 316 OFFCURVE",
"429 316 CURVE",
"468 316 OFFCURVE",
"620 316 OFFCURVE",
"640 316 CURVE",
"640 325 OFFCURVE",
"640 356 OFFCURVE",
"640 374 CURVE",
"640 395 OFFCURVE",
"614 426 OFFCURVE",
"606 431 CURVE SMOOTH",
"549 464 OFFCURVE",
"485 464 OFFCURVE",
"357 464 CURVE SMOOTH",
"153 464 OFFCURVE",
"57 452 OFFCURVE",
"57 301 CURVE SMOOTH",
"57 173 OFFCURVE",
"124 170 OFFCURVE",
"244 170 CURVE SMOOTH",
"346 170 OFFCURVE",
"368 170 OFFCURVE",
"387 170 CURVE SMOOTH",
"413 170 OFFCURVE",
"424 162 OFFCURVE",
"424 148 CURVE SMOOTH",
"424 130 OFFCURVE",
"411 119 OFFCURVE",
"339 119 CURVE SMOOTH",
"265 119 OFFCURVE",
"252 128 OFFCURVE",
"252 147 CURVE",
"184 147 OFFCURVE",
"115 145 OFFCURVE",
"47 145 CURVE"
);
}
);
};
layerId = "C7668D88-AC50-4107-9C4B-DB5D26A8FA6C";
paths = (
{
closed = 1;
nodes = (
"47 -26 OFFCURVE",
"137 -5 OFFCURVE",
"342 -5 CURVE SMOOTH",
"539 -5 OFFCURVE",
"651 2 OFFCURVE",
"651 159 CURVE SMOOTH",
"651 278 OFFCURVE",
"581 294 OFFCURVE",
"478 294 CURVE SMOOTH",
"473 294 OFFCURVE",
"393 294 OFFCURVE",
"290 294 CURVE SMOOTH",
"263 294 OFFCURVE",
"263 309 OFFCURVE",
"263 319 CURVE SMOOTH",
"263 330 OFFCURVE",
"261 343 OFFCURVE",
"331 343 CURVE SMOOTH",
"348 343 OFFCURVE",
"362 343 OFFCURVE",
"387 343 CURVE SMOOTH",
"420 343 OFFCURVE",
"429 333 OFFCURVE",
"429 322 CURVE SMOOTH",
"429 322 OFFCURVE",
"429 316 OFFCURVE",
"429 316 CURVE",
"468 316 OFFCURVE",
"620 316 OFFCURVE",
"640 316 CURVE",
"640 325 OFFCURVE",
"640 356 OFFCURVE",
"640 374 CURVE",
"640 395 OFFCURVE",
"614 426 OFFCURVE",
"606 431 CURVE SMOOTH",
"549 464 OFFCURVE",
"485 464 OFFCURVE",
"357 464 CURVE SMOOTH",
"153 464 OFFCURVE",
"57 452 OFFCURVE",
"57 301 CURVE SMOOTH",
"57 173 OFFCURVE",
"124 170 OFFCURVE",
"244 170 CURVE SMOOTH",
"346 170 OFFCURVE",
"368 170 OFFCURVE",
"387 170 CURVE SMOOTH",
"413 170 OFFCURVE",
"424 162 OFFCURVE",
"424 148 CURVE SMOOTH",
"424 130 OFFCURVE",
"411 119 OFFCURVE",
"339 119 CURVE SMOOTH",
"265 119 OFFCURVE",
"252 128 OFFCURVE",
"252 147 CURVE",
"184 147 OFFCURVE",
"115 145 OFFCURVE",
"47 145 CURVE"
);
}
);
width = 688;
},
{
layerId = "B5FD97B6-BD2C-4287-9857-851C623D3F63";
paths = (
{
closed = 1;
nodes = (
"56 12 OFFCURVE",
"111 -4 OFFCURVE",
"244 -5 CURVE SMOOTH",
"395 -6 OFFCURVE",
"453 27 OFFCURVE",
"453 133 CURVE SMOOTH",
"453 237 OFFCURVE",
"392 247 OFFCURVE",
"311 247 CURVE SMOOTH",
"277 247 OFFCURVE",
"246 247 OFFCURVE",
"211 247 CURVE SMOOTH",
"135 247 OFFCURVE",
"81 254 OFFCURVE",
"81 334 CURVE SMOOTH",
"81 435 OFFCURVE",
"184 447 OFFCURVE",
"257 447 CURVE SMOOTH",
"312 447 OFFCURVE",
"348 441 OFFCURVE",
"372 430 CURVE SMOOTH",
"409 413 OFFCURVE",
"417 384 OFFCURVE",
"419 345 CURVE SMOOTH",
"419 340 OFFCURVE",
"419 333 OFFCURVE",
"419 326 CURVE",
"426 326 OFFCURVE",
"435 326 OFFCURVE",
"443 326 CURVE",
"443 333 OFFCURVE",
"443 341 OFFCURVE",
"443 346 CURVE SMOOTH",
"443 399 OFFCURVE",
"426 425 OFFCURVE",
"394 444 CURVE SMOOTH",
"377 453 OFFCURVE",
"335 464 OFFCURVE",
"261 464 CURVE SMOOTH",
"162 464 OFFCURVE",
"58 455 OFFCURVE",
"58 333 CURVE SMOOTH",
"58 230 OFFCURVE",
"140 227 OFFCURVE",
"211 227 CURVE SMOOTH",
"247 227 OFFCURVE",
"280 227 OFFCURVE",
"315 227 CURVE SMOOTH",
"388 227 OFFCURVE",
"429 214 OFFCURVE",
"429 135 CURVE SMOOTH",
"429 39 OFFCURVE",
"360 14 OFFCURVE",
"254 14 CURVE SMOOTH",
"154 14 OFFCURVE",
"80 22 OFFCURVE",
"80 133 CURVE",
"71 133 OFFCURVE",
"64 133 OFFCURVE",
"56 133 CURVE"
);
}
);
width = 497;
}
);
note = S.1;
},
{
glyphname = A.ss02;
lastChange = "2021-09-24 03:41:18 +0000";
layers = (
{
background = {
hints = (
{
horizontal = 1;
place = "{64, 151}";
type = Stem;
},
{
horizontal = 1;
place = "{460, -20}";
target = down;
type = TopGhost;
},
{
place = "{26, 685}";
type = Stem;
},
{
horizontal = 1;
place = "{0, 215}";
type = Stem;
}
);
paths = (
{
closed = 1;
nodes = (
"277 169 OFFCURVE",
"259 136 OFFCURVE",
"259 87 CURVE",
"397 86 LINE",
"440 0 LINE",
"687 0 LINE",
"510 374 LINE SMOOTH",
"482 434 OFFCURVE",
"427 464 OFFCURVE",
"345 464 CURVE SMOOTH",
"250 464 OFFCURVE",
"210 430 OFFCURVE",
"183 374 CURVE SMOOTH",
"4 0 LINE",
"179 0 LINE",
"302 265 LINE SMOOTH",
"302 265 OFFCURVE",
"306 268 OFFCURVE",
"306 274 CURVE",
"306 268 OFFCURVE",
"327 228 OFFCURVE",
"340 201 CURVE SMOOTH",
"355 169 LINE",
"355 169 OFFCURVE",
"324 169 OFFCURVE",
"315 169 CURVE SMOOTH"
);
}
);
};
layerId = "C7668D88-AC50-4107-9C4B-DB5D26A8FA6C";
paths = (
{
closed = 1;
nodes = (
"277 169 OFFCURVE",
"259 136 OFFCURVE",
"259 87 CURVE",
"397 86 LINE",
"440 0 LINE",
"687 0 LINE",
"510 374 LINE SMOOTH",
"482 434 OFFCURVE",
"427 464 OFFCURVE",
"345 464 CURVE SMOOTH",
"250 464 OFFCURVE",
"210 430 OFFCURVE",
"183 374 CURVE SMOOTH",
"4 0 LINE",
"179 0 LINE",
"302 265 LINE SMOOTH",
"302 265 OFFCURVE",
"306 268 OFFCURVE",
"306 274 CURVE",
"306 268 OFFCURVE",
"327 228 OFFCURVE",
"340 201 CURVE SMOOTH",
"355 169 LINE",
"355 169 OFFCURVE",
"324 169 OFFCURVE",
"315 169 CURVE SMOOTH"
);
}
);
width = 692;
},
{
layerId = "B5FD97B6-BD2C-4287-9857-851C623D3F63";
paths = (
{
closed = 1;
nodes = (
"123 159 OFFCURVE",
"120 155 OFFCURVE",
"120 141 CURVE",
"342 141 LINE",
"385 0 LINE",
"410 0 LINE",
"288 400 LINE SMOOTH",
"273 446 OFFCURVE",
"261 465 OFFCURVE",
"205 465 CURVE SMOOTH",
"149 465 OFFCURVE",
"134 442 OFFCURVE",
"121 400 CURVE SMOOTH",
"4 0 LINE",
"24 0 LINE",
"140 398 LINE SMOOTH",
"147 422 OFFCURVE",
"155 446 OFFCURVE",
"204 446 CURVE SMOOTH",
"247 446 OFFCURVE",
"257 422 OFFCURVE",
"265 397 CURVE SMOOTH",
"336 159 LINE",
"336 159 OFFCURVE",
"146 159 OFFCURVE",
"141 159 CURVE SMOOTH"
);
}
);
width = 423;
}
);
note = A.2;
},
{
glyphname = a;
lastChange = "2021-09-24 03:44:21 +0000";
layers = (
{
anchors = (
{
name = bottom;
position = "{288, 0}";
},
{
name = ogonek;
position = "{521, 10}";
},
{
name = top;
position = "{288, 399}";
}
);
background = {
anchors = (
{
name = bottom;
position = "{288, 0}";
},
{
name = ogonek;
position = "{521, 10}";
},
{
name = top;
position = "{288, 399}";
}
);
paths = (
{
closed = 1;
nodes = (
"547 20 OFFCURVE",
"548 57 OFFCURVE",
"548 214 CURVE SMOOTH",
"548 348 OFFCURVE",
"506 388 OFFCURVE",
"406 398 CURVE SMOOTH",
"336 405 OFFCURVE",
"156 406 OFFCURVE",
"97 395 CURVE SMOOTH",
"63 389 OFFCURVE",
"50 368 OFFCURVE",
"50 327 CURVE SMOOTH",
"50 289 LINE",
"121 289 OFFCURVE",
"192 289 OFFCURVE",
"263 289 CURVE SMOOTH",
"334 289 OFFCURVE",
"353 279 OFFCURVE",
"348 230 CURVE",
"323 239 OFFCURVE",
"192 238 OFFCURVE",
"123 238 CURVE SMOOTH",
"41 238 OFFCURVE",
"26 204 OFFCURVE",
"26 111 CURVE SMOOTH",
"27 28 OFFCURVE",
"63 5 OFFCURVE",
"122 1 CURVE SMOOTH",
"241 -8 OFFCURVE",
"524 -4 OFFCURVE",
"547 20 CURVE"
);
},
{
closed = 1;
nodes = (
"240 79 OFFCURVE",
"232 84 OFFCURVE",
"232 129 CURVE SMOOTH",
"232 174 OFFCURVE",
"240 175 OFFCURVE",
"255 175 CURVE SMOOTH",
"266 175 OFFCURVE",
"336 174 OFFCURVE",
"342 170 CURVE",
"342 166 OFFCURVE",
"342 106 OFFCURVE",
"341 84 CURVE",
"335 80 OFFCURVE",
"264 79 OFFCURVE",
"255 79 CURVE SMOOTH"
);
}
);
};
layerId = "C7668D88-AC50-4107-9C4B-DB5D26A8FA6C";
paths = (
{
closed = 1;
nodes = (
"408 -3 OFFCURVE",
"516 4 OFFCURVE",
"547 20 CURVE",
"548 214 LINE SMOOTH",
"549 375 OFFCURVE",
"503 402 OFFCURVE",
"289 403 CURVE SMOOTH",
"205 404 OFFCURVE",
"131 401 OFFCURVE",
"97 395 CURVE SMOOTH",
"63 389 OFFCURVE",
"50 368 OFFCURVE",
"50 327 CURVE SMOOTH",
"50 289 LINE",
"120 291 OFFCURVE",
"192 293 OFFCURVE",
"263 293 CURVE SMOOTH",
"334 293 OFFCURVE",
"349 282 OFFCURVE",
"348 230 CURVE",
"323 239 OFFCURVE",
"192 238 OFFCURVE",
"123 238 CURVE SMOOTH",
"53 238 OFFCURVE",
"26 216 OFFCURVE",
"27 115 CURVE SMOOTH",
"28 7 OFFCURVE",
"61 -4 OFFCURVE",
"270 -3 CURVE SMOOTH"
);
},
{
closed = 1;
nodes = (
"247 79 OFFCURVE",
"239 88 OFFCURVE",
"239 129 CURVE SMOOTH",
"239 167 OFFCURVE",
"248 175 OFFCURVE",
"269 175 CURVE SMOOTH",
"280 175 OFFCURVE",
"326 174 OFFCURVE",
"348 170 CURVE",
"348 84 LINE",
"328 80 OFFCURVE",
"294 79 OFFCURVE",
"269 79 CURVE SMOOTH"
);
}
);
width = 571;
},
{
anchors = (
{
name = bottom;
position = "{219, 0}";
},
{
name = ogonek;
position = "{372, 10}";
},
{
name = top;
position = "{219, 399}";
}
);
layerId = "B5FD97B6-BD2C-4287-9857-851C623D3F63";
paths = (
{
closed = 1;
nodes = (
"350 -8 OFFCURVE",
"392 5 OFFCURVE",
"392 36 CURVE",
"391 247 LINE",
"391 393 OFFCURVE",
"325 405 OFFCURVE",
"217 405 CURVE SMOOTH",
"176 405 OFFCURVE",
"129 400 OFFCURVE",
"106 394 CURVE SMOOTH",
"90 390 OFFCURVE",
"67 385 OFFCURVE",
"67 362 CURVE SMOOTH",
"67 355 LINE",
"85 378 OFFCURVE",
"158 387 OFFCURVE",
"224 387 CURVE SMOOTH",
"313 387 OFFCURVE",
"372 376 OFFCURVE",
"369 229 CURVE",
"353 235 OFFCURVE",
"263 243 OFFCURVE",
"196 243 CURVE SMOOTH",
"83 243 OFFCURVE",
"48 219 OFFCURVE",
"48 118 CURVE SMOOTH",
"48 28 OFFCURVE",
"77 -8 OFFCURVE",
"216 -8 CURVE SMOOTH"
);
},
{
closed = 1;
nodes = (
"87 9 OFFCURVE",
"71 45 OFFCURVE",
"71 119 CURVE SMOOTH",
"71 221 OFFCURVE",
"112 227 OFFCURVE",
"220 227 CURVE SMOOTH",
"267 227 OFFCURVE",
"353 217 OFFCURVE",
"369 210 CURVE",
"370 40 LINE",
"363 19 OFFCURVE",
"331 9 OFFCURVE",
"216 9 CURVE SMOOTH"
);
}
);
width = 453;
}
);
leftKerningGroup = a;
note = a;
rightKerningGroup = n;
rightMetricsKey = "=n-3";
unicode = 0061;
},
{
glyphname = b;
lastChange = "2021-09-24 03:41:18 +0000";
layers = (
{
anchors = (
{
name = bottom;
position = "{283, 0}";
}
);
background = {
anchors = (
{
name = bottom;
position = "{283, 0}";
}
);
paths = (
{
closed = 1;
nodes = (
"24 193 LINE SMOOTH",
"25 23 OFFCURVE",
"69 -5 OFFCURVE",
"288 -5 CURVE SMOOTH",
"496 -5 OFFCURVE",
"541 18 OFFCURVE",
"541 181 CURVE SMOOTH",
"541 197 OFFCURVE",
"541 212 OFFCURVE",
"541 228 CURVE SMOOTH",
"541 372 OFFCURVE",
"486 400 OFFCURVE",
"334 400 CURVE SMOOTH",
"284 400 OFFCURVE",
"249 398 OFFCURVE",
"231 398 CURVE",
"231 434 OFFCURVE",
"231 469 OFFCURVE",
"231 505 CURVE",
"162 505 OFFCURVE",
"92 505 OFFCURVE",
"23 505 CURVE"
);
},
{
closed = 1;
nodes = (
"242 102 OFFCURVE",
"231 110 OFFCURVE",
"231 165 CURVE SMOOTH",
"231 291 LINE",
"244 291 OFFCURVE",
"257 291 OFFCURVE",
"270 291 CURVE SMOOTH",
"311 291 OFFCURVE",
"323 281 OFFCURVE",
"323 237 CURVE SMOOTH",
"323 211 OFFCURVE",
"324 184 OFFCURVE",
"324 158 CURVE SMOOTH",
"324 115 OFFCURVE",
"314 102 OFFCURVE",
"279 102 CURVE SMOOTH"
);
},
{
closed = 1;
nodes = (
"459 -7 OFFCURVE",
"540 33 OFFCURVE",
"540 199 CURVE SMOOTH",
"540 365 OFFCURVE",
"460 405 OFFCURVE",
"285 405 CURVE SMOOTH",
"107 405 OFFCURVE",
"26 365 OFFCURVE",
"26 199 CURVE SMOOTH",
"26 33 OFFCURVE",
"107 -7 OFFCURVE",
"285 -7 CURVE SMOOTH"
);
},
{
closed = 1;
nodes = (
"250 92 OFFCURVE",
"234 115 OFFCURVE",
"234 199 CURVE SMOOTH",
"234 283 OFFCURVE",
"250 306 OFFCURVE",
"285 306 CURVE SMOOTH",
"320 306 OFFCURVE",
"332 283 OFFCURVE",
"332 199 CURVE SMOOTH",
"332 115 OFFCURVE",
"320 92 OFFCURVE",
"285 92 CURVE SMOOTH"
);
},
{
closed = 1;
nodes = (
"496 -5 OFFCURVE",
"541 18 OFFCURVE",
"541 181 CURVE SMOOTH",
"541 228 LINE SMOOTH",
"541 372 OFFCURVE",
"486 400 OFFCURVE",
"334 400 CURVE SMOOTH",
"284 400 OFFCURVE",
"249 398 OFFCURVE",
"231 398 CURVE",
"231 434 OFFCURVE",
"231 469 OFFCURVE",
"231 505 CURVE",
"23 505 LINE",
"24 193 LINE SMOOTH",
"25 23 OFFCURVE",
"69 -5 OFFCURVE",
"288 -5 CURVE SMOOTH"
);
},
{
closed = 1;
nodes = (
"242 102 OFFCURVE",
"231 110 OFFCURVE",
"231 165 CURVE SMOOTH",
"231 291 LINE",
"244 291 OFFCURVE",
"257 291 OFFCURVE",
"270 291 CURVE SMOOTH",
"311 291 OFFCURVE",
"323 281 OFFCURVE",
"323 237 CURVE SMOOTH",
"324 158 LINE SMOOTH",
"324 115 OFFCURVE",
"314 102 OFFCURVE",
"279 102 CURVE SMOOTH"
);
},
{
closed = 1;
nodes = (
"497 -5 OFFCURVE",
"541 18 OFFCURVE",
"541 181 CURVE SMOOTH",
"541 228 LINE SMOOTH",
"541 372 OFFCURVE",
"488 400 OFFCURVE",
"342 400 CURVE SMOOTH",
"292 400 OFFCURVE",
"257 398 OFFCURVE",
"239 398 CURVE",
"239 505 LINE",
"34 505 LINE",
"35 193 LINE SMOOTH",
"36 23 OFFCURVE",
"79 -5 OFFCURVE",
"296 -5 CURVE SMOOTH"
);
},
{
closed = 1;
nodes = (
"250 102 OFFCURVE",
"239 110 OFFCURVE",
"239 165 CURVE SMOOTH",
"239 291 LINE",
"252 291 OFFCURVE",
"265 291 OFFCURVE",
"278 291 CURVE SMOOTH",
"321 291 OFFCURVE",
"333 281 OFFCURVE",
"333 237 CURVE SMOOTH",
"334 158 LINE SMOOTH",
"334 115 OFFCURVE",
"324 102 OFFCURVE",
"287 102 CURVE SMOOTH"
);
}
);
};
layerId = "C7668D88-AC50-4107-9C4B-DB5D26A8FA6C";
paths = (
{
closed = 1;
nodes = (
"472 -5 OFFCURVE",
"544 20 OFFCURVE",
"544 193 CURVE SMOOTH",
"544 350 OFFCURVE",
"503 400 OFFCURVE",
"342 400 CURVE SMOOTH",
"292 400 OFFCURVE",
"257 398 OFFCURVE",
"239 398 CURVE",
"239 505 LINE",
"34 505 LINE",
"35 193 LINE SMOOTH",
"36 23 OFFCURVE",
"79 -5 OFFCURVE",
"285 -5 CURVE SMOOTH"
);
},
{
closed = 1;
nodes = (
"250 102 OFFCURVE",
"239 110 OFFCURVE",
"239 165 CURVE SMOOTH",
"239 291 LINE",
"252 291 OFFCURVE",
"265 291 OFFCURVE",
"278 291 CURVE SMOOTH",
"326 291 OFFCURVE",
"334 278 OFFCURVE",
"336 203 CURVE SMOOTH",
"336 110 OFFCURVE",
"334 102 OFFCURVE",
"287 102 CURVE SMOOTH"
);
}
);
width = 568;
},
{
anchors = (
{
name = bottom;
position = "{238, 0}";
}
);
layerId = "B5FD97B6-BD2C-4287-9857-851C623D3F63";
paths = (
{
closed = 1;
nodes = (
"330 -2 OFFCURVE",
"410 -2 OFFCURVE",
"410 203 CURVE SMOOTH",
"408 347 OFFCURVE",
"367 400 OFFCURVE",
"234 400 CURVE SMOOTH",
"201 400 OFFCURVE",
"94 395 OFFCURVE",
"88 394 CURVE",
"88 505 LINE",
"66 505 LINE",
"67 193 LINE SMOOTH",
"67 17 OFFCURVE",
"91 -2 OFFCURVE",
"225 -2 CURVE SMOOTH"
);
},
{
closed = 1;
nodes = (
"100 16 OFFCURVE",
"89 40 OFFCURVE",
"89 192 CURVE SMOOTH",
"89 377 LINE",
"96 378 OFFCURVE",
"199 382 OFFCURVE",
"241 382 CURVE SMOOTH",
"342 382 OFFCURVE",
"388 332 OFFCURVE",
"388 203 CURVE SMOOTH",
"387 42 OFFCURVE",
"348 16 OFFCURVE",
"225 16 CURVE SMOOTH"
);
}
);
width = 461;
}
);
leftKerningGroup = b;
leftMetricsKey = l;
note = b;
rightKerningGroup = o;
rightMetricsKey = o;
unicode = 0062;
},
{
glyphname = c;
lastChange = "2021-09-24 03:44:09 +0000";
layers = (
{
anchors = (
{
name = bottom;
position = "{269, 0}";
},
{
name = top;
position = "{272, 399}";
}
);
background = {
anchors = (
{
name = bottom;
position = "{260, 0}";
},
{
name = top;
position = "{294, 399}";
}
);
hints = (
{
horizontal = 1;
place = "{-4, 104}";
type = Stem;
},
{
horizontal = 1;
place = "{301, 99}";
type = Stem;
},
{
place = "{30, 201}";
type = Stem;
}
);
paths = (
{
closed = 1;
nodes = (
"-576 29 OFFCURVE",
"-502 -7 OFFCURVE",
"-306 -7 CURVE SMOOTH",
"-189 -7 OFFCURVE",
"-102 -7 OFFCURVE",
"-102 59 CURVE SMOOTH",
"-102 112 LINE",
"-124 105 OFFCURVE",
"-189 100 OFFCURVE",
"-229 100 CURVE SMOOTH",
"-342 100 OFFCURVE",
"-377 125 OFFCURVE",
"-377 202 CURVE SMOOTH",
"-377 279 OFFCURVE",
"-342 304 OFFCURVE",
"-229 304 CURVE SMOOTH",
"-189 304 OFFCURVE",
"-124 299 OFFCURVE",
"-102 292 CURVE",
"-102 375 OFFCURVE",
"-127 390 OFFCURVE",
"-168 395 CURVE SMOOTH",
"-222 402 OFFCURVE",
"-251 405 OFFCURVE",
"-306 405 CURVE SMOOTH",
"-502 405 OFFCURVE",
"-576 367 OFFCURVE",
"-576 200 CURVE SMOOTH"
);
},
{
closed = 1;
nodes = (
"411 -7 OFFCURVE",
"498 -7 OFFCURVE",
"498 59 CURVE SMOOTH",
"498 112 LINE",
"476 105 OFFCURVE",
"411 100 OFFCURVE",
"371 100 CURVE SMOOTH",
"258 100 OFFCURVE",
"223 125 OFFCURVE",
"223 202 CURVE SMOOTH",
"223 279 OFFCURVE",
"258 304 OFFCURVE",
"371 304 CURVE SMOOTH",
"411 304 OFFCURVE",
"476 299 OFFCURVE",
"498 292 CURVE",
"498 375 OFFCURVE",
"473 390 OFFCURVE",
"432 395 CURVE SMOOTH",
"378 402 OFFCURVE",
"349 405 OFFCURVE",
"294 405 CURVE SMOOTH",
"98 405 OFFCURVE",
"24 367 OFFCURVE",
"24 187 CURVE SMOOTH",
"24 29 OFFCURVE",
"98 -7 OFFCURVE",
"294 -7 CURVE SMOOTH"
);
}
);
};
layerId = "C7668D88-AC50-4107-9C4B-DB5D26A8FA6C";
paths = (
{
closed = 1;
nodes = (
"391 -7 OFFCURVE",
"478 -7 OFFCURVE",
"478 59 CURVE SMOOTH",
"478 112 LINE",
"456 105 OFFCURVE",
"391 100 OFFCURVE",
"351 100 CURVE SMOOTH",
"262 100 OFFCURVE",
"234 125 OFFCURVE",
"234 202 CURVE SMOOTH",
"234 279 OFFCURVE",
"262 304 OFFCURVE",
"351 304 CURVE SMOOTH",
"391 304 OFFCURVE",
"456 299 OFFCURVE",
"478 292 CURVE",
"478 375 OFFCURVE",
"453 390 OFFCURVE",
"412 395 CURVE SMOOTH",
"358 402 OFFCURVE",
"329 405 OFFCURVE",
"294 405 CURVE SMOOTH",
"98 405 OFFCURVE",
"24 367 OFFCURVE",
"24 187 CURVE SMOOTH",
"24 29 OFFCURVE",
"98 -7 OFFCURVE",
"294 -7 CURVE SMOOTH"
);
}
);
width = 500;
},
{
anchors = (
{
name = bottom;
position = "{247, 0}";
},
{
name = top;
position = "{247, 399}";
}
);
layerId = "B5FD97B6-BD2C-4287-9857-851C623D3F63";
paths = (
{
closed = 1;
nodes = (
"330 -5 OFFCURVE",
"380 9 OFFCURVE",
"380 25 CURVE SMOOTH",
"380 36 LINE",
"355 24 OFFCURVE",
"310 14 OFFCURVE",
"248 14 CURVE SMOOTH",
"114 14 OFFCURVE",
"75 59 OFFCURVE",
"75 200 CURVE SMOOTH",
"75 340 OFFCURVE",
"117 386 OFFCURVE",
"248 386 CURVE SMOOTH",
"289 386 OFFCURVE",
"355 377 OFFCURVE",
"380 365 CURVE",
"380 384 OFFCURVE",
"372 391 OFFCURVE",
"343 396 CURVE SMOOTH",
"310 402 OFFCURVE",
"283 405 OFFCURVE",
"249 405 CURVE SMOOTH",
"106 405 OFFCURVE",
"51 367 OFFCURVE",
"51 200 CURVE SMOOTH",
"51 31 OFFCURVE",
"106 -5 OFFCURVE",
"249 -5 CURVE SMOOTH"
);
}
);
width = 412;
}
);
leftKerningGroup = o;
leftMetricsKey = o;
note = c;
rightKerningGroup = c;
unicode = 0063;
},
{
glyphname = d;
lastChange = "2021-09-28 21:51:09 +0000";
layers = (
{
anchors = (
{
name = bottom;
position = "{284, 0}";
},
{
name = center;
position = "{284, 200}";
},
{
name = top;
position = "{257, 505}";
},
{
name = topright;
position = "{581, 505}";
}
);
background = {
anchors = (
{
name = bottom;
position = "{284, 0}";
},
{
name = center;
position = "{284, 200}";
},
{
name = top;
position = "{257, 505}";
},
{
name = topright;
position = "{581, 505}";
}
);
paths = (
{
closed = 1;
nodes = (
"24 0 OFFCURVE",
"104 -2 OFFCURVE",
"277 -2 CURVE SMOOTH",
"460 -2 OFFCURVE",
"543 18 OFFCURVE",
"543 201 CURVE SMOOTH",
"543 505 LINE",
"335 505 LINE",
"335 394 LINE",
"324 398 OFFCURVE",
"287 400 OFFCURVE",
"268 400 CURVE SMOOTH",
"105 400 OFFCURVE",
"24 366 OFFCURVE",
"24 198 CURVE SMOOTH"
);
},
{
closed = 1;
nodes = (
"255 102 OFFCURVE",
"238 118 OFFCURVE",
"238 215 CURVE SMOOTH",
"238 277 OFFCURVE",
"248 290 OFFCURVE",
"311 290 CURVE SMOOTH",
"323 290 OFFCURVE",
"328 290 OFFCURVE",
"333 290 CURVE",
"335 178 LINE SMOOTH",
"336 124 OFFCURVE",
"322 102 OFFCURVE",
"284 102 CURVE SMOOTH"
);
},
{
closed = 1;
nodes = (
"457 -7 OFFCURVE",
"538 33 OFFCURVE",
"538 199 CURVE SMOOTH",
"538 365 OFFCURVE",
"458 405 OFFCURVE",
"283 405 CURVE SMOOTH",
"105 405 OFFCURVE",
"24 365 OFFCURVE",
"24 199 CURVE SMOOTH",
"24 33 OFFCURVE",
"105 -7 OFFCURVE",
"283 -7 CURVE SMOOTH"
);
},
{
closed = 1;
nodes = (
"248 92 OFFCURVE",
"232 115 OFFCURVE",
"232 199 CURVE SMOOTH",
"232 283 OFFCURVE",
"248 306 OFFCURVE",
"283 306 CURVE SMOOTH",
"318 306 OFFCURVE",
"330 283 OFFCURVE",
"330 199 CURVE SMOOTH",
"330 115 OFFCURVE",
"318 92 OFFCURVE",
"283 92 CURVE SMOOTH"
);
}
);
};
layerId = "C7668D88-AC50-4107-9C4B-DB5D26A8FA6C";
paths = (
{
closed = 1;
nodes = (
"24 39 OFFCURVE",
"79 -2 OFFCURVE",
"262 -2 CURVE SMOOTH",
"462 -2 OFFCURVE",
"534 18 OFFCURVE",
"534 201 CURVE SMOOTH",
"534 505 LINE",
"329 505 LINE",
"329 349 LINE",
"376 367 LINE",
"350 391 OFFCURVE",
"289 405 OFFCURVE",
"230 405 CURVE SMOOTH",
"105 405 OFFCURVE",
"24 362 OFFCURVE",
"24 198 CURVE SMOOTH"
);
},
{
closed = 1;
nodes = (
"249 102 OFFCURVE",
"232 118 OFFCURVE",
"232 198 CURVE SMOOTH",
"232 277 OFFCURVE",
"242 290 OFFCURVE",
"305 290 CURVE SMOOTH",
"317 290 OFFCURVE",
"322 290 OFFCURVE",
"327 290 CURVE",
"329 178 LINE SMOOTH",
"330 124 OFFCURVE",
"316 102 OFFCURVE",
"278 102 CURVE SMOOTH"
);
}
);
width = 555;
},
{
anchors = (
{
name = bottom;
position = "{223, 0}";
},
{
name = center;
position = "{223, 200}";
},
{
name = top;
position = "{373, 505}";
},
{
name = topright;
position = "{444, 505}";
}
);
background = {
paths = (
{
closed = 1;
nodes = (
"51 17 OFFCURVE",
"92 -2 OFFCURVE",
"224 -2 CURVE SMOOTH",
"370 -2 OFFCURVE",
"393 17 OFFCURVE",
"394 201 CURVE SMOOTH",
"395 505 LINE",
"374 505 LINE",
"374 384 LINE",
"385 391 LINE",
"372 394 OFFCURVE",
"267 400 OFFCURVE",
"227 400 CURVE SMOOTH",
"112 400 OFFCURVE",
"51 364 OFFCURVE",
"51 203 CURVE SMOOTH"
);
},
{
closed = 1;
nodes = (
"104 16 OFFCURVE",
"73 41 OFFCURVE",
"73 199 CURVE SMOOTH",
"73 346 OFFCURVE",
"120 382 OFFCURVE",
"229 382 CURVE SMOOTH",
"271 382 OFFCURVE",
"345 377 OFFCURVE",
"374 375 CURVE",
"374 196 LINE SMOOTH",
"374 37 OFFCURVE",
"358 16 OFFCURVE",
"211 16 CURVE SMOOTH"
);
}
);
};
layerId = "B5FD97B6-BD2C-4287-9857-851C623D3F63";
paths = (
{
closed = 1;
nodes = (
"51 17 OFFCURVE",
"92 -2 OFFCURVE",
"224 -2 CURVE SMOOTH",
"366 -2 OFFCURVE",
"393 23 OFFCURVE",
"394 201 CURVE SMOOTH",
"395 505 LINE",
"374 505 LINE",
"374 384 LINE",
"385 391 LINE",
"372 394 OFFCURVE",
"267 400 OFFCURVE",
"227 400 CURVE SMOOTH",
"112 400 OFFCURVE",
"51 364 OFFCURVE",
"51 203 CURVE SMOOTH"
);
},
{
closed = 1;
nodes = (
"104 16 OFFCURVE",
"73 41 OFFCURVE",
"73 199 CURVE SMOOTH",
"73 346 OFFCURVE",
"120 382 OFFCURVE",
"229 382 CURVE SMOOTH",
"271 382 OFFCURVE",
"345 377 OFFCURVE",
"374 375 CURVE",
"374 196 LINE SMOOTH",
"374 37 OFFCURVE",
"358 16 OFFCURVE",
"211 16 CURVE SMOOTH"
);
}
);
width = 454;
}
);
leftKerningGroup = o;
leftMetricsKey = o;
note = d;
rightKerningGroup = d;
rightMetricsKey = "=n-5";
unicode = 0064;
},
{
glyphname = eth;
lastChange = "2021-09-24 03:41:18 +0000";
layers = (
{
background = {
components = (
{
name = partialdiff;
}
);
hints = (
{
horizontal = 1;
place = "{-2, 104}";
type = Stem;
},
{
horizontal = 1;
place = "{290, 89}";
type = Stem;
},
{
place = "{35, 202}";
type = Stem;
},
{
place = "{341, 206}";
type = Stem;
}
);
paths = (
{
closed = 1;
nodes = (
"162 405 LINE",
"379 644 LINE",
"336 683 LINE",
"122 444 LINE"
);
}
);
};
components = (
{
name = partialdiff;
}
);
layerId = "C7668D88-AC50-4107-9C4B-DB5D26A8FA6C";
paths = (
{
closed = 1;
nodes = (
"162 405 LINE",
"379 644 LINE",
"336 683 LINE",
"122 444 LINE"
);
}
);
width = 593;
},
{
components = (
{
alignment = -1;
name = partialdiff;
}
);
layerId = "B5FD97B6-BD2C-4287-9857-851C623D3F63";
paths = (
{
closed = 1;
nodes = (
"104 471 LINE",
"266 584 LINE",
"256 600 LINE",
"93 486 LINE"
);
}
);
width = 428;
}
);
note = eth;
unicode = 00F0;
},
{
glyphname = dcroat;
lastChange = "2021-09-28 21:50:36 +0000";
layers = (
{
background = {
paths = (
{
closed = 1;
nodes = (
"277 469 LINE",
"335 469 LINE",
"335 394 LINE",
"301 398 OFFCURVE",
"314 400 OFFCURVE",
"268 400 CURVE SMOOTH",
"105 400 OFFCURVE",
"24 366 OFFCURVE",
"24 198 CURVE SMOOTH",
"24 0 OFFCURVE",
"104 -2 OFFCURVE",
"277 -2 CURVE SMOOTH",
"460 -2 OFFCURVE",
"542 18 OFFCURVE",
"543 201 CURVE SMOOTH",
"543 469 LINE",
"599 469 LINE",
"599 542 LINE",
"543 542 LINE",
"543 626 LINE",
"335 626 LINE",
"335 542 LINE",
"277 542 LINE"
);
},
{
closed = 1;
nodes = (
"234 102 OFFCURVE",
"231 134 OFFCURVE",
"231 215 CURVE SMOOTH",
"231 285 OFFCURVE",
"257 290 OFFCURVE",
"328 290 CURVE SMOOTH",
"330 290 OFFCURVE",
"333 290 OFFCURVE",
"335 290 CURVE",
"335 178 LINE SMOOTH",
"335 102 OFFCURVE",
"299 102 OFFCURVE",
"284 102 CURVE SMOOTH"
);
}
);
};
layerId = "C7668D88-AC50-4107-9C4B-DB5D26A8FA6C";
paths = (
{
closed = 1;
nodes = (
"277 469 LINE",
"335 469 LINE",
"335 394 LINE",
"318 399 OFFCURVE",
"285 400 OFFCURVE",
"268 400 CURVE SMOOTH",
"85 400 OFFCURVE",
"24 347 OFFCURVE",
"24 198 CURVE SMOOTH",
"24 26 OFFCURVE",
"71 -2 OFFCURVE",
"277 -2 CURVE SMOOTH",
"497 -2 OFFCURVE",
"543 51 OFFCURVE",
"543 201 CURVE SMOOTH",
"543 469 LINE",
"599 469 LINE",
"599 542 LINE",
"543 542 LINE",
"543 626 LINE",
"335 626 LINE",
"335 542 LINE",
"277 542 LINE"
);
},
{
closed = 1;
nodes = (
"247 102 OFFCURVE",
"231 119 OFFCURVE",
"231 193 CURVE SMOOTH",
"231 276 OFFCURVE",
"246 290 OFFCURVE",
"308 290 CURVE SMOOTH",
"330 290 OFFCURVE",
"333 290 OFFCURVE",
"335 290 CURVE",
"335 178 LINE SMOOTH",
"335 121 OFFCURVE",
"316 102 OFFCURVE",
"284 102 CURVE SMOOTH"
);
}
);
width = 573;
},
{
background = {
paths = (
{
closed = 1;
nodes = (
"285 504 LINE",
"373 504 LINE",
"373 394 LINE",
"367 395 OFFCURVE",
"260 400 OFFCURVE",
"227 400 CURVE SMOOTH",
"111 400 OFFCURVE",
"51 364 OFFCURVE",
"51 203 CURVE SMOOTH",
"51 -7 OFFCURVE",
"118 -2 OFFCURVE",
"235 -2 CURVE SMOOTH",
"369 -2 OFFCURVE",
"393 17 OFFCURVE",
"393 201 CURVE SMOOTH",
"394 504 LINE",
"484 504 LINE",
"484 519 LINE",
"394 519 LINE",
"394 591 LINE",
"373 591 LINE",
"373 519 LINE",
"285 519 LINE"
);
},
{
closed = 1;
nodes = (
"103 14 OFFCURVE",
"73 39 OFFCURVE",
"73 199 CURVE SMOOTH",
"73 325 OFFCURVE",
"99 383 OFFCURVE",
"228 383 CURVE SMOOTH",
"270 383 OFFCURVE",
"366 377 OFFCURVE",
"373 376 CURVE",
"373 196 LINE SMOOTH",
"373 21 OFFCURVE",
"348 14 OFFCURVE",
"211 14 CURVE SMOOTH"
);
}
);
};
layerId = "B5FD97B6-BD2C-4287-9857-851C623D3F63";
paths = (
{
closed = 1;
nodes = (
"285 504 LINE",
"373 504 LINE",
"373 394 LINE",
"367 395 OFFCURVE",
"260 400 OFFCURVE",
"227 400 CURVE SMOOTH",
"111 400 OFFCURVE",
"51 364 OFFCURVE",
"51 203 CURVE SMOOTH",
"51 20 OFFCURVE",
"90 -2 OFFCURVE",
"229 -2 CURVE SMOOTH",
"368 -2 OFFCURVE",
"392 19 OFFCURVE",
"393 201 CURVE SMOOTH",
"394 504 LINE",
"484 504 LINE",
"484 519 LINE",
"394 519 LINE",
"394 591 LINE",
"373 591 LINE",
"373 519 LINE",
"285 519 LINE"
);
},
{
closed = 1;
nodes = (
"110 14 OFFCURVE",
"73 34 OFFCURVE",
"73 199 CURVE SMOOTH",
"73 325 OFFCURVE",
"99 383 OFFCURVE",
"228 383 CURVE SMOOTH",
"270 383 OFFCURVE",
"366 377 OFFCURVE",
"373 376 CURVE",
"373 196 LINE SMOOTH",
"373 21 OFFCURVE",
"348 14 OFFCURVE",
"211 14 CURVE SMOOTH"
);
}
);
width = 464;
}
);
leftKerningGroup = o;
leftMetricsKey = d;
note = dcroat;
rightKerningGroup = l;
unicode = 0111;
},
{
glyphname = e;
lastChange = "2021-09-30 04:45:11 +0000";
layers = (
{
anchors = (
{
name = bottom;
position = "{283, 0}";
},
{
name = ogonek;
position = "{481, 10}";
},
{
name = top;
position = "{283, 399}";
}
);
background = {
anchors = (
{
name = bottom;
position = "{283, 0}";
},
{
name = ogonek;
position = "{371, 10}";
},
{
name = top;
position = "{283, 399}";
}
);
paths = (
{
closed = 1;
nodes = (
"347 161 OFFCURVE",
"444 161 OFFCURVE",
"542 161 CURVE",
"542 198 OFFCURVE",
"542 236 OFFCURVE",
"542 273 CURVE SMOOTH",
"542 398 OFFCURVE",
"387 400 OFFCURVE",
"302 400 CURVE SMOOTH",
"135 400 OFFCURVE",
"23 380 OFFCURVE",
"23 185 CURVE SMOOTH",
"23 1 OFFCURVE",
"100 -5 OFFCURVE",
"289 -5 CURVE SMOOTH",
"428 -5 OFFCURVE",
"503 -2 OFFCURVE",
"523 22 CURVE SMOOTH",
"536 36 OFFCURVE",
"540 68 OFFCURVE",
"541 91 CURVE SMOOTH",
"541 101 OFFCURVE",
"541 109 OFFCURVE",
"541 114 CURVE",
"530 113 OFFCURVE",
"378 110 OFFCURVE",
"355 110 CURVE SMOOTH",
"255 110 OFFCURVE",
"232 106 OFFCURVE",
"232 189 CURVE SMOOTH",
"232 274 OFFCURVE",
"241 290 OFFCURVE",
"301 290 CURVE SMOOTH",
"357 290 OFFCURVE",
"359 265 OFFCURVE",
"359 226 CURVE",
"341 226 OFFCURVE",
"324 226 OFFCURVE",
"306 226 CURVE SMOOTH",
"251 226 OFFCURVE",
"249 188 OFFCURVE",
"249 161 CURVE"
);
},
{
closed = 1;
nodes = (
"456 -7 OFFCURVE",
"537 33 OFFCURVE",
"537 199 CURVE SMOOTH",
"537 365 OFFCURVE",
"457 405 OFFCURVE",
"282 405 CURVE SMOOTH",
"104 405 OFFCURVE",
"23 365 OFFCURVE",
"23 199 CURVE SMOOTH",
"23 33 OFFCURVE",
"104 -7 OFFCURVE",
"282 -7 CURVE SMOOTH"
);
},
{
closed = 1;
nodes = (
"247 92 OFFCURVE",
"231 115 OFFCURVE",
"231 199 CURVE SMOOTH",
"231 283 OFFCURVE",
"247 306 OFFCURVE",
"282 306 CURVE SMOOTH",
"317 306 OFFCURVE",
"329 283 OFFCURVE",
"329 199 CURVE SMOOTH",
"329 115 OFFCURVE",
"317 92 OFFCURVE",
"282 92 CURVE SMOOTH"
);
},
{
closed = 1;
nodes = (
"428 -5 OFFCURVE",
"503 -2 OFFCURVE",
"523 22 CURVE SMOOTH",
"536 36 OFFCURVE",
"540 68 OFFCURVE",
"541 91 CURVE SMOOTH",
"541 114 LINE",
"530 113 OFFCURVE",
"378 110 OFFCURVE",
"335 110 CURVE SMOOTH",
"245 110 OFFCURVE",
"232 119 OFFCURVE",
"232 189 CURVE SMOOTH",
"232 274 OFFCURVE",
"241 290 OFFCURVE",
"301 290 CURVE SMOOTH",
"357 290 OFFCURVE",
"359 265 OFFCURVE",
"359 226 CURVE",
"306 226 LINE SMOOTH",
"262 226 OFFCURVE",
"249 198 OFFCURVE",
"249 161 CURVE",
"542 161 LINE",
"542 273 LINE SMOOTH",
"542 355 OFFCURVE",
"482 400 OFFCURVE",
"302 400 CURVE SMOOTH",
"85 400 OFFCURVE",
"23 348 OFFCURVE",
"23 185 CURVE SMOOTH",
"23 24 OFFCURVE",
"63 -5 OFFCURVE",
"278 -5 CURVE SMOOTH"
);
}
);
};
layerId = "C7668D88-AC50-4107-9C4B-DB5D26A8FA6C";
paths = (
{
closed = 1;
nodes = (
"422 -5 OFFCURVE",
"493 -2 OFFCURVE",
"513 22 CURVE SMOOTH",
"526 36 OFFCURVE",
"531 68 OFFCURVE",
"531 91 CURVE SMOOTH",
"531 114 LINE",
"520 113 OFFCURVE",
"368 110 OFFCURVE",
"325 110 CURVE SMOOTH",
"244 110 OFFCURVE",
"232 119 OFFCURVE",
"232 189 CURVE SMOOTH",
"232 280 OFFCURVE",
"241 297 OFFCURVE",
"293 297 CURVE SMOOTH",
"337 297 OFFCURVE",
"345 276 OFFCURVE",
"345 242 CURVE SMOOTH",
"345 226 LINE",
"311 226 LINE SMOOTH",
"267 226 OFFCURVE",
"254 198 OFFCURVE",
"254 161 CURVE",
"529 161 LINE",
"529 253 LINE SMOOTH",
"529 355 OFFCURVE",
"471 400 OFFCURVE",
"302 400 CURVE SMOOTH",
"86 400 OFFCURVE",
"24 348 OFFCURVE",
"24 185 CURVE SMOOTH",
"24 28 OFFCURVE",
"71 -5 OFFCURVE",
"278 -5 CURVE SMOOTH"
);
}
);
width = 549;
},
{
anchors = (
{
name = bottom;
position = "{226, 0}";
},
{
name = ogonek;
position = "{339, 6}";
},
{
name = top;
position = "{226, 399}";
}
);
layerId = "B5FD97B6-BD2C-4287-9857-851C623D3F63";
paths = (
{
closed = 1;
nodes = (
"281 -7 OFFCURVE",
"324 -3 OFFCURVE",
"358 4 CURVE SMOOTH",
"384 10 OFFCURVE",
"389 17 OFFCURVE",
"389 26 CURVE SMOOTH",
"389 34 LINE",
"364 21 OFFCURVE",
"291 12 OFFCURVE",
"239 12 CURVE SMOOTH",
"117 12 OFFCURVE",
"74 46 OFFCURVE",
"74 200 CURVE SMOOTH",
"74 333 OFFCURVE",
"113 386 OFFCURVE",
"238 386 CURVE SMOOTH",
"335 386 OFFCURVE",
"372 345 OFFCURVE",
"375 246 CURVE SMOOTH",
"376 213 LINE",
"130 213 LINE SMOOTH",
"116 213 OFFCURVE",
"112 205 OFFCURVE",
"112 196 CURVE",
"397 196 LINE",
"397 241 LINE SMOOTH",
"397 355 OFFCURVE",
"352 405 OFFCURVE",
"238 405 CURVE SMOOTH",
"89 405 OFFCURVE",
"51 338 OFFCURVE",
"51 200 CURVE SMOOTH",
"51 29 OFFCURVE",
"102 -7 OFFCURVE",
"239 -7 CURVE SMOOTH"
);
}
);
width = 436;
}
);
leftKerningGroup = o;
leftMetricsKey = o;
note = e;
rightKerningGroup = e;
unicode = 0065;
},
{
glyphname = f;
lastChange = "2021-09-24 03:41:18 +0000";
layers = (
{
background = {
anchors = (
{
name = bottom;
position = "{233, 0}";
},
{
name = top;
position = "{233, 960}";
}
);
paths = (
{
closed = 1;
nodes = (
"21 246 LINE",
"59 246 LINE",
"59 59 LINE SMOOTH",
"59 18 OFFCURVE",
"70 0 OFFCURVE",
"122 0 CURVE SMOOTH",
"267 0 LINE",
"267 246 LINE",
"454 246 LINE",
"454 352 LINE",
"267 352 LINE",
"267 365 LINE SMOOTH",
"267 383 OFFCURVE",
"273 399 OFFCURVE",
"302 399 CURVE SMOOTH",
"324 399 OFFCURVE",
"429 398 OFFCURVE",
"454 391 CURVE",
"454 497 LINE",
"387 503 OFFCURVE",
"255 510 OFFCURVE",
"170 505 CURVE SMOOTH",
"84 500 OFFCURVE",
"59 447 OFFCURVE",
"59 376 CURVE SMOOTH",
"59 352 LINE",
"21 352 LINE"
);
}
);
};
layerId = "C7668D88-AC50-4107-9C4B-DB5D26A8FA6C";
paths = (
{
closed = 1;
nodes = (
"21 246 LINE",
"59 246 LINE",
"59 59 LINE SMOOTH",
"59 18 OFFCURVE",
"70 0 OFFCURVE",
"122 0 CURVE SMOOTH",
"267 0 LINE",
"267 246 LINE",
"434 246 LINE",
"434 352 LINE",
"267 352 LINE",
"267 365 LINE SMOOTH",
"267 383 OFFCURVE",
"273 399 OFFCURVE",
"302 399 CURVE SMOOTH",
"345 399 OFFCURVE",
"429 398 OFFCURVE",
"454 391 CURVE",
"454 497 LINE",
"387 503 OFFCURVE",
"280 507 OFFCURVE",
"195 507 CURVE SMOOTH",
"93 507 OFFCURVE",
"59 460 OFFCURVE",
"59 376 CURVE SMOOTH",
"59 352 LINE",
"21 352 LINE"
);
}
);
width = 472;
},
{
layerId = "B5FD97B6-BD2C-4287-9857-851C623D3F63";
paths = (
{
closed = 1;
nodes = (
"44 336 LINE",
"75 336 LINE",
"75 16 LINE SMOOTH",
"75 2 OFFCURVE",
"78 0 OFFCURVE",
"87 0 CURVE SMOOTH",
"96 0 LINE",
"96 336 LINE",
"192 336 LINE",
"192 352 LINE",
"96 352 LINE",
"96 417 LINE SMOOTH",
"96 472 OFFCURVE",
"108 488 OFFCURVE",
"157 488 CURVE SMOOTH",
"185 488 OFFCURVE",
"199 484 OFFCURVE",
"212 480 CURVE",
"212 498 LINE",
"199 500 OFFCURVE",
"182 505 OFFCURVE",
"146 505 CURVE SMOOTH",
"89 505 OFFCURVE",
"75 478 OFFCURVE",
"75 423 CURVE SMOOTH",
"75 352 LINE",
"44 352 LINE"
);
}
);
width = 222;
}
);
leftKerningGroup = f;
note = f;
rightKerningGroup = f;
unicode = 0066;
},
{
glyphname = g;
lastChange = "2021-09-24 03:41:18 +0000";
layers = (
{
anchors = (
{
name = bottom;
position = "{276, -350}";
},
{
name = top;
position = "{296, 399}";
}
);
background = {
anchors = (
{
name = bottom;
position = "{276, -350}";
},
{
name = top;
position = "{296, 399}";
}
);
paths = (
{
closed = 1;
nodes = (
"42 -22 OFFCURVE",
"42 -53 OFFCURVE",
"42 -62 CURVE SMOOTH",
"42 -135 OFFCURVE",
"177 -124 OFFCURVE",
"258 -124 CURVE SMOOTH",
"449 -124 OFFCURVE",
"540 -92 OFFCURVE",
"538 86 CURVE SMOOTH",
"537 166 OFFCURVE",
"538 246 OFFCURVE",
"538 326 CURVE SMOOTH",
"538 355 OFFCURVE",
"538 382 OFFCURVE",
"540 387 CURVE",
"517 389 OFFCURVE",
"366 401 OFFCURVE",
"314 401 CURVE SMOOTH",
"110 401 OFFCURVE",
"12 378 OFFCURVE",
"12 228 CURVE SMOOTH",
"12 43 OFFCURVE",
"75 22 OFFCURVE",
"216 22 CURVE SMOOTH",
"289 22 OFFCURVE",
"323 39 OFFCURVE",
"330 67 CURVE",
"330 1 OFFCURVE",
"306 -36 OFFCURVE",
"209 -36 CURVE SMOOTH",
"150 -36 OFFCURVE",
"58 -22 OFFCURVE",
"42 -15 CURVE"
);
},
{
closed = 1;
nodes = (
"331 212 LINE",
"331 144 OFFCURVE",
"296 134 OFFCURVE",
"278 134 CURVE SMOOTH",
"244 134 OFFCURVE",
"225 136 OFFCURVE",
"225 230 CURVE SMOOTH",
"225 282 OFFCURVE",
"238 294 OFFCURVE",
"276 294 CURVE SMOOTH",
"306 294 OFFCURVE",
"323 293 OFFCURVE",
"331 293 CURVE"
);
},
{
closed = 1;
nodes = (
"457 -7 OFFCURVE",
"538 33 OFFCURVE",
"538 199 CURVE SMOOTH",
"538 365 OFFCURVE",
"458 405 OFFCURVE",
"283 405 CURVE SMOOTH",
"105 405 OFFCURVE",
"24 365 OFFCURVE",
"24 199 CURVE SMOOTH",
"24 33 OFFCURVE",
"105 -7 OFFCURVE",
"283 -7 CURVE SMOOTH"
);
},
{
closed = 1;
nodes = (
"248 92 OFFCURVE",
"232 115 OFFCURVE",
"232 199 CURVE SMOOTH",
"232 283 OFFCURVE",
"248 306 OFFCURVE",
"283 306 CURVE SMOOTH",
"318 306 OFFCURVE",
"330 283 OFFCURVE",
"330 199 CURVE SMOOTH",
"330 115 OFFCURVE",
"318 92 OFFCURVE",
"283 92 CURVE SMOOTH"
);
},
{
closed = 1;
nodes = (
"448 -124 OFFCURVE",
"536 -92 OFFCURVE",
"536 86 CURVE SMOOTH",
"536 326 LINE SMOOTH",
"536 355 OFFCURVE",
"536 382 OFFCURVE",
"538 387 CURVE",
"515 389 OFFCURVE",
"365 401 OFFCURVE",
"306 401 CURVE SMOOTH",
"83 401 OFFCURVE",
"24 360 OFFCURVE",
"24 199 CURVE SMOOTH",
"24 65 OFFCURVE",
"71 22 OFFCURVE",
"201 22 CURVE SMOOTH",
"307 22 OFFCURVE",
"324 42 OFFCURVE",
"347 98 CURVE",
"328 101 LINE",
"339 7 OFFCURVE",
"322 -36 OFFCURVE",
"209 -36 CURVE SMOOTH",
"154 -36 OFFCURVE",
"70 -22 OFFCURVE",
"54 -15 CURVE",
"54 -22 OFFCURVE",
"54 -53 OFFCURVE",
"54 -62 CURVE SMOOTH",
"54 -135 OFFCURVE",
"182 -124 OFFCURVE",
"258 -124 CURVE SMOOTH"
);
},
{
closed = 1;
nodes = (
"249 134 OFFCURVE",
"232 148 OFFCURVE",
"232 212 CURVE SMOOTH",
"232 281 OFFCURVE",
"242 294 OFFCURVE",
"276 294 CURVE SMOOTH",
"296 294 OFFCURVE",
"323 293 OFFCURVE",
"331 293 CURVE",
"331 212 LINE SMOOTH",
"331 144 OFFCURVE",
"301 134 OFFCURVE",
"278 134 CURVE SMOOTH"
);
}
);
};
guideLines = (
{
position = "{562, 105}";
},
{
position = "{562, -109}";
}
);
layerId = "C7668D88-AC50-4107-9C4B-DB5D26A8FA6C";
paths = (
{
closed = 1;
nodes = (
"448 -124 OFFCURVE",
"536 -92 OFFCURVE",
"536 86 CURVE SMOOTH",
"536 326 LINE SMOOTH",
"536 355 OFFCURVE",
"536 382 OFFCURVE",
"538 387 CURVE",
"515 389 OFFCURVE",
"365 401 OFFCURVE",
"306 401 CURVE SMOOTH",
"83 401 OFFCURVE",
"24 360 OFFCURVE",
"24 199 CURVE SMOOTH",
"24 65 OFFCURVE",
"71 22 OFFCURVE",
"201 22 CURVE SMOOTH",
"307 22 OFFCURVE",
"324 42 OFFCURVE",
"347 98 CURVE",
"328 101 LINE",
"339 7 OFFCURVE",
"322 -36 OFFCURVE",
"209 -36 CURVE SMOOTH",
"154 -36 OFFCURVE",
"70 -22 OFFCURVE",
"54 -15 CURVE",
"54 -22 OFFCURVE",
"54 -44 OFFCURVE",
"54 -53 CURVE SMOOTH",
"54 -114 OFFCURVE",
"98 -124 OFFCURVE",
"249 -124 CURVE SMOOTH"
);
},
{
closed = 1;
nodes = (
"249 134 OFFCURVE",
"232 148 OFFCURVE",
"232 212 CURVE SMOOTH",
"232 281 OFFCURVE",
"242 294 OFFCURVE",
"276 294 CURVE SMOOTH",
"296 294 OFFCURVE",
"323 293 OFFCURVE",
"331 293 CURVE",
"331 212 LINE SMOOTH",
"331 144 OFFCURVE",
"301 134 OFFCURVE",
"278 134 CURVE SMOOTH"
);
}
);
width = 564;
},
{
anchors = (
{
name = bottom;
position = "{225, -350}";
},
{
name = top;
position = "{226, 399}";
}
);
layerId = "B5FD97B6-BD2C-4287-9857-851C623D3F63";
paths = (
{
closed = 1;
nodes = (
"348 -111 OFFCURVE",
"393 -61 OFFCURVE",
"394 66 CURVE SMOOTH",
"395 302 LINE SMOOTH",
"395 334 OFFCURVE",
"395 382 OFFCURVE",
"398 390 CURVE",
"379 394 OFFCURVE",
"295 402 OFFCURVE",
"239 402 CURVE SMOOTH",
"108 402 OFFCURVE",
"51 379 OFFCURVE",
"51 203 CURVE SMOOTH",
"51 37 OFFCURVE",
"107 12 OFFCURVE",
"219 12 CURVE SMOOTH",
"283 12 OFFCURVE",
"366 28 OFFCURVE",
"386 99 CURVE",
"372 98 LINE",
"377 -45 OFFCURVE",
"340 -94 OFFCURVE",
"222 -94 CURVE SMOOTH",
"181 -94 OFFCURVE",
"107 -85 OFFCURVE",
"76 -67 CURVE",
"76 -70 OFFCURVE",
"76 -75 OFFCURVE",
"76 -78 CURVE SMOOTH",
"76 -105 OFFCURVE",
"197 -111 OFFCURVE",
"224 -111 CURVE SMOOTH"
);
},
{
closed = 1;
nodes = (
"111 30 OFFCURVE",
"75 64 OFFCURVE",
"75 209 CURVE SMOOTH",
"75 349 OFFCURVE",
"116 384 OFFCURVE",
"236 384 CURVE SMOOTH",
"304 384 OFFCURVE",
"357 376 OFFCURVE",
"372 372 CURVE",
"372 123 LINE SMOOTH",
"369 57 OFFCURVE",
"304 30 OFFCURVE",
"213 30 CURVE SMOOTH"
);
}
);
width = 462;
}
);
leftKerningGroup = o;
leftMetricsKey = o;
note = g;
rightKerningGroup = g;
rightMetricsKey = n;
unicode = 0067;
},
{
glyphname = h;
lastChange = "2021-09-24 03:41:18 +0000";
layers = (
{
anchors = (
{
name = bottom;
position = "{294, 0}";
},
{
name = center;
position = "{146, 447}";
},
{
name = top;
position = "{139, 505}";
}
);
background = {
anchors = (
{
name = bottom;
position = "{294, 0}";
},
{
name = center;
position = "{294, 480}";
},
{
name = top;
position = "{139, 505}";
}
);
paths = (
{
closed = 1;
nodes = (
"34 356 OFFCURVE",
"34 206 OFFCURVE",
"34 57 CURVE SMOOTH",
"34 -10 OFFCURVE",
"58 0 OFFCURVE",
"241 0 CURVE",
"241 99 OFFCURVE",
"241 199 OFFCURVE",
"241 298 CURVE",
"242 302 OFFCURVE",
"276 306 OFFCURVE",
"285 306 CURVE SMOOTH",
"351 306 OFFCURVE",
"351 281 OFFCURVE",
"351 225 CURVE SMOOTH",
"351 150 OFFCURVE",
"351 75 OFFCURVE",
"351 0 CURVE",
"520 0 OFFCURVE",
"553 -15 OFFCURVE",
"553 80 CURVE SMOOTH",
"553 93 OFFCURVE",
"553 151 OFFCURVE",
"553 198 CURVE SMOOTH",
"553 350 OFFCURVE",
"538 398 OFFCURVE",
"312 398 CURVE SMOOTH",
"297 398 OFFCURVE",
"261 398 OFFCURVE",
"241 396 CURVE",
"241 432 OFFCURVE",
"241 469 OFFCURVE",
"241 505 CURVE",
"172 505 OFFCURVE",
"103 505 OFFCURVE",
"34 505 CURVE"
);
}
);
};
layerId = "C7668D88-AC50-4107-9C4B-DB5D26A8FA6C";
paths = (
{
closed = 1;
nodes = (
"241 0 LINE",
"241 298 LINE",
"251 302 OFFCURVE",
"269 306 OFFCURVE",
"285 306 CURVE SMOOTH",
"338 306 OFFCURVE",
"351 294 OFFCURVE",
"351 234 CURVE SMOOTH",
"351 0 LINE",
"465 0 LINE SMOOTH",
"536 0 OFFCURVE",
"553 12 OFFCURVE",
"553 80 CURVE SMOOTH",
"553 211 LINE SMOOTH",
"553 357 OFFCURVE",
"522 398 OFFCURVE",
"325 398 CURVE SMOOTH",
"297 398 OFFCURVE",
"262 395 OFFCURVE",
"241 392 CURVE",
"241 505 LINE",
"34 505 LINE",
"34 57 LINE SMOOTH",
"34 14 OFFCURVE",
"44 0 OFFCURVE",
"105 0 CURVE SMOOTH"
);
}
);
width = 579;
},
{
anchors = (
{
name = bottom;
position = "{227, 0}";
},
{
name = center;
position = "{109, 463}";
},
{
name = top;
position = "{80, 468}";
}
);
layerId = "B5FD97B6-BD2C-4287-9857-851C623D3F63";
paths = (
{
closed = 1;
nodes = (
"91 0 LINE",
"91 365 LINE",
"118 376 OFFCURVE",
"189 381 OFFCURVE",
"225 381 CURVE SMOOTH",
"311 381 OFFCURVE",
"363 359 OFFCURVE",
"363 250 CURVE SMOOTH",
"363 0 LINE",
"370 0 LINE SMOOTH",
"383 0 OFFCURVE",
"385 3 OFFCURVE",
"385 25 CURVE SMOOTH",
"385 236 LINE SMOOTH",
"385 331 OFFCURVE",
"374 399 OFFCURVE",
"225 399 CURVE SMOOTH",
"181 399 OFFCURVE",
"115 392 OFFCURVE",
"91 383 CURVE",
"91 504 LINE",
"69 504 LINE",
"69 22 LINE SMOOTH",
"69 2 OFFCURVE",
"70 0 OFFCURVE",
"83 0 CURVE SMOOTH"
);
}
);
width = 449;
}
);
leftKerningGroup = h;
leftMetricsKey = n;
note = h;
rightKerningGroup = n;
rightMetricsKey = n;
unicode = 0068;
},
{
glyphname = i;
lastChange = "2021-09-24 03:44:21 +0000";
layers = (
{
anchors = (
{
name = bottom;
position = "{198, 0}";
}
);
background = {
anchors = (
{
name = bottom;
position = "{198, 0}";
}
);
paths = (
{
closed = 1;
nodes = (
"168 399 OFFCURVE",
"99 399 OFFCURVE",
"30 399 CURVE",
"30 360 OFFCURVE",
"29 207 OFFCURVE",
"29 132 CURVE SMOOTH",
"29 69 OFFCURVE",
"-5 -5 OFFCURVE",
"210 -5 CURVE SMOOTH",
"274 -5 OFFCURVE",
"298 5 OFFCURVE",
"309 7 CURVE",
"309 79 LINE",
"306 77 OFFCURVE",
"299 73 OFFCURVE",
"288 73 CURVE SMOOTH",
"238 73 OFFCURVE",
"237 99 OFFCURVE",
"237 152 CURVE SMOOTH",
"237 234 OFFCURVE",
"237 317 OFFCURVE",
"237 399 CURVE"
);
},
{
closed = 1;
nodes = (
"54 442 OFFCURVE",
"89 440 OFFCURVE",
"140 440 CURVE SMOOTH",
"190 440 OFFCURVE",
"225 442 OFFCURVE",
"225 494 CURVE SMOOTH",
"225 541 OFFCURVE",
"193 547 OFFCURVE",
"143 548 CURVE SMOOTH",
"93 548 OFFCURVE",
"54 543 OFFCURVE",
"54 494 CURVE SMOOTH"
);
},
{
closed = 1;
nodes = (
"185 440 OFFCURVE",
"220 442 OFFCURVE",
"220 494 CURVE SMOOTH",
"220 541 OFFCURVE",
"188 547 OFFCURVE",
"138 548 CURVE SMOOTH",
"88 548 OFFCURVE",
"49 543 OFFCURVE",
"49 494 CURVE SMOOTH",
"49 442 OFFCURVE",
"84 440 OFFCURVE",
"135 440 CURVE SMOOTH"
);
}
);
};
layerId = "C7668D88-AC50-4107-9C4B-DB5D26A8FA6C";
paths = (
{
closed = 1;
nodes = (
"274 -5 OFFCURVE",
"298 5 OFFCURVE",
"309 7 CURVE",
"309 79 LINE",
"306 77 OFFCURVE",
"299 73 OFFCURVE",
"277 73 CURVE SMOOTH",
"249 73 OFFCURVE",
"237 90 OFFCURVE",
"237 124 CURVE SMOOTH",
"237 399 LINE",
"30 399 LINE",
"29 116 LINE SMOOTH",
"29 26 OFFCURVE",
"66 -5 OFFCURVE",
"176 -5 CURVE SMOOTH"
);
},
{
closed = 1;
nodes = (
"203 440 OFFCURVE",
"220 452 OFFCURVE",
"220 494 CURVE SMOOTH",
"221 533 OFFCURVE",
"200 547 OFFCURVE",
"138 548 CURVE SMOOTH",
"73 548 OFFCURVE",
"49 534 OFFCURVE",
"49 494 CURVE SMOOTH",
"49 452 OFFCURVE",
"70 440 OFFCURVE",
"136 440 CURVE SMOOTH"
);
}
);
width = 317;
},
{
anchors = (
{
name = bottom;
position = "{135, 0}";
}
);
layerId = "B5FD97B6-BD2C-4287-9857-851C623D3F63";
paths = (
{
closed = 1;
nodes = (
"146 -3 OFFCURVE",
"165 0 OFFCURVE",
"172 2 CURVE",
"172 19 LINE",
"167 16 OFFCURVE",
"143 14 OFFCURVE",
"136 14 CURVE SMOOTH",
"104 14 OFFCURVE",
"94 28 OFFCURVE",
"94 89 CURVE SMOOTH",
"94 399 LINE",
"72 399 LINE",
"72 86 LINE SMOOTH",
"72 31 OFFCURVE",
"81 -3 OFFCURVE",
"127 -3 CURVE SMOOTH"
);
},
{
closed = 1;
nodes = (
"91 463 OFFCURVE",
"102 465 OFFCURVE",
"102 479 CURVE SMOOTH",
"102 495 OFFCURVE",
"92 496 OFFCURVE",
"82 496 CURVE SMOOTH",
"72 496 OFFCURVE",
"64 494 OFFCURVE",
"64 479 CURVE SMOOTH",
"64 465 OFFCURVE",
"75 463 OFFCURVE",
"83 463 CURVE SMOOTH"
);
}
);
width = 180;
}
);
leftKerningGroup = i;
leftMetricsKey = "=n-5";
note = i;
rightKerningGroup = i;
unicode = 0069;
},
{
glyphname = idotless;
lastChange = "2021-09-24 03:41:18 +0000";
layers = (
{
anchors = (
{
name = bottom;
position = "{163, 0}";
},
{
name = ogonek;
position = "{295, 10}";
},
{
name = top;
position = "{132, 399}";
}
);
background = {
anchors = (
{
name = bottom;
position = "{163, 0}";
},
{
name = ogonek;
position = "{295, 10}";
},
{
name = top;
position = "{132, 399}";
}
);
paths = (
{
closed = 1;
nodes = (
"169 399 OFFCURVE",
"100 399 OFFCURVE",
"31 399 CURVE",
"31 360 OFFCURVE",
"30 207 OFFCURVE",
"30 132 CURVE SMOOTH",
"30 69 OFFCURVE",
"-4 -5 OFFCURVE",
"211 -5 CURVE SMOOTH",
"275 -5 OFFCURVE",
"299 5 OFFCURVE",
"310 7 CURVE",
"310 79 LINE",
"307 77 OFFCURVE",
"300 73 OFFCURVE",
"289 73 CURVE SMOOTH",
"239 73 OFFCURVE",
"238 99 OFFCURVE",
"238 152 CURVE SMOOTH",
"238 234 OFFCURVE",
"238 317 OFFCURVE",
"238 399 CURVE"
);
}
);
};
layerId = "C7668D88-AC50-4107-9C4B-DB5D26A8FA6C";
paths = (
{
closed = 1;
nodes = (
"273 -5 OFFCURVE",
"297 5 OFFCURVE",
"308 7 CURVE",
"308 79 LINE",
"305 77 OFFCURVE",
"298 73 OFFCURVE",
"276 73 CURVE SMOOTH",
"248 73 OFFCURVE",
"236 90 OFFCURVE",
"236 124 CURVE SMOOTH",
"236 399 LINE",
"29 399 LINE",
"28 116 LINE SMOOTH",
"28 26 OFFCURVE",
"65 -5 OFFCURVE",
"175 -5 CURVE SMOOTH"
);
}
);
width = 316;
},
{
anchors = (
{
name = bottom;
position = "{91, 0}";
},
{
name = ogonek;
position = "{126, 10}";
},
{
name = top;
position = "{61, 399}";
}
);
layerId = "B5FD97B6-BD2C-4287-9857-851C623D3F63";
paths = (
{
closed = 1;
nodes = (
"137 -3 OFFCURVE",
"156 0 OFFCURVE",
"163 2 CURVE",
"163 19 LINE",
"158 16 OFFCURVE",
"135 14 OFFCURVE",
"127 14 CURVE SMOOTH",
"95 14 OFFCURVE",
"85 28 OFFCURVE",
"85 89 CURVE SMOOTH",
"85 399 LINE",
"63 399 LINE",
"63 86 LINE SMOOTH",
"63 31 OFFCURVE",
"72 -3 OFFCURVE",
"118 -3 CURVE SMOOTH"
);
}
);
width = 171;
}
);
note = dotlessi;
rightKerningGroup = i;
rightMetricsKey = i;
unicode = 0131;
},
{
glyphname = j;
lastChange = "2021-09-24 03:41:18 +0000";
layers = (
{
background = {
paths = (
{
closed = 1;
nodes = (
"-64 -46 OFFCURVE",
"-64 -70 OFFCURVE",
"-64 -94 CURVE",
"-53 -96 OFFCURVE",
"-2 -106 OFFCURVE",
"62 -106 CURVE SMOOTH",
"277 -106 OFFCURVE",
"243 -3 OFFCURVE",
"243 60 CURVE SMOOTH",
"243 135 OFFCURVE",
"242 360 OFFCURVE",
"242 399 CURVE",
"197 399 OFFCURVE",
"151 399 OFFCURVE",
"106 399 CURVE SMOOTH",
"44 399 OFFCURVE",
"35 387 OFFCURVE",
"35 329 CURVE SMOOTH",
"35 236 OFFCURVE",
"35 144 OFFCURVE",
"35 51 CURVE SMOOTH",
"35 -2 OFFCURVE",
"34 -28 OFFCURVE",
"-16 -28 CURVE SMOOTH",
"-27 -28 OFFCURVE",
"-55 -25 OFFCURVE",
"-64 -22 CURVE"
);
},
{
closed = 1;
nodes = (
"55 442 OFFCURVE",
"90 440 OFFCURVE",
"141 440 CURVE SMOOTH",
"191 440 OFFCURVE",
"226 442 OFFCURVE",
"226 494 CURVE SMOOTH",
"226 541 OFFCURVE",
"194 547 OFFCURVE",
"144 548 CURVE SMOOTH",
"94 548 OFFCURVE",
"55 543 OFFCURVE",
"55 494 CURVE SMOOTH"
);
}
);
};
layerId = "C7668D88-AC50-4107-9C4B-DB5D26A8FA6C";
paths = (
{
closed = 1;
nodes = (
"212 -106 OFFCURVE",
"243 -66 OFFCURVE",
"243 29 CURVE SMOOTH",
"242 399 LINE",
"106 399 LINE SMOOTH",
"44 399 OFFCURVE",
"35 387 OFFCURVE",
"35 329 CURVE SMOOTH",
"35 51 LINE SMOOTH",
"35 -2 OFFCURVE",
"34 -28 OFFCURVE",
"-16 -28 CURVE SMOOTH",
"-27 -28 OFFCURVE",
"-55 -25 OFFCURVE",
"-64 -22 CURVE",
"-64 -94 LINE",
"-53 -96 OFFCURVE",
"-2 -106 OFFCURVE",
"62 -106 CURVE SMOOTH"
);
},
{
closed = 1;
nodes = (
"209 440 OFFCURVE",
"226 452 OFFCURVE",
"226 494 CURVE SMOOTH",
"227 533 OFFCURVE",
"206 547 OFFCURVE",
"144 548 CURVE SMOOTH",
"79 548 OFFCURVE",
"55 534 OFFCURVE",
"55 494 CURVE SMOOTH",
"55 452 OFFCURVE",
"76 440 OFFCURVE",
"142 440 CURVE SMOOTH"
);
}
);
width = 271;
},
{
layerId = "B5FD97B6-BD2C-4287-9857-851C623D3F63";
paths = (
{
closed = 1;
nodes = (
"89 -85 OFFCURVE",
"99 -64 OFFCURVE",
"99 1 CURVE SMOOTH",
"99 399 LINE",
"90 399 LINE SMOOTH",
"78 399 OFFCURVE",
"77 394 OFFCURVE",
"77 384 CURVE SMOOTH",
"77 -2 LINE SMOOTH",
"77 -56 OFFCURVE",
"71 -68 OFFCURVE",
"35 -68 CURVE SMOOTH",
"21 -68 OFFCURVE",
"-2 -66 OFFCURVE",
"-9 -65 CURVE",
"-9 -82 LINE",
"-1 -83 OFFCURVE",
"19 -85 OFFCURVE",
"39 -85 CURVE SMOOTH"
);
},
{
closed = 1;
nodes = (
"97 463 OFFCURVE",
"108 465 OFFCURVE",
"108 479 CURVE SMOOTH",
"108 495 OFFCURVE",
"98 496 OFFCURVE",
"88 496 CURVE SMOOTH",
"78 496 OFFCURVE",
"70 494 OFFCURVE",
"70 479 CURVE SMOOTH",
"70 465 OFFCURVE",
"81 463 OFFCURVE",
"89 463 CURVE SMOOTH"
);
}
);
width = 167;
}
);
leftKerningGroup = j;
note = j;
rightKerningGroup = d;
unicode = 006A;
},
{
glyphname = jdotless;
lastChange = "2021-09-24 03:41:18 +0000";
layers = (
{
anchors = (
{
name = bottom;
position = "{172, -350}";
},
{
name = top;
position = "{215, 399}";
}
);
background = {
anchors = (
{
name = bottom;
position = "{172, -350}";
},
{
name = top;
position = "{215, 399}";
}
);
paths = (
{
closed = 1;
nodes = (
"0 -46 OFFCURVE",
"0 -70 OFFCURVE",
"0 -94 CURVE",
"11 -96 OFFCURVE",
"62 -106 OFFCURVE",
"126 -106 CURVE SMOOTH",
"341 -106 OFFCURVE",
"307 -3 OFFCURVE",
"307 60 CURVE SMOOTH",
"307 135 OFFCURVE",
"306 360 OFFCURVE",
"306 399 CURVE",
"261 399 OFFCURVE",
"215 399 OFFCURVE",
"170 399 CURVE SMOOTH",
"108 399 OFFCURVE",
"99 387 OFFCURVE",
"99 329 CURVE SMOOTH",
"99 236 OFFCURVE",
"99 144 OFFCURVE",
"99 51 CURVE SMOOTH",
"99 -2 OFFCURVE",
"98 -28 OFFCURVE",
"48 -28 CURVE SMOOTH",
"37 -28 OFFCURVE",
"9 -25 OFFCURVE",
"0 -22 CURVE"
);
}
);
};
layerId = "C7668D88-AC50-4107-9C4B-DB5D26A8FA6C";
paths = (
{
closed = 1;
nodes = (
"0 -46 OFFCURVE",
"0 -70 OFFCURVE",
"0 -94 CURVE",
"11 -96 OFFCURVE",
"62 -106 OFFCURVE",
"126 -106 CURVE SMOOTH",
"341 -106 OFFCURVE",
"307 -3 OFFCURVE",
"307 60 CURVE SMOOTH",
"307 135 OFFCURVE",
"306 360 OFFCURVE",
"306 399 CURVE",
"261 399 OFFCURVE",
"215 399 OFFCURVE",
"170 399 CURVE SMOOTH",
"108 399 OFFCURVE",
"99 387 OFFCURVE",
"99 329 CURVE SMOOTH",
"99 236 OFFCURVE",
"99 144 OFFCURVE",
"99 51 CURVE SMOOTH",
"99 -2 OFFCURVE",
"98 -28 OFFCURVE",
"48 -28 CURVE SMOOTH",
"37 -28 OFFCURVE",
"9 -25 OFFCURVE",
"0 -22 CURVE"
);
}
);
width = 344;
},
{
anchors = (
{
name = bottom;
position = "{99, -350}";
},
{
name = top;
position = "{120, 399}";
}
);
layerId = "B5FD97B6-BD2C-4287-9857-851C623D3F63";
paths = (
{
closed = 1;
nodes = (
"20 -72 OFFCURVE",
"20 -77 OFFCURVE",
"20 -82 CURVE",
"28 -83 OFFCURVE",
"50 -85 OFFCURVE",
"70 -85 CURVE SMOOTH",
"129 -85 OFFCURVE",
"128 -49 OFFCURVE",
"128 28 CURVE SMOOTH",
"128 151 OFFCURVE",
"128 277 OFFCURVE",
"128 399 CURVE",
"125 399 OFFCURVE",
"122 399 OFFCURVE",
"119 399 CURVE SMOOTH",
"107 399 OFFCURVE",
"106 394 OFFCURVE",
"106 384 CURVE SMOOTH",
"106 259 OFFCURVE",
"106 132 OFFCURVE",
"106 7 CURVE SMOOTH",
"106 -46 OFFCURVE",
"104 -70 OFFCURVE",
"64 -70 CURVE SMOOTH",
"50 -70 OFFCURVE",
"27 -68 OFFCURVE",
"20 -67 CURVE"
);
}
);
width = 196;
}
);
leftKerningGroup = bracketleft;
note = jcircumflex;
rightKerningGroup = one;
unicode = 0237;
},
{
glyphname = k;
lastChange = "2021-09-24 03:41:18 +0000";
layers = (
{
anchors = (
{
name = bottom;
position = "{347, 0}";
},
{
name = top;
position = "{347, 960}";
}
);
background = {
anchors = (
{
name = bottom;
position = "{347, 0}";
},
{
name = top;
position = "{347, 960}";
}
);
paths = (
{
closed = 1;
nodes = (
"104 0 OFFCURVE",
"173 0 OFFCURVE",
"242 0 CURVE",
"242 39 OFFCURVE",
"242 77 OFFCURVE",
"242 116 CURVE",
"242 116 LINE SMOOTH",
"354 0 OFFCURVE",
"374 0 OFFCURVE",
"412 0 CURVE SMOOTH",
"494 0 OFFCURVE",
"579 -3 OFFCURVE",
"659 0 CURVE",
"656 2 OFFCURVE",
"628 23 OFFCURVE",
"638 15 CURVE",
"628 23 OFFCURVE",
"620 29 OFFCURVE",
"586 62 CURVE",
"481 164 OFFCURVE",
"442 210 OFFCURVE",
"402 249 CURVE",
"419 263 OFFCURVE",
"496 319 OFFCURVE",
"502 323 CURVE SMOOTH",
"550 358 OFFCURVE",
"606 394 OFFCURVE",
"611 399 CURVE",
"513 399 OFFCURVE",
"410 418 OFFCURVE",
"361 377 CURVE",
"361 383 OFFCURVE",
"242 272 OFFCURVE",
"242 276 CURVE",
"242 276 OFFCURVE",
"244 498 OFFCURVE",
"246 505 CURVE",
"197 505 OFFCURVE",
"147 505 OFFCURVE",
"104 505 CURVE SMOOTH",
"37 505 OFFCURVE",
"34 479 OFFCURVE",
"34 436 CURVE SMOOTH",
"34 401 OFFCURVE",
"35 22 OFFCURVE",
"35 0 CURVE"
);
}
);
};
layerId = "C7668D88-AC50-4107-9C4B-DB5D26A8FA6C";
paths = (
{
closed = 1;
nodes = (
"243 0 LINE",
"243 116 LINE",
"259 100 LINE",
"321 40 LINE SMOOTH",
"350 12 OFFCURVE",
"372 -1 OFFCURVE",
"436 -1 CURVE SMOOTH",
"497 -1 OFFCURVE",
"579 -1 OFFCURVE",
"659 0 CURVE",
"636 16 OFFCURVE",
"610 38 OFFCURVE",
"586 62 CURVE SMOOTH",
"402 249 LINE",
"523 338 LINE SMOOTH",
"550 358 OFFCURVE",
"599 390 OFFCURVE",
"611 399 CURVE",
"573 400 OFFCURVE",
"528 403 OFFCURVE",
"474 403 CURVE SMOOTH",
"402 403 OFFCURVE",
"376 392 OFFCURVE",
"343 363 CURVE SMOOTH",
"243 276 LINE",
"243 505 LINE",
"104 505 LINE SMOOTH",
"44 505 OFFCURVE",
"34 489 OFFCURVE",
"34 436 CURVE SMOOTH",
"35 0 LINE"
);
}
);
width = 628;
},
{
anchors = (
{
name = bottom;
position = "{212, 0}";
},
{
name = top;
position = "{212, 960}";
}
);
layerId = "B5FD97B6-BD2C-4287-9857-851C623D3F63";
paths = (
{
closed = 1;
nodes = (
"91 0 LINE",
"91 126 LINE",
"166 207 LINE",
"334 13 LINE SMOOTH",
"343 2 OFFCURVE",
"348 -1 OFFCURVE",
"357 -1 CURVE SMOOTH",
"363 -1 OFFCURVE",
"369 -1 OFFCURVE",
"374 0 CURVE",
"366 9 OFFCURVE",
"358 17 OFFCURVE",
"350 28 CURVE SMOOTH",
"182 224 LINE",
"316 369 LINE SMOOTH",
"327 381 OFFCURVE",
"342 395 OFFCURVE",
"347 399 CURVE",
"342 400 OFFCURVE",
"336 400 OFFCURVE",
"329 400 CURVE SMOOTH",
"320 399 OFFCURVE",
"312 395 OFFCURVE",
"306 387 CURVE SMOOTH",
"91 152 LINE",
"91 506 LINE",
"81 506 LINE SMOOTH",
"72 506 OFFCURVE",
"69 503 OFFCURVE",
"69 492 CURVE SMOOTH",
"69 0 LINE"
);
}
);
width = 372;
}
);
leftKerningGroup = h;
leftMetricsKey = n;
note = k;
rightKerningGroup = k;
unicode = 006B;
},
{
glyphname = kgreenlandic;
lastChange = "2021-09-24 03:41:18 +0000";
layers = (
{
background = {
hints = (
{
horizontal = 1;
place = "{0, 96}";
type = Stem;
},
{
horizontal = 1;
place = "{180, 97}";
type = Stem;
},
{
horizontal = 1;
place = "{364, 96}";
type = Stem;
},
{
place = "{208, 11}";
type = Stem;
}
);
paths = (
{
closed = 1;
nodes = (
"110 0 OFFCURVE",
"305 0 OFFCURVE",
"311 0 CURVE",
"311 42 OFFCURVE",
"311 65 OFFCURVE",
"311 107 CURVE",
"311 117 LINE",
"321 105 OFFCURVE",
"359 61 OFFCURVE",
"375 41 CURVE SMOOTH",
"407 2 OFFCURVE",
"441 -1 OFFCURVE",
"503 -1 CURVE SMOOTH",
"583 -1 OFFCURVE",
"723 5 OFFCURVE",
"728 0 CURVE",
"728 0 OFFCURVE",
"705 20 OFFCURVE",
"701 24 CURVE SMOOTH",
"670 55 OFFCURVE",
"531 189 OFFCURVE",
"471 250 CURVE",
"471 250 OFFCURVE",
"532 298 OFFCURVE",
"619 370 CURVE SMOOTH",
"631 380 OFFCURVE",
"642 389 OFFCURVE",
"662 399 CURVE",
"654 399 OFFCURVE",
"465 399 OFFCURVE",
"457 399 CURVE",
"440 385 OFFCURVE",
"321 286 OFFCURVE",
"311 275 CURVE",
"311 442 OFFCURVE",
"311 334 OFFCURVE",
"311 342 CURVE SMOOTH",
"311 428 OFFCURVE",
"116 433 OFFCURVE",
"5 406 CURVE",
"5 404 OFFCURVE",
"5 335 OFFCURVE",
"5 334 CURVE",
"23 338 OFFCURVE",
"103 353 OFFCURVE",
"103 305 CURVE SMOOTH",
"103 264 OFFCURVE",
"104 89 OFFCURVE",
"104 0 CURVE"
);
}
);
};
layerId = "C7668D88-AC50-4107-9C4B-DB5D26A8FA6C";
paths = (
{
closed = 1;
nodes = (
"110 0 OFFCURVE",
"305 0 OFFCURVE",
"311 0 CURVE",
"311 42 OFFCURVE",
"311 65 OFFCURVE",
"311 107 CURVE",
"311 117 LINE",
"321 105 OFFCURVE",
"359 61 OFFCURVE",
"375 41 CURVE SMOOTH",
"407 2 OFFCURVE",
"441 -1 OFFCURVE",
"503 -1 CURVE SMOOTH",
"583 -1 OFFCURVE",
"723 5 OFFCURVE",
"728 0 CURVE",
"728 0 OFFCURVE",
"705 20 OFFCURVE",
"701 24 CURVE SMOOTH",
"670 55 OFFCURVE",
"531 189 OFFCURVE",
"471 250 CURVE",
"471 250 OFFCURVE",
"532 298 OFFCURVE",
"619 370 CURVE SMOOTH",
"631 380 OFFCURVE",
"642 389 OFFCURVE",
"662 399 CURVE",
"654 399 OFFCURVE",
"465 399 OFFCURVE",
"457 399 CURVE",
"440 385 OFFCURVE",
"321 286 OFFCURVE",
"311 275 CURVE",
"311 442 OFFCURVE",
"311 334 OFFCURVE",
"311 342 CURVE SMOOTH",
"311 428 OFFCURVE",
"116 433 OFFCURVE",
"5 406 CURVE",
"5 404 OFFCURVE",
"5 335 OFFCURVE",
"5 334 CURVE",
"23 338 OFFCURVE",
"103 353 OFFCURVE",
"103 305 CURVE SMOOTH",
"103 264 OFFCURVE",
"104 89 OFFCURVE",
"104 0 CURVE"
);
}
);
width = 733;
},
{
layerId = "B5FD97B6-BD2C-4287-9857-851C623D3F63";
paths = (
{
closed = 1;
nodes = (
"93 0 OFFCURVE",
"104 0 OFFCURVE",
"110 0 CURVE",
"110 42 OFFCURVE",
"110 84 OFFCURVE",
"110 126 CURVE",
"185 207 LINE",
"241 142 OFFCURVE",
"296 78 OFFCURVE",
"352 13 CURVE SMOOTH",
"362 2 OFFCURVE",
"367 -1 OFFCURVE",
"376 -1 CURVE SMOOTH",
"382 -1 OFFCURVE",
"393 0 OFFCURVE",
"393 0 CURVE",
"393 0 OFFCURVE",
"391 3 OFFCURVE",
"387 7 CURVE SMOOTH",
"359 40 OFFCURVE",
"241 176 OFFCURVE",
"201 224 CURVE",
"245 272 OFFCURVE",
"290 321 OFFCURVE",
"336 370 CURVE SMOOTH",
"346 381 OFFCURVE",
"360 395 OFFCURVE",
"365 399 CURVE",
"357 399 OFFCURVE",
"346 399 OFFCURVE",
"338 399 CURVE",
"226 274 OFFCURVE",
"135 175 OFFCURVE",
"110 149 CURVE",
"110 270 OFFCURVE",
"110 219 OFFCURVE",
"110 358 CURVE SMOOTH",
"110 421 OFFCURVE",
"20 398 OFFCURVE",
"15 397 CURVE",
"15 395 OFFCURVE",
"15 382 OFFCURVE",
"15 381 CURVE",
"33 385 OFFCURVE",
"86 398 OFFCURVE",
"86 350 CURVE SMOOTH",
"86 309 OFFCURVE",
"87 89 OFFCURVE",
"87 0 CURVE"
);
}
);
width = 408;
}
);
note = kgreenlandic;
unicode = 0138;
},
{
glyphname = l;
lastChange = "2021-09-24 03:41:18 +0000";
layers = (
{
anchors = (
{
name = bottom;
position = "{171, 0}";
},
{
name = center;
position = "{171, 480}";
},
{
name = top;
position = "{142, 505}";
},
{
name = topright;
position = "{261, 514}";
}
);
background = {
anchors = (
{
name = bottom;
position = "{171, 0}";
},
{
name = center;
position = "{171, 480}";
},
{
name = top;
position = "{142, 505}";
},
{
name = topright;
position = "{261, 514}";
}
);
paths = (
{
closed = 1;
nodes = (
"34 132 LINE SMOOTH",
"34 69 OFFCURVE",
"20 -5 OFFCURVE",
"214 -5 CURVE SMOOTH",
"278 -5 OFFCURVE",
"302 5 OFFCURVE",
"313 7 CURVE",
"313 79 LINE",
"310 77 OFFCURVE",
"297 73 OFFCURVE",
"287 73 CURVE SMOOTH",
"240 73 OFFCURVE",
"241 99 OFFCURVE",
"241 152 CURVE SMOOTH",
"241 426 LINE",
"241 426 OFFCURVE",
"243 498 OFFCURVE",
"245 505 CURVE",
"108 505 LINE SMOOTH",
"45 505 OFFCURVE",
"34 498 OFFCURVE",
"34 436 CURVE SMOOTH"
);
}
);
};
layerId = "C7668D88-AC50-4107-9C4B-DB5D26A8FA6C";
paths = (
{
closed = 1;
nodes = (
"278 -5 OFFCURVE",
"302 5 OFFCURVE",
"313 7 CURVE",
"313 79 LINE",
"310 77 OFFCURVE",
"297 73 OFFCURVE",
"283 73 CURVE SMOOTH",
"249 73 OFFCURVE",
"239 89 OFFCURVE",
"239 134 CURVE SMOOTH",
"239 426 LINE SMOOTH",
"239 460 OFFCURVE",
"242 498 OFFCURVE",
"244 505 CURVE",
"108 505 LINE SMOOTH",
"46 505 OFFCURVE",
"34 495 OFFCURVE",
"34 436 CURVE SMOOTH",
"34 112 LINE SMOOTH",
"34 25 OFFCURVE",
"82 -5 OFFCURVE",
"200 -5 CURVE SMOOTH"
);
}
);
width = 315;
},
{
anchors = (
{
name = bottom;
position = "{106, 0}";
},
{
name = center;
position = "{106, 480}";
},
{
name = top;
position = "{80, 505}";
},
{
name = topright;
position = "{145, 505}";
}
);
layerId = "B5FD97B6-BD2C-4287-9857-851C623D3F63";
paths = (
{
closed = 1;
nodes = (
"147 -3 OFFCURVE",
"159 0 OFFCURVE",
"166 2 CURVE",
"166 19 LINE",
"161 16 OFFCURVE",
"137 14 OFFCURVE",
"130 14 CURVE SMOOTH",
"95 14 OFFCURVE",
"88 37 OFFCURVE",
"88 89 CURVE SMOOTH",
"88 475 LINE SMOOTH",
"88 495 OFFCURVE",
"89 505 OFFCURVE",
"89 505 CURVE",
"80 505 LINE SMOOTH",
"68 505 OFFCURVE",
"66 496 OFFCURVE",
"66 484 CURVE SMOOTH",
"66 82 LINE SMOOTH",
"66 18 OFFCURVE",
"82 -3 OFFCURVE",
"124 -3 CURVE SMOOTH"
);
}
);
width = 178;
}
);
leftKerningGroup = l;
note = l;
rightKerningGroup = i;
unicode = 006C;
},
{
glyphname = lslash;
lastChange = "2021-09-24 03:41:18 +0000";
layers = (
{
background = {
components = (
{
name = l;
transform = "{1, 0, 0, 1, 46, 0}";
}
);
hints = (
{
horizontal = 1;
place = "{-5, 78}";
type = Stem;
},
{
horizontal = 1;
place = "{426, 79}";
type = Stem;
},
{
place = "{73, 207}";
type = Stem;
}
);
paths = (
{
closed = 1;
nodes = (
"13 216 LINE",
"26 160 LINE",
"355 239 LINE",
"342 295 LINE"
);
}
);
};
components = (
{
name = l;
transform = "{1, 0, 0, 1, 46, 0}";
}
);
layerId = "C7668D88-AC50-4107-9C4B-DB5D26A8FA6C";
paths = (
{
closed = 1;
nodes = (
"13 216 LINE",
"26 160 LINE",
"355 239 LINE",
"342 295 LINE"
);
}
);
width = 359;
},
{
components = (
{
alignment = -1;
name = l;
transform = "{1, 0, 0, 1, 1, 0}";
}
);
layerId = "B5FD97B6-BD2C-4287-9857-851C623D3F63";
paths = (
{
closed = 1;
nodes = (
"0 139 LINE",
"5 124 LINE",
"188 190 LINE",
"183 204 LINE"
);
}
);
width = 199;
}
);
note = lslash;
unicode = 0142;
},
{
glyphname = m;
lastChange = "2021-09-24 03:44:21 +0000";
layers = (
{
anchors = (
{
name = bottom;
position = "{409, 0}";
},
{
name = top;
position = "{409, 399}";
}
);
background = {
anchors = (
{
name = bottom;
position = "{409, 0}";
},
{
name = top;
position = "{409, 399}";
}
);
paths = (
{
closed = 1;
nodes = (
"34 276 OFFCURVE",
"34 174 OFFCURVE",
"34 73 CURVE SMOOTH",
"34 22 OFFCURVE",
"34 0 OFFCURVE",
"107 0 CURVE SMOOTH",
"152 0 OFFCURVE",
"196 0 OFFCURVE",
"241 0 CURVE",
"241 96 OFFCURVE",
"241 193 OFFCURVE",
"241 289 CURVE SMOOTH",
"241 301 OFFCURVE",
"252 303 OFFCURVE",
"266 303 CURVE SMOOTH",
"292 303 OFFCURVE",
"305 300 OFFCURVE",
"305 252 CURVE SMOOTH",
"305 178 OFFCURVE",
"305 103 OFFCURVE",
"305 29 CURVE SMOOTH",
"305 19 OFFCURVE",
"305 10 OFFCURVE",
"305 0 CURVE",
"374 0 OFFCURVE",
"444 0 OFFCURVE",
"513 0 CURVE",
"513 9 OFFCURVE",
"513 18 OFFCURVE",
"513 27 CURVE SMOOTH",
"513 115 OFFCURVE",
"513 203 OFFCURVE",
"513 291 CURVE SMOOTH",
"513 303 OFFCURVE",
"525 305 OFFCURVE",
"538 305 CURVE SMOOTH",
"563 305 OFFCURVE",
"576 300 OFFCURVE",
"577 252 CURVE SMOOTH",
"577 168 OFFCURVE",
"577 84 OFFCURVE",
"577 0 CURVE",
"622 0 OFFCURVE",
"666 0 OFFCURVE",
"711 0 CURVE SMOOTH",
"768 0 OFFCURVE",
"784 7 OFFCURVE",
"784 66 CURVE SMOOTH",
"784 126 OFFCURVE",
"784 185 OFFCURVE",
"784 245 CURVE SMOOTH",
"784 373 OFFCURVE",
"731 400 OFFCURVE",
"573 400 CURVE SMOOTH",
"537 400 OFFCURVE",
"463 396 OFFCURVE",
"427 343 CURVE",
"392 410 OFFCURVE",
"298 400 OFFCURVE",
"247 400 CURVE SMOOTH",
"213 400 OFFCURVE",
"87 392 OFFCURVE",
"34 377 CURVE"
);
}
);
};
layerId = "C7668D88-AC50-4107-9C4B-DB5D26A8FA6C";
paths = (
{
closed = 1;
nodes = (
"241 0 LINE",
"241 285 LINE SMOOTH",
"241 298 OFFCURVE",
"246 303 OFFCURVE",
"266 303 CURVE SMOOTH",
"295 303 OFFCURVE",
"305 295 OFFCURVE",
"305 252 CURVE SMOOTH",
"305 0 LINE",
"513 0 LINE",
"513 282 LINE SMOOTH",
"513 296 OFFCURVE",
"520 305 OFFCURVE",
"538 305 CURVE SMOOTH",
"563 305 OFFCURVE",
"576 300 OFFCURVE",
"577 252 CURVE SMOOTH",
"577 168 OFFCURVE",
"577 84 OFFCURVE",
"577 0 CURVE",
"711 0 LINE SMOOTH",
"768 0 OFFCURVE",
"784 7 OFFCURVE",
"784 66 CURVE SMOOTH",
"784 245 LINE SMOOTH",
"784 373 OFFCURVE",
"731 400 OFFCURVE",
"573 400 CURVE SMOOTH",
"530 400 OFFCURVE",
"438 394 OFFCURVE",
"415 309 CURVE",
"442 308 LINE",
"409 389 OFFCURVE",
"360 400 OFFCURVE",
"273 400 CURVE SMOOTH",
"213 400 OFFCURVE",
"87 392 OFFCURVE",
"34 377 CURVE",
"34 73 LINE SMOOTH",
"34 12 OFFCURVE",
"47 0 OFFCURVE",
"107 0 CURVE SMOOTH"
);
}
);
width = 810;
},
{
anchors = (
{
name = bottom;
position = "{326, 0}";
},
{
name = top;
position = "{326, 399}";
}
);
layerId = "B5FD97B6-BD2C-4287-9857-851C623D3F63";
paths = (
{
closed = 1;
nodes = (
"91 0 LINE",
"91 349 LINE",
"96 373 OFFCURVE",
"155 384 OFFCURVE",
"211 384 CURVE SMOOTH",
"268 384 OFFCURVE",
"315 358 OFFCURVE",
"315 334 CURVE SMOOTH",
"315 0 LINE",
"337 0 LINE",
"337 334 LINE SMOOTH",
"337 366 OFFCURVE",
"410 385 OFFCURVE",
"458 385 CURVE SMOOTH",
"526 385 OFFCURVE",
"560 362 OFFCURVE",
"560 299 CURVE SMOOTH",
"560 199 OFFCURVE",
"560 100 OFFCURVE",
"560 0 CURVE",
"569 0 LINE SMOOTH",
"578 0 OFFCURVE",
"582 4 OFFCURVE",
"582 14 CURVE SMOOTH",
"582 299 LINE SMOOTH",
"582 370 OFFCURVE",
"553 403 OFFCURVE",
"457 403 CURVE SMOOTH",
"400 403 OFFCURVE",
"342 384 OFFCURVE",
"322 351 CURVE",
"331 351 LINE",
"311 385 OFFCURVE",
"273 402 OFFCURVE",
"213 402 CURVE SMOOTH",
"114 402 OFFCURVE",
"80 373 OFFCURVE",
"69 367 CURVE",
"69 14 LINE SMOOTH",
"69 3 OFFCURVE",
"72 0 OFFCURVE",
"84 0 CURVE SMOOTH"
);
}
);
width = 646;
}
);
leftKerningGroup = n;
leftMetricsKey = n;
note = m;
rightKerningGroup = n;
rightMetricsKey = n;
unicode = 006D;
},
{
glyphname = n;
lastChange = "2021-09-24 03:41:18 +0000";
layers = (
{
anchors = (
{
name = bottom;
position = "{285, 0}";
},
{
name = top;
position = "{285, 399}";
}
);
background = {
anchors = (
{
name = bottom;
position = "{285, 0}";
},
{
name = top;
position = "{285, 399}";
}
);
paths = (
{
closed = 1;
nodes = (
"34 277 OFFCURVE",
"34 175 OFFCURVE",
"34 51 CURVE SMOOTH",
"34 17 OFFCURVE",
"50 0 OFFCURVE",
"83 0 CURVE",
"240 0 LINE",
"240 94 OFFCURVE",
"240 186 OFFCURVE",
"240 280 CURVE",
"250 287 OFFCURVE",
"269 292 OFFCURVE",
"283 292 CURVE SMOOTH",
"303 292 OFFCURVE",
"329 281 OFFCURVE",
"329 244 CURVE SMOOTH",
"329 170 OFFCURVE",
"329 98 OFFCURVE",
"329 24 CURVE SMOOTH",
"329 16 OFFCURVE",
"329 8 OFFCURVE",
"329 0 CURVE",
"458 -1 LINE",
"530 -1 OFFCURVE",
"535 15 OFFCURVE",
"535 75 CURVE SMOOTH",
"535 115 OFFCURVE",
"535 154 OFFCURVE",
"535 194 CURVE SMOOTH",
"535 358 OFFCURVE",
"521 402 OFFCURVE",
"282 402 CURVE SMOOTH",
"175 402 OFFCURVE",
"75 390 OFFCURVE",
"34 379 CURVE"
);
}
);
};
layerId = "C7668D88-AC50-4107-9C4B-DB5D26A8FA6C";
paths = (
{
closed = 1;
nodes = (
"240 0 LINE",
"240 280 LINE",
"250 287 OFFCURVE",
"269 292 OFFCURVE",
"283 292 CURVE SMOOTH",
"303 292 OFFCURVE",
"329 281 OFFCURVE",
"329 244 CURVE SMOOTH",
"329 0 LINE",
"458 -1 LINE SMOOTH",
"530 -1 OFFCURVE",
"535 15 OFFCURVE",
"535 75 CURVE SMOOTH",
"535 194 LINE SMOOTH",
"535 358 OFFCURVE",
"521 402 OFFCURVE",
"282 402 CURVE SMOOTH",
"175 402 OFFCURVE",
"75 390 OFFCURVE",
"34 379 CURVE",
"34 51 LINE SMOOTH",
"34 17 OFFCURVE",
"50 0 OFFCURVE",
"83 0 CURVE SMOOTH"
);
}
);
width = 561;
},
{
anchors = (
{
name = bottom;
position = "{229, 0}";
},
{
name = top;
position = "{229, 399}";
}
);
layerId = "B5FD97B6-BD2C-4287-9857-851C623D3F63";
paths = (
{
closed = 1;
nodes = (
"91 0 LINE",
"91 353 LINE",
"120 374 OFFCURVE",
"187 384 OFFCURVE",
"233 384 CURVE SMOOTH",
"333 384 OFFCURVE",
"367 355 OFFCURVE",
"367 295 CURVE SMOOTH",
"367 0 LINE",
"374 0 LINE SMOOTH",
"384 0 OFFCURVE",
"389 5 OFFCURVE",
"389 14 CURVE SMOOTH",
"389 294 LINE SMOOTH",
"389 367 OFFCURVE",
"361 403 OFFCURVE",
"233 403 CURVE SMOOTH",
"159 403 OFFCURVE",
"107 387 OFFCURVE",
"69 367 CURVE",
"69 14 LINE SMOOTH",
"69 3 OFFCURVE",
"73 0 OFFCURVE",
"83 0 CURVE SMOOTH"
);
}
);
width = 453;
}
);
leftKerningGroup = n;
note = n;
rightKerningGroup = h;
unicode = 006E;
},
{
glyphname = eng;
lastChange = "2021-09-24 03:41:18 +0000";
layers = (
{
background = {
paths = (
{
closed = 1;
nodes = (
"30 73 LINE SMOOTH",
"30 25 OFFCURVE",
"34 -1 OFFCURVE",
"79 -1 CURVE SMOOTH",
"90 -1 OFFCURVE",
"232 0 OFFCURVE",
"237 0 CURVE",
"237 281 LINE",
"250 287 OFFCURVE",
"265 293 OFFCURVE",
"279 293 CURVE SMOOTH",
"302 293 OFFCURVE",
"322 283 OFFCURVE",
"324 249 CURVE",
"324 166 OFFCURVE",
"324 83 OFFCURVE",
"324 0 CURVE SMOOTH",
"323 -38 OFFCURVE",
"297 -61 OFFCURVE",
"226 -51 CURVE",
"226 -61 OFFCURVE",
"225 -107 OFFCURVE",
"225 -115 CURVE",
"243 -126 OFFCURVE",
"297 -135 OFFCURVE",
"351 -135 CURVE SMOOTH",
"566 -135 OFFCURVE",
"532 -32 OFFCURVE",
"532 31 CURVE SMOOTH",
"532 81 OFFCURVE",
"531 100 OFFCURVE",
"531 119 CURVE SMOOTH",
"531 194 LINE SMOOTH",
"531 358 OFFCURVE",
"517 402 OFFCURVE",
"278 402 CURVE SMOOTH",
"171 402 OFFCURVE",
"71 390 OFFCURVE",
"30 379 CURVE"
);
}
);
};
layerId = "C7668D88-AC50-4107-9C4B-DB5D26A8FA6C";
paths = (
{
closed = 1;
nodes = (
"30 73 LINE SMOOTH",
"30 25 OFFCURVE",
"34 -1 OFFCURVE",
"79 -1 CURVE SMOOTH",
"90 -1 OFFCURVE",
"232 0 OFFCURVE",
"237 0 CURVE",
"237 281 LINE",
"250 287 OFFCURVE",
"265 293 OFFCURVE",
"279 293 CURVE SMOOTH",
"302 293 OFFCURVE",
"322 283 OFFCURVE",
"324 249 CURVE",
"324 166 OFFCURVE",
"324 83 OFFCURVE",
"324 0 CURVE SMOOTH",
"323 -38 OFFCURVE",
"297 -61 OFFCURVE",
"226 -51 CURVE",
"226 -61 OFFCURVE",
"225 -107 OFFCURVE",
"225 -115 CURVE",
"243 -126 OFFCURVE",
"297 -135 OFFCURVE",
"351 -135 CURVE SMOOTH",
"566 -135 OFFCURVE",
"532 -32 OFFCURVE",
"532 31 CURVE SMOOTH",
"532 81 OFFCURVE",
"531 100 OFFCURVE",
"531 119 CURVE SMOOTH",
"531 194 LINE SMOOTH",
"531 358 OFFCURVE",
"517 402 OFFCURVE",
"278 402 CURVE SMOOTH",
"171 402 OFFCURVE",
"71 390 OFFCURVE",
"30 379 CURVE"
);
}
);
width = 562;
},
{
layerId = "B5FD97B6-BD2C-4287-9857-851C623D3F63";
paths = (
{
closed = 1;
nodes = (
"42 14 LINE SMOOTH",
"42 2 OFFCURVE",
"47 0 OFFCURVE",
"56 0 CURVE SMOOTH",
"58 0 OFFCURVE",
"62 0 OFFCURVE",
"64 0 CURVE",
"64 348 LINE",
"69 373 OFFCURVE",
"137 386 OFFCURVE",
"209 386 CURVE SMOOTH",
"295 386 OFFCURVE",
"340 358 OFFCURVE",
"340 295 CURVE SMOOTH",
"340 194 OFFCURVE",
"340 94 OFFCURVE",
"340 -7 CURVE SMOOTH",
"340 -71 OFFCURVE",
"333 -91 OFFCURVE",
"253 -80 CURVE",
"253 -85 OFFCURVE",
"253 -90 OFFCURVE",
"253 -95 CURVE",
"262 -97 OFFCURVE",
"284 -99 OFFCURVE",
"304 -99 CURVE SMOOTH",
"359 -99 OFFCURVE",
"363 -64 OFFCURVE",
"363 6 CURVE SMOOTH",
"363 10 OFFCURVE",
"362 40 OFFCURVE",
"362 85 CURVE SMOOTH",
"362 294 LINE SMOOTH",
"362 366 OFFCURVE",
"334 402 OFFCURVE",
"212 402 CURVE SMOOTH",
"83 402 OFFCURVE",
"52 373 OFFCURVE",
"42 367 CURVE"
);
}
);
width = 423;
}
);
note = eng;
rightKerningGroup = h;
unicode = 014B;
},
{
glyphname = o;
lastChange = "2021-09-30 04:46:55 +0000";
layers = (
{
anchors = (
{
name = bottom;
position = "{279, 0}";
},
{
name = center;
position = "{279, 200}";
},
{
name = ogonek;
position = "{382, 10}";
},
{
name = top;
position = "{279, 399}";
},
{
name = topright;
position = "{370, 399}";
}
);
background = {
anchors = (
{
name = bottom;
position = "{279, 0}";
},
{
name = center;
position = "{279, 200}";
},
{
name = ogonek;
position = "{510, 10}";
},
{
name = top;
position = "{279, 399}";
},
{
name = topright;
position = "{370, 399}";
}
);
paths = (
{
closed = 1;
nodes = (
"417 -7 OFFCURVE",
"543 7 OFFCURVE",
"543 199 CURVE SMOOTH",
"543 387 OFFCURVE",
"429 405 OFFCURVE",
"286 405 CURVE SMOOTH",
"145 405 OFFCURVE",
"18 391 OFFCURVE",
"18 199 CURVE SMOOTH",
"18 12 OFFCURVE",
"130 -7 OFFCURVE",
"274 -7 CURVE SMOOTH"
);
},
{
closed = 1;
nodes = (
"255 92 OFFCURVE",
"232 104 OFFCURVE",
"232 198 CURVE SMOOTH",
"232 292 OFFCURVE",
"251 306 OFFCURVE",
"284 306 CURVE SMOOTH",
"308 306 OFFCURVE",
"329 293 OFFCURVE",
"329 199 CURVE SMOOTH",
"329 105 OFFCURVE",
"314 92 OFFCURVE",
"284 92 CURVE SMOOTH"
);
}
);
};
layerId = "C7668D88-AC50-4107-9C4B-DB5D26A8FA6C";
paths = (
{
closed = 1;
nodes = (
"457 -7 OFFCURVE",
"538 33 OFFCURVE",
"538 199 CURVE SMOOTH",
"538 365 OFFCURVE",
"458 405 OFFCURVE",
"283 405 CURVE SMOOTH",
"105 405 OFFCURVE",
"24 365 OFFCURVE",
"24 199 CURVE SMOOTH",
"24 33 OFFCURVE",
"105 -7 OFFCURVE",
"283 -7 CURVE SMOOTH"
);
},
{
closed = 1;
nodes = (
"248 92 OFFCURVE",
"232 115 OFFCURVE",
"232 199 CURVE SMOOTH",
"232 283 OFFCURVE",
"248 306 OFFCURVE",
"283 306 CURVE SMOOTH",
"318 306 OFFCURVE",
"330 283 OFFCURVE",
"330 199 CURVE SMOOTH",
"330 115 OFFCURVE",
"318 92 OFFCURVE",
"283 92 CURVE SMOOTH"
);
}
);
width = 562;
},
{
anchors = (
{
name = bottom;
position = "{230, 0}";
},
{
name = center;
position = "{230, 200}";
},
{
name = ogonek;
position = "{294, 10}";
},
{
name = top;
position = "{230, 399}";
},
{
name = topright;
position = "{291, 399}";
}
);
layerId = "B5FD97B6-BD2C-4287-9857-851C623D3F63";
paths = (
{
closed = 1;
nodes = (
"332 -5 OFFCURVE",
"409 13 OFFCURVE",
"409 199 CURVE SMOOTH",
"409 384 OFFCURVE",
"332 403 OFFCURVE",
"230 403 CURVE SMOOTH",
"128 403 OFFCURVE",
"51 384 OFFCURVE",
"51 199 CURVE SMOOTH",
"51 14 OFFCURVE",
"128 -5 OFFCURVE",
"230 -5 CURVE SMOOTH"
);
},
{
closed = 1;
nodes = (
"134 13 OFFCURVE",
"75 36 OFFCURVE",
"75 199 CURVE SMOOTH",
"75 362 OFFCURVE",
"134 385 OFFCURVE",
"230 385 CURVE SMOOTH",
"326 385 OFFCURVE",
"385 362 OFFCURVE",
"385 199 CURVE SMOOTH",
"385 36 OFFCURVE",
"326 13 OFFCURVE",
"230 13 CURVE SMOOTH"
);
}
);
width = 460;
}
);
leftKerningGroup = o;
note = o;
rightKerningGroup = o;
unicode = 006F;
},
{
glyphname = oslash;
lastChange = "2021-09-29 01:10:18 +0000";
layers = (
{
anchors = (
{
name = top;
position = "{289, 399}";
}
);
background = {
anchors = (
{
name = top;
position = "{289, 399}";
}
);
paths = (
{
closed = 1;
nodes = (
"26 12 OFFCURVE",
"138 -7 OFFCURVE",
"282 -7 CURVE SMOOTH",
"425 -7 OFFCURVE",
"551 7 OFFCURVE",
"551 199 CURVE SMOOTH",
"551 387 OFFCURVE",
"437 405 OFFCURVE",
"294 405 CURVE SMOOTH",
"153 405 OFFCURVE",
"26 391 OFFCURVE",
"26 199 CURVE SMOOTH"
);
},
{
closed = 1;
nodes = (
"351 103 OFFCURVE",
"327 90 OFFCURVE",
"289 90 CURVE SMOOTH",
"250 90 OFFCURVE",
"225 103 OFFCURVE",
"225 197 CURVE SMOOTH",
"225 291 OFFCURVE",
"250 304 OFFCURVE",
"289 304 CURVE SMOOTH",
"327 304 OFFCURVE",
"351 291 OFFCURVE",
"351 197 CURVE SMOOTH"
);
},
{
closed = 1;
nodes = (
"188 -85 LINE",
"428 431 LINE",
"362 431 LINE",
"123 -85 LINE"
);
}
);
};
components = (
{
name = o;
}
);
layerId = "C7668D88-AC50-4107-9C4B-DB5D26A8FA6C";
paths = (
{
closed = 1;
nodes = (
"200 -55 LINE",
"440 461 LINE",
"374 461 LINE",
"135 -55 LINE"
);
}
);
width = 562;
},
{
anchors = (
{
name = top;
position = "{214, 399}";
}
);
components = (
{
name = o;
}
);
layerId = "B5FD97B6-BD2C-4287-9857-851C623D3F63";
paths = (
{
closed = 1;
nodes = (
"125 -66 LINE",
"332 469 LINE",
"313 469 LINE",
"106 -66 LINE"
);
}
);
width = 460;
}
);
leftKerningGroup = e;
note = oslash;
rightKerningGroup = o;
unicode = 00F8;
},
{
color = 0;
glyphname = p;
lastChange = "2021-09-24 03:41:18 +0000";
layers = (
{
anchors = (
{
name = bottom;
position = "{298, 0}";
},
{
name = top;
position = "{298, 399}";
}
);
background = {
anchors = (
{
name = bottom;
position = "{298, 0}";
},
{
name = top;
position = "{298, 399}";
}
);
paths = (
{
closed = 1;
nodes = (
"36 384 OFFCURVE",
"37 357 OFFCURVE",
"37 328 CURVE SMOOTH",
"37 204 LINE",
"35 -107 LINE",
"244 -107 LINE",
"245 42 LINE",
"251 13 OFFCURVE",
"286 -3 OFFCURVE",
"358 -3 CURVE SMOOTH",
"522 -3 OFFCURVE",
"566 46 OFFCURVE",
"563 210 CURVE SMOOTH",
"560 365 OFFCURVE",
"488 403 OFFCURVE",
"289 403 CURVE SMOOTH",
"209 403 OFFCURVE",
"59 394 OFFCURVE",
"34 389 CURVE"
);
},
{
closed = 1;
nodes = (
"246 295 LINE",
"264 295 OFFCURVE",
"280 296 OFFCURVE",
"298 296 CURVE SMOOTH",
"332 296 OFFCURVE",
"344 283 OFFCURVE",
"344 231 CURVE SMOOTH",
"344 117 OFFCURVE",
"334 106 OFFCURVE",
"294 106 CURVE SMOOTH",
"262 106 OFFCURVE",
"244 119 OFFCURVE",
"245 203 CURVE SMOOTH"
);
}
);
};
layerId = "C7668D88-AC50-4107-9C4B-DB5D26A8FA6C";
paths = (
{
closed = 1;
nodes = (
"246 -107 LINE",
"246 72 LINE",
"218 64 LINE",
"239 29 OFFCURVE",
"268 -3 OFFCURVE",
"358 -3 CURVE SMOOTH",
"509 -3 OFFCURVE",
"551 45 OFFCURVE",
"554 201 CURVE SMOOTH",
"556 350 OFFCURVE",
"495 403 OFFCURVE",
"289 403 CURVE SMOOTH",
"209 403 OFFCURVE",
"59 394 OFFCURVE",
"34 389 CURVE",
"36 384 OFFCURVE",
"37 357 OFFCURVE",
"37 328 CURVE SMOOTH",
"37 -107 LINE"
);
},
{
closed = 1;
nodes = (
"264 106 OFFCURVE",
"246 119 OFFCURVE",
"246 192 CURVE SMOOTH",
"246 293 LINE",
"263 295 OFFCURVE",
"280 296 OFFCURVE",
"298 296 CURVE SMOOTH",
"335 296 OFFCURVE",
"343 275 OFFCURVE",
"343 212 CURVE SMOOTH",
"343 142 OFFCURVE",
"345 106 OFFCURVE",
"296 106 CURVE SMOOTH"
);
}
);
width = 578;
},
{
anchors = (
{
name = bottom;
position = "{238, 0}";
},
{
name = top;
position = "{238, 399}";
}
);
layerId = "B5FD97B6-BD2C-4287-9857-851C623D3F63";
paths = (
{
closed = 1;
nodes = (
"92 -107 LINE",
"92 108 LINE",
"86 96 LINE",
"93 10 OFFCURVE",
"163 -4 OFFCURVE",
"241 -4 CURVE SMOOTH",
"365 -4 OFFCURVE",
"406 51 OFFCURVE",
"413 192 CURVE SMOOTH",
"420 335 OFFCURVE",
"372 402 OFFCURVE",
"227 402 CURVE SMOOTH",
"171 402 OFFCURVE",
"88 394 OFFCURVE",
"69 390 CURVE",
"70 382 OFFCURVE",
"71 350 OFFCURVE",
"71 311 CURVE SMOOTH",
"70 -107 LINE"
);
},
{
closed = 1;
nodes = (
"151 14 OFFCURVE",
"93 39 OFFCURVE",
"93 141 CURVE SMOOTH",
"93 375 LINE",
"112 378 OFFCURVE",
"189 384 OFFCURVE",
"224 384 CURVE SMOOTH",
"351 384 OFFCURVE",
"395 335 OFFCURVE",
"391 196 CURVE SMOOTH",
"391 61 OFFCURVE",
"337 14 OFFCURVE",
"244 14 CURVE SMOOTH"
);
}
);
width = 465;
}
);
leftKerningGroup = n;
leftMetricsKey = n;
note = p;
rightKerningGroup = o;
rightMetricsKey = o;
unicode = 0070;
},
{
glyphname = thorn;
lastChange = "2021-09-24 03:41:18 +0000";
layers = (
{
background = {
paths = (
{
closed = 1;
nodes = (
"240 -107 LINE",
"239 26 LINE",
"246 26 OFFCURVE",
"254 26 OFFCURVE",
"261 26 CURVE SMOOTH",
"443 26 OFFCURVE",
"557 21 OFFCURVE",
"557 194 CURVE SMOOTH",
"557 362 OFFCURVE",
"424 369 OFFCURVE",
"265 369 CURVE SMOOTH",
"256 369 OFFCURVE",
"248 369 OFFCURVE",
"239 369 CURVE",
"239 507 LINE",
"112 507 LINE SMOOTH",
"61 507 OFFCURVE",
"45 494 OFFCURVE",
"45 441 CURVE SMOOTH",
"45 -107 LINE"
);
},
{
closed = 1;
nodes = (
"356 135 OFFCURVE",
"328 120 OFFCURVE",
"265 115 CURVE SMOOTH",
"256 114 OFFCURVE",
"248 114 OFFCURVE",
"239 113 CURVE",
"239 285 LINE",
"247 285 OFFCURVE",
"254 285 OFFCURVE",
"260 284 CURVE SMOOTH",
"325 282 OFFCURVE",
"356 267 OFFCURVE",
"356 198 CURVE SMOOTH"
);
}
);
};
layerId = "C7668D88-AC50-4107-9C4B-DB5D26A8FA6C";
paths = (
{
closed = 1;
nodes = (
"240 -107 LINE",
"239 26 LINE",
"246 26 OFFCURVE",
"254 26 OFFCURVE",
"261 26 CURVE SMOOTH",
"443 26 OFFCURVE",
"557 21 OFFCURVE",
"557 194 CURVE SMOOTH",
"557 362 OFFCURVE",
"424 369 OFFCURVE",
"265 369 CURVE SMOOTH",
"256 369 OFFCURVE",
"248 369 OFFCURVE",
"239 369 CURVE",
"239 507 LINE",
"112 507 LINE SMOOTH",
"61 507 OFFCURVE",
"45 494 OFFCURVE",
"45 441 CURVE SMOOTH",
"45 -107 LINE"
);
},
{
closed = 1;
nodes = (
"356 135 OFFCURVE",
"328 120 OFFCURVE",
"265 115 CURVE SMOOTH",
"256 114 OFFCURVE",
"248 114 OFFCURVE",
"239 113 CURVE",
"239 285 LINE",
"247 285 OFFCURVE",
"254 285 OFFCURVE",
"260 284 CURVE SMOOTH",
"325 282 OFFCURVE",
"356 267 OFFCURVE",
"356 198 CURVE SMOOTH"
);
}
);
width = 571;
},
{
layerId = "B5FD97B6-BD2C-4287-9857-851C623D3F63";
paths = (
{
closed = 1;
nodes = (
"65 -108 LINE",
"65 32 LINE",
"98 24 OFFCURVE",
"148 23 OFFCURVE",
"164 23 CURVE SMOOTH",
"299 23 OFFCURVE",
"370 39 OFFCURVE",
"370 198 CURVE SMOOTH",
"370 359 OFFCURVE",
"299 377 OFFCURVE",
"167 377 CURVE SMOOTH",
"153 377 OFFCURVE",
"97 374 OFFCURVE",
"65 366 CURVE",
"65 502 LINE",
"53 502 LINE SMOOTH",
"44 502 OFFCURVE",
"41 499 OFFCURVE",
"41 478 CURVE SMOOTH",
"41 -108 LINE"
);
},
{
closed = 1;
nodes = (
"347 56 OFFCURVE",
"296 39 OFFCURVE",
"162 39 CURVE SMOOTH",
"126 39 OFFCURVE",
"90 44 OFFCURVE",
"65 49 CURVE",
"65 352 LINE",
"82 358 OFFCURVE",
"125 363 OFFCURVE",
"161 363 CURVE SMOOTH",
"294 363 OFFCURVE",
"347 339 OFFCURVE",
"347 198 CURVE SMOOTH"
);
}
);
width = 419;
}
);
leftKerningGroup = bracketleft;
note = thorn;
unicode = 00FE;
},
